<svg width="16" height="18" viewBox="0 0 16 18" fill="none" xmlns="http://www.w3.org/2000/svg">
<path d="M7.97743 3.9299C8.01201 2.83371 8.48921 1.95537 9.30185 1.24302C9.88971 0.727779 10.5779 0.43039 11.3386 0.288612C11.4562 0.267864 11.5046 0.285154 11.5081 0.416558C11.5184 1.71677 11.0378 2.78875 10.0453 3.63251C9.50933 4.08897 8.89726 4.31374 8.19528 4.32065C8.02238 4.32411 7.94976 4.2757 7.97397 4.09934C7.98434 4.04747 7.97743 3.98868 7.97743 3.9299Z" fill="#010101"/>
<path d="M5.19729 4.55219C5.90618 4.53144 6.49404 4.7735 7.08536 4.99481C7.34817 5.09509 7.61098 5.19538 7.88416 5.26799C8.09856 5.32678 8.30604 5.29912 8.51006 5.22304C8.86278 5.09509 9.21204 4.96715 9.56475 4.83574C10.1803 4.60751 10.8131 4.4519 11.4701 4.4934C12.6977 4.56947 13.7386 5.04668 14.5305 6.01147C14.6688 6.17745 14.6584 6.19474 14.4855 6.31577C13.2026 7.21831 12.6424 8.45974 12.8153 10.0124C12.9674 11.3921 13.6971 12.3811 14.9281 13.007C15.0872 13.0866 15.1183 13.1592 15.0595 13.3217C14.648 14.4456 14.0671 15.4726 13.3063 16.3959C13.0781 16.6725 12.8464 16.9422 12.5767 17.1739C11.9715 17.6892 11.2868 17.8033 10.5226 17.6027C10.1319 17.499 9.76878 17.3226 9.38494 17.1947C8.64492 16.9526 7.91528 16.9976 7.18218 17.2327C6.79834 17.3572 6.43525 17.5266 6.0445 17.6338C5.28374 17.8448 4.64055 17.658 4.07343 17.1255C3.1121 16.2264 2.39975 15.151 1.86722 13.958C1.47647 13.0935 1.19637 12.1806 1.04421 11.2331C0.854024 10.0608 0.840192 8.89545 1.19982 7.75084C1.4903 6.81372 1.99171 6.01147 2.76976 5.40631C3.49594 4.84266 4.32241 4.53835 5.19729 4.55219Z" fill="#010101"/>
</svg>
