<svg width="268" height="45" viewBox="0 0 268 45" fill="none" xmlns="http://www.w3.org/2000/svg">
<path d="M13.2884 38.1499L10.9354 38.2321L10.6816 30.9638L13.1091 30.879C13.8212 30.8542 14.4379 30.9783 14.9591 31.2515C15.4803 31.5223 15.8864 31.9239 16.1774 32.4562C16.4707 32.986 16.6305 33.6283 16.6568 34.3831C16.6833 35.1402 16.5676 35.7957 16.3098 36.3495C16.0543 36.9033 15.6715 37.3359 15.1612 37.6475C14.6508 37.9567 14.0266 38.1242 13.2884 38.1499ZM11.9986 37.2356L13.1946 37.1938C13.7482 37.1745 14.2048 37.0543 14.5642 36.8333C14.9236 36.6099 15.1874 36.2963 15.3557 35.8925C15.524 35.4863 15.598 34.9957 15.5779 34.4208C15.558 33.8506 15.45 33.3699 15.254 32.9788C15.0603 32.5876 14.7812 32.2953 14.4168 32.1019C14.0523 31.9085 13.6051 31.8211 13.0751 31.8396L11.8117 31.8837L11.9986 37.2356ZM18.5476 37.9663L18.2937 30.698L22.8506 30.5389L22.8836 31.4829L19.4233 31.6037L19.5007 33.8183L22.7231 33.7058L22.756 34.6462L19.5335 34.7588L19.6112 36.984L23.1141 36.8616L23.147 37.8057L18.5476 37.9663ZM25.3505 30.4516L27.5801 36.3006L27.6617 36.2978L29.4779 30.3074L30.6633 30.266L28.3015 37.6257L27.0345 37.6699L24.1651 30.493L25.3505 30.4516ZM32.3665 37.4837L32.1127 30.2154L36.6695 30.0563L36.7025 31.0003L33.2423 31.1212L33.3196 33.3357L36.5421 33.2232L36.5749 34.1637L33.3524 34.2762L33.4301 36.5014L36.933 36.3791L36.966 37.3231L32.3665 37.4837ZM38.788 37.2595L38.5341 29.9912L39.6308 29.9529L39.8516 36.2772L43.1451 36.1621L43.178 37.1062L38.788 37.2595ZM50.7325 33.2038C50.7596 33.9798 50.6409 34.652 50.3765 35.2203C50.112 35.7862 49.7378 36.228 49.2538 36.5458C48.7721 36.8611 48.2177 37.0297 47.5907 37.0516C46.9614 37.0736 46.3942 36.9441 45.8893 36.6633C45.3867 36.38 44.9837 35.9641 44.6803 35.4156C44.3769 34.8672 44.2117 34.2061 44.1846 33.4324C44.1575 32.6564 44.2762 31.9854 44.5407 31.4195C44.8052 30.8512 45.1782 30.4094 45.6599 30.0941C46.1439 29.7764 46.7006 29.6065 47.33 29.5845C47.9569 29.5626 48.5217 29.6933 49.0244 29.9766C49.5293 30.2575 49.9334 30.6721 50.2368 31.2206C50.5402 31.7667 50.7054 32.4277 50.7325 33.2038ZM49.6465 33.2417C49.6259 32.6502 49.5126 32.1555 49.3069 31.7576C49.1034 31.3573 48.8324 31.0588 48.4939 30.8622C48.1576 30.6631 47.7813 30.5708 47.3649 30.5853C46.9461 30.6 46.576 30.7183 46.2545 30.9404C45.9329 31.1601 45.6833 31.4767 45.5059 31.8904C45.3308 32.3016 45.2535 32.8029 45.2742 33.3944C45.2948 33.9859 45.4069 34.4818 45.6104 34.8821C45.8162 35.28 46.0872 35.5785 46.4234 35.7776C46.7595 35.9743 47.137 36.0654 47.5558 36.0508C47.9722 36.0362 48.3412 35.9191 48.6628 35.6994C48.9867 35.4773 49.2362 35.1606 49.4113 34.7494C49.5888 34.3358 49.6672 33.8332 49.6465 33.2417ZM52.6264 36.7762L52.3726 29.5079L54.9633 29.4175C55.5288 29.3977 56.0009 29.4843 56.3795 29.6771C56.7582 29.87 57.046 30.1419 57.243 30.4927C57.44 30.8411 57.5462 31.2378 57.5617 31.6826C57.5773 32.1297 57.4979 32.5352 57.3235 32.899C57.1513 33.2603 56.882 33.5516 56.5154 33.7729C56.1512 33.9917 55.6875 34.111 55.1244 34.1306L53.3428 34.1928L53.3103 33.263L54.9925 33.2043C55.3498 33.1918 55.6375 33.1202 55.8556 32.9894C56.0736 32.8562 56.2309 32.6801 56.3275 32.4612C56.4241 32.2423 56.4676 31.9956 56.458 31.7211C56.4484 31.4467 56.3878 31.2048 56.2763 30.9955C56.1648 30.7862 55.9945 30.6251 55.7655 30.5123C55.5389 30.3994 55.2434 30.3493 54.8791 30.362L53.5021 30.4101L53.723 36.7379L52.6264 36.7762ZM59.4187 36.539L59.1649 29.2707L63.7218 29.1116L63.7548 30.0556L60.2945 30.1765L60.3719 32.391L63.5943 32.2785L63.6272 33.219L60.4047 33.3315L60.4824 35.5567L63.9852 35.4344L64.0182 36.3784L59.4187 36.539ZM68.1932 36.2326L65.8402 36.3148L65.5864 29.0465L68.0139 28.9617C68.7261 28.9369 69.3427 29.061 69.864 29.3342C70.3851 29.605 70.7912 30.0065 71.0822 30.5388C71.3755 31.0687 71.5353 31.711 71.5616 32.4658C71.5881 33.2229 71.4724 33.8784 71.2146 34.4322C70.9591 34.986 70.5763 35.4186 70.066 35.7302C69.5556 36.0394 68.9314 36.2068 68.1932 36.2326ZM66.9034 35.3183L68.0994 35.2765C68.653 35.2572 69.1096 35.137 69.469 34.916C69.8284 34.6926 70.0922 34.379 70.2605 33.9752C70.4288 33.5689 70.5028 33.0784 70.4828 32.5034C70.4628 31.9332 70.3549 31.4526 70.1588 31.0614C69.9651 30.6702 69.686 30.378 69.3216 30.1846C68.9571 29.9912 68.5099 29.9038 67.9799 29.9223L66.7165 29.9664L66.9034 35.3183ZM76.497 35.9427L76.2432 28.6744L78.9049 28.5814C79.4207 28.5634 79.8507 28.6337 80.195 28.7922C80.5392 28.9484 80.8004 29.1678 80.9784 29.4506C81.1564 29.731 81.2517 30.0511 81.2642 30.4107C81.2748 30.7135 81.2281 30.971 81.1242 31.1831C81.0202 31.3928 80.8769 31.5636 80.6944 31.6956C80.5141 31.825 80.3138 31.9221 80.0934 31.9866L80.0959 32.0576C80.3376 32.061 80.5757 32.1308 80.8103 32.2672C81.0471 32.401 81.2458 32.5966 81.4064 32.854C81.567 33.1113 81.6539 33.4281 81.667 33.8042C81.68 34.1757 81.6041 34.5124 81.4393 34.8142C81.2769 35.1136 81.0176 35.356 80.6617 35.5414C80.3056 35.7244 79.8461 35.8257 79.283 35.8454L76.497 35.9427ZM77.5608 34.9639L79.1436 34.9086C79.6689 34.8903 80.0415 34.7754 80.2616 34.564C80.4816 34.3526 80.5863 34.0943 80.5756 33.7891C80.5676 33.5596 80.5023 33.351 80.3797 33.1634C80.257 32.9758 80.0861 32.829 79.8668 32.7229C79.6499 32.6168 79.3948 32.5689 79.1014 32.5791L77.4795 32.6358L77.5608 34.9639ZM77.4496 31.7804L78.9189 31.7291C79.165 31.7205 79.3845 31.6655 79.5776 31.564C79.773 31.4624 79.9258 31.3244 80.0357 31.15C80.148 30.9732 80.2 30.7677 80.1919 30.5334C80.1814 30.2329 80.0673 29.9846 79.8496 29.7885C79.6319 29.5924 79.3054 29.5019 78.8701 29.5171L77.3724 29.5694L77.4496 31.7804ZM82.6212 28.4516L83.8669 28.4081L85.881 31.6459L85.959 31.6432L87.7424 28.2728L88.988 28.2293L86.5053 32.7363L86.605 35.5897L85.5119 35.6278L85.4122 32.7745L82.6212 28.4516Z" fill="white"/>
<path d="M99.5969 39.5151L99.1202 25.8621L103.005 25.7265L103.057 27.2202L101.042 27.2905L101.415 37.9615L103.43 37.8911L103.482 39.3794L99.5969 39.5151Z" fill="#F37024"/>
<path d="M109.519 33.1063C109.618 33.6953 110.309 34.0662 111.138 34.0372C112.01 34.0068 112.562 33.604 112.544 33.085C112.527 32.6062 112.148 32.3855 111.146 32.2173L109.988 32.0353C108.356 31.7874 107.491 30.9548 107.445 29.6448C107.387 27.9691 108.812 26.8398 110.847 26.7688C113.047 26.6919 114.383 27.6941 114.463 29.3154L112.397 29.3875C112.332 28.7609 111.728 28.4043 110.924 28.4323C110.121 28.4604 109.637 28.8243 109.656 29.351C109.672 29.8183 110.071 30.0613 110.998 30.2149L112.145 30.3838C113.895 30.6525 114.702 31.3971 114.75 32.7625C114.81 34.4861 113.402 35.6244 111.141 35.7034C108.88 35.7823 107.477 34.8592 107.391 33.1806L109.519 33.1063Z" fill="#F3F3F3"/>
<path d="M122.521 35.306L122.399 31.8301L118.888 31.9527L119.009 35.4286L116.779 35.5065L116.478 26.8732L118.714 26.7951L118.832 30.181L122.343 30.0584L122.225 26.6725L124.455 26.5946L124.756 35.2279L122.521 35.306Z" fill="#F3F3F3"/>
<path d="M126.688 35.1604L129.338 26.4241L132.069 26.3287L135.336 34.8585L132.956 34.9416L132.334 33.065L129.462 33.1653L126.688 35.1604ZM129.838 31.5703L131.844 31.5003L130.752 28.2078L130.703 28.2095L129.838 31.5703Z" fill="#F3F3F3"/>
<path d="M137.268 34.791L136.966 26.1577L140.776 26.0246C142.665 25.9587 143.986 27.1167 144.051 28.9782C144.116 30.8397 142.812 32.0702 140.855 32.1385L139.417 32.1887L137.268 34.791ZM139.36 30.5379L140.335 30.5039C141.285 30.4707 141.828 29.9666 141.796 29.0627C141.765 28.1588 141.188 27.6995 140.25 27.7323L139.275 27.7664L139.36 30.5379Z" fill="#F3F3F3"/>
<path d="M154.707 29.7125C154.803 32.4645 153.187 34.2351 150.522 34.3281C147.857 34.4212 146.118 32.7678 146.022 30.0157C145.926 27.2637 147.547 25.4872 150.21 25.3942C152.873 25.3012 154.611 26.9605 154.707 29.7125ZM148.3 29.9362C148.358 31.5755 149.205 32.589 150.46 32.5452C151.714 32.5014 152.491 31.4312 152.434 29.7918C152.377 28.1525 151.523 27.1392 150.273 27.1829C149.022 27.2266 148.243 28.2988 148.3 29.9362Z" fill="#F3F3F3"/>
<path d="M159.692 27.5864L160.955 31.8125L161.003 31.8108L162.466 25.2672L164.916 25.1817L162.413 33.9129L159.598 34.0112L156.493 25.4758" fill="#F3F3F3"/>
<path d="M167.15 33.7475L169.804 25.011L172.535 24.9156L175.792 33.4457L173.422 33.5285L172.799 31.6519L169.924 31.7524L167.15 33.7475ZM170.302 30.1573L172.307 30.0872L171.216 26.7948L171.167 26.7965L170.302 30.1573Z" fill="#F3F3F3"/>
<path d="M179.899 31.5286L183.538 31.4016L183.599 33.1731L177.724 33.3782L177.422 24.7449" fill="#F3F3F3"/>
<path d="M190.456 32.7112L193.161 23.8099L195.949 23.7126L199.268 32.4035L196.845 32.4881L196.206 30.5757L193.28 30.6779L190.456 32.7112ZM193.665 29.0538L195.709 28.9824L194.596 25.6274L194.547 25.6291L193.665 29.0538Z" fill="#F3F3F3"/>
<path d="M209.748 27.3877L209.786 28.4678C209.87 30.8694 208.405 32.3912 205.854 32.4803C203.089 32.5768 201.367 30.9592 201.266 28.0693C201.166 25.2158 202.772 23.4743 205.479 23.3798C207.652 23.3039 209.323 24.5091 209.617 26.3032L207.363 26.3819C207.112 25.6103 206.424 25.1588 205.548 25.1893C204.257 25.2344 203.529 26.2531 203.589 27.9671C203.648 29.6811 204.531 30.7356 205.832 30.6902C206.864 30.6541 207.567 30.0313 207.595 29.1445L207.59 29.0104L205.951 29.0677" fill="#F3F3F3"/>
<path d="M218.2 31.7424L212.057 31.9569L211.75 23.1608L217.893 22.9463L217.956 24.7522L214.093 24.8871L214.154 26.6375L217.787 26.5107L217.844 28.1557L214.212 28.2826L214.274 30.0751L218.137 29.9402L218.2 31.7424Z" fill="#F3F3F3"/>
<path d="M220.346 31.6674L220.039 22.8713L221.857 22.8078L225.838 27.7903L225.887 27.7886L225.708 22.6734L227.87 22.5979L228.177 31.394L226.376 31.4568L222.376 26.4194L222.327 26.4211L222.508 31.5919L220.346 31.6674Z" fill="#F3F3F3"/>
<path d="M230.175 27.0579C230.074 24.1852 231.696 22.4643 234.357 22.3713C236.618 22.2924 238.382 23.6612 238.523 25.7309L236.336 25.8073C236.189 24.7789 235.416 24.1137 234.419 24.1486C233.18 24.1918 232.43 25.2592 232.49 26.9617C232.549 28.6642 233.367 29.7094 234.625 29.6655C235.622 29.6307 236.325 28.96 236.432 27.9285L238.617 27.8522C238.584 29.9414 236.982 31.3722 234.682 31.4525C231.999 31.5404 230.275 29.9267 230.175 27.0579Z" fill="#F3F3F3"/>
<path d="M243.96 30.8428L243.855 27.8208L240.567 22.1545L243.013 22.0691L244.922 25.6647L244.967 25.6631L246.614 21.9433L249.018 21.8594L246.133 27.7412L246.239 30.7632L243.96 30.8428Z" fill="#F3F3F3"/>
<path d="M257.261 20.3397L257.738 33.9926L253.853 34.1283L253.801 32.6399L255.816 32.5696L255.443 21.8987L253.428 21.969L253.376 20.4753L257.261 20.3397Z" fill="#F37024"/>
</svg>
