<svg width="18" height="18" viewBox="0 0 18 18" fill="none" xmlns="http://www.w3.org/2000/svg">
<g clip-path="url(#clip0_2090_5262)">
<path d="M17.2731 9.19376C17.2731 8.62021 17.2266 8.04357 17.1274 7.47933L9.16906 7.47933L9.16906 10.7284H13.7264C13.5373 11.7763 12.9297 12.7032 12.0399 13.2923V15.4004H14.7588C16.3554 13.9309 17.2731 11.7608 17.2731 9.19376Z" fill="#4285F4"/>
<path d="M9.16902 17.4375C11.4446 17.4375 13.3636 16.6903 14.7618 15.4006L12.0429 13.2925C11.2865 13.8071 10.3099 14.0985 9.17212 14.0985C6.97095 14.0985 5.1046 12.6135 4.43495 10.617H1.62923V12.7902C3.06154 15.6394 5.97887 17.4375 9.16902 17.4375Z" fill="#34A853"/>
<path d="M4.4318 10.6171C4.07838 9.56918 4.07838 8.4345 4.4318 7.38662L4.4318 5.21335L1.62919 5.21335C0.432494 7.59743 0.432538 10.4062 1.62923 12.7902L4.4318 10.6171Z" fill="#FBBC04"/>
<path d="M9.16901 3.90203C10.3719 3.88343 11.5345 4.33606 12.4057 5.16693L14.8145 2.75804C13.2892 1.32573 11.2648 0.538267 9.16901 0.563069C5.97887 0.563069 3.0615 2.36113 1.62919 5.21335L4.4318 7.38662C5.09836 5.38696 6.96784 3.90203 9.16901 3.90203Z" fill="#EA4335"/>
</g>
<defs>
<clipPath id="clip0_2090_5262">
<rect width="18" height="18" fill="white"/>
</clipPath>
</defs>
</svg>
