<svg width="176" height="63" viewBox="0 0 176 63" fill="none" xmlns="http://www.w3.org/2000/svg">
<path fill-rule="evenodd" clip-rule="evenodd" d="M5.32119 11.3816C6.88748 11.16 8.47712 11.1426 10.0481 11.3298C10.2739 11.3567 10.4345 11.5571 10.4069 11.7773C10.3793 11.9975 10.174 12.1542 9.94827 12.1273C9.79945 12.1095 9.65046 12.0937 9.50133 12.0799C8.15008 11.954 6.78766 11.9862 5.44326 12.1761C5.03029 12.2427 4.08159 12.4887 3.16631 12.8104C2.87999 12.911 2.60189 13.0173 2.34844 13.1257C2.19759 13.1903 2.05547 13.2555 1.92555 13.3208C1.64341 13.4625 1.45891 13.585 1.35802 13.6759C1.24725 17.2204 1.51318 20.7588 1.94471 24.2799L6.72634 24.8514C6.91486 24.8731 7.05854 25.0158 7.08537 25.1906C7.09068 25.2252 7.09141 25.261 7.08701 25.2974C7.0839 25.3231 7.07838 25.3479 7.07067 25.3717C7.01234 25.552 6.82936 25.6722 6.62986 25.6493L1.42201 25.0499C1.23374 25.0282 1.08497 24.8839 1.06164 24.7004C0.589571 20.988 0.415028 17.2455 0.539587 13.5068C0.54219 13.4286 0.568111 13.3529 0.61417 13.289C0.807568 13.0203 1.17777 12.7928 1.54861 12.6065C1.94052 12.4097 2.41274 12.2213 2.88722 12.0545C3.83161 11.7226 4.835 11.4593 5.31361 11.3827L5.32119 11.3816Z" fill="#F3B95F"/>
<path fill-rule="evenodd" clip-rule="evenodd" d="M3.10978 15.4394C3.36019 15.0571 3.75635 14.7402 4.25461 14.7402C4.75508 14.7402 5.1469 15.0596 5.39229 15.4429C5.64211 15.8332 5.78485 16.3479 5.78485 16.8964C5.78485 17.4444 5.6429 17.96 5.39174 18.3514C5.14421 18.7371 4.74964 19.0549 4.24517 19.0549C3.74071 19.0549 3.34613 18.7371 3.09861 18.3514C2.84745 17.96 2.70549 17.4444 2.70549 16.8964C2.70549 16.345 2.85439 15.8293 3.10978 15.4394Z" fill="#F3B95F"/>
<path fill-rule="evenodd" clip-rule="evenodd" d="M3.75126 13.1257H2.34844H1.98802L1.98498 13.1257C1.45954 13.1295 0.91116 13.1446 0.539587 13.5068C0.167981 13.869 0.00312118 14.5491 7.23107e-06 15.0614L0 23.7032L4.15678e-06 23.705C0.00236417 24.2173 0.21294 24.7077 0.585419 25.0691C0.957866 25.4305 1.46191 25.6336 1.98741 25.6344H5.60308L5.60613 25.6343C6.13146 25.6305 6.63426 25.4254 7.00548 25.063C7.03974 25.0296 7.07264 24.995 7.10412 24.9595C7.41367 24.6099 7.58662 24.163 7.58874 23.6981L7.58874 23.6963L7.58875 20.5066L7.58875 16.4711L7.58875 15.0569L7.58874 15.0551C7.58639 14.5432 7.37639 14.0531 7.00475 13.6914C6.63314 13.3297 6.13002 13.1257 5.60492 13.1234L3.79555 13.1234C3.78059 13.1234 3.76581 13.1242 3.75126 13.1257ZM3.83984 13.9268C3.82529 13.9283 3.81052 13.9291 3.79555 13.9291H1.98966C1.68059 13.9317 1.38514 14.0524 1.16702 14.265C0.948878 14.4777 0.825607 14.765 0.823487 15.0651L1.06164 23.7747C1.06324 24.0738 0.948133 24.288 1.16613 24.4995C1.38427 24.7112 1.67977 24.8304 1.98821 24.831H5.60142C5.91017 24.8284 6.20529 24.7076 6.42302 24.4951C6.64083 24.2825 6.76366 23.9952 6.76526 23.6954V15.0578C6.76366 14.7587 6.64085 14.472 6.42316 14.2601C6.20544 14.0483 5.9104 13.9284 5.60209 13.9268H3.83984Z" fill="#F3B95F"/>
<path d="M2.96923 22.0202C2.96923 22.987 3.47421 23.7747 4.09481 23.7747C4.71541 23.7747 5.22275 22.9824 5.22275 22.0202C5.22275 21.0579 4.72721 20.2634 4.09481 20.2634C3.46241 20.2634 2.96923 21.0488 2.96923 22.0202Z" fill="#F3B95F"/>
<path fill-rule="evenodd" clip-rule="evenodd" d="M3.0956 14.2256C3.43667 14.1435 3.79122 14.1286 4.13836 14.1819C4.48979 14.2359 4.82637 14.3588 5.12774 14.543C5.42911 14.7273 5.68902 14.9691 5.89172 15.254C6.09442 15.5389 6.23569 15.8609 6.30693 16.2006C6.37816 16.5402 6.37788 16.8904 6.3061 17.2299C6.23433 17.5694 6.09255 17.8912 5.88939 18.1758C5.68624 18.4604 5.42594 18.7019 5.12428 18.8857C4.82636 19.0672 4.49419 19.1887 4.1474 19.2432C3.8084 19.3151 3.45824 19.3222 3.1164 19.264C2.77022 19.205 2.43931 19.0803 2.14258 18.8968C1.84584 18.7134 1.58907 18.4748 1.38698 18.1946C1.18488 17.9145 1.04142 17.5983 0.964839 17.2641L0.96102 17.2475C0.836348 16.5693 0.992663 15.8707 1.39502 15.3042C1.79488 14.7412 2.40576 14.3541 3.0956 14.2256ZM4.01021 14.9755C3.7685 14.9384 3.52156 14.9493 3.28433 15.0077C3.2759 15.0098 3.2674 15.0116 3.25885 15.0131C2.77693 15.1005 2.35032 15.3697 2.0719 15.7617C1.79517 16.1514 1.68705 16.631 1.77042 17.0972C1.82381 17.3251 1.92227 17.5408 2.06039 17.7323C2.20019 17.926 2.37789 18.0912 2.58337 18.2182C2.78886 18.3453 3.0181 18.4317 3.25801 18.4725C3.49791 18.5134 3.74374 18.5079 3.98144 18.4563C3.99005 18.4544 3.99872 18.4528 4.00744 18.4515C4.2492 18.4147 4.48075 18.3306 4.68807 18.2043C4.8954 18.0779 5.07417 17.9121 5.21363 17.7167C5.35309 17.5213 5.45036 17.3005 5.49959 17.0676C5.54883 16.8347 5.54902 16.5946 5.50016 16.3616C5.45129 16.1286 5.35438 15.9077 5.21523 15.7121C5.07608 15.5165 4.89757 15.3504 4.69045 15.2238C4.48333 15.0971 4.25192 15.0127 4.01021 14.9755Z" fill="#F3B95F"/>
<path fill-rule="evenodd" clip-rule="evenodd" d="M2.94531 20.5657C3.1924 20.1776 3.58706 19.8618 4.095 19.8618C4.60449 19.8618 4.99935 20.1817 5.24594 20.5692C5.4956 20.9616 5.63468 21.4768 5.63468 22.0203C5.63468 22.5657 5.49175 23.0806 5.24063 23.4717C4.99365 23.8563 4.59939 24.1766 4.095 24.1766C3.59124 24.1766 3.19736 23.8582 2.95045 23.4732C2.69972 23.0823 2.55768 22.5674 2.55768 22.0203C2.55768 21.4732 2.69575 20.9576 2.94531 20.5657Z" fill="#F3B95F"/>
<path fill-rule="evenodd" clip-rule="evenodd" d="M2.8976 19.603C3.23777 19.5253 3.59046 19.5143 3.9351 19.5707C4.2831 19.6276 4.61583 19.7521 4.91349 19.9368C5.21114 20.1215 5.46766 20.3626 5.66772 20.6458C5.86779 20.929 6.0073 21.2486 6.07792 21.5855C6.14854 21.9223 6.14881 22.2696 6.07871 22.6066C6.00862 22.9436 5.8696 23.2633 5.66997 23.5469C5.47035 23.8304 5.21421 24.0719 4.91684 24.257C4.62248 24.4402 4.29366 24.5646 3.94958 24.6228C3.2612 24.7699 2.54073 24.6468 1.94471 24.2799C1.34564 23.911 0.921087 23.3258 0.764544 22.6524C0.761758 22.6404 0.75954 22.6283 0.757893 22.6161C0.637211 21.9422 0.793028 21.2489 1.1921 20.6855C1.59253 20.1202 2.20537 19.7315 2.8976 19.603ZM3.7989 20.363C3.55955 20.3238 3.31455 20.3319 3.07849 20.3868L3.05857 20.3914C2.57558 20.4792 2.14812 20.7489 1.86957 21.1422C1.59104 21.5354 1.48385 22.0198 1.57122 22.4895C1.68236 22.9482 1.97412 23.348 2.38421 23.6005C2.7991 23.8559 3.3013 23.9408 3.78059 23.8364C3.78755 23.8349 3.79456 23.8336 3.80159 23.8324C4.04088 23.7929 4.26951 23.707 4.47388 23.5797C4.67824 23.4525 4.85415 23.2866 4.99119 23.092C5.12823 22.8974 5.2236 22.678 5.27168 22.4468C5.31976 22.2157 5.31957 21.9775 5.27114 21.7464C5.2227 21.5154 5.12698 21.2961 4.98965 21.1017C4.8523 20.9072 4.67613 20.7416 4.47157 20.6147C4.26701 20.4878 4.03824 20.4021 3.7989 20.363Z" fill="#F3B95F"/>
<path fill-rule="evenodd" clip-rule="evenodd" d="M62.8468 12.1742C61.5616 11.994 60.2601 11.9574 58.9676 12.0646C58.7589 12.0819 58.5504 12.103 58.3422 12.1278C58.1165 12.1547 57.9111 11.998 57.8835 11.7778C57.856 11.5576 58.0166 11.3573 58.2423 11.3304C59.8131 11.1431 61.4025 11.1597 62.9689 11.3797L62.9781 11.381C63.4619 11.4599 64.4649 11.7243 65.4077 12.0573C65.8812 12.2245 66.352 12.4133 66.7425 12.6107C67.1119 12.7975 67.4809 13.0259 67.6729 13.296C67.7181 13.3595 67.7435 13.4344 67.7461 13.5117C67.8723 17.2496 67.6994 20.9913 67.2288 24.7031C67.2056 24.8867 67.0568 25.031 66.8685 25.0527L61.6441 25.6544C61.6441 25.6544 61.5472 25.5414 61.4845 25.3946C61.4612 25.3403 61.4427 25.2814 61.4355 25.2218C61.4216 25.1069 61.3912 25.0195 61.3974 24.9585C61.4032 24.9027 61.4396 24.869 61.5476 24.8565L66.4505 24.2919C66.8806 20.771 67.0401 17.2238 66.9277 13.6797C66.828 13.5889 66.6449 13.4662 66.3636 13.324C66.1262 13.204 65.8475 13.0839 65.5491 12.9684C65.412 12.9154 65.2708 12.8633 65.1274 12.8127C64.2151 12.4905 63.2666 12.2433 62.8468 12.1742Z" fill="#F3B95F"/>
<path d="M61.1758 49.1959L61.1781 49.0558L61.1899 48.918L61.2064 48.7848L61.2277 48.6585L61.2583 48.5414L61.2937 48.4357L61.3315 48.3439L61.3763 48.2658L61.4235 48.2015L61.4731 48.1579L61.525 48.1303L61.5769 48.1211L61.6312 48.1303L61.6831 48.1579L61.7326 48.2015L61.7798 48.2658L61.8247 48.3439L61.8648 48.4357L61.8978 48.5414L61.9261 48.6585L61.9497 48.7848L61.9686 48.918L61.978 49.0558L61.9828 49.1959L61.978 49.336L61.9686 49.4738L61.9497 49.607L61.9261 49.7333L61.8978 49.8504L61.8648 49.956L61.8247 50.0479L61.7798 50.126L61.7326 50.1903L61.6831 50.2339L61.6312 50.2615L61.5769 50.2706L61.525 50.2615L61.4731 50.2339L61.4235 50.1903L61.3763 50.126L61.3315 50.0479L61.2937 49.956L61.2583 49.8504L61.2277 49.7333L61.2064 49.607L61.1899 49.4738L61.1781 49.336L61.1758 49.1959Z" fill="#F3B95F"/>
<path d="M8.22661 48.0316L8.23133 47.8915L8.24077 47.7537L8.25729 47.6205L8.28089 47.4942L8.31156 47.3771L8.3446 47.2737L8.38471 47.1796L8.42955 47.1015L8.47674 47.0395L8.52629 46.9936L8.57821 46.966L8.63248 46.9568L8.6844 46.966L8.73631 46.9936L8.78586 47.0395L8.83306 47.1015L8.87789 47.1796L8.90632 47.2505L8.91565 47.2737L8.95104 47.3771L8.97936 47.4942L9.00531 47.6205L9.02183 47.7537L9.0223 47.7606L9.03127 47.8915L9.03363 48.0316L9.03127 48.1717L9.02183 48.3118L9.01561 48.362L9.00531 48.445L8.97936 48.569L8.95104 48.6861L8.91928 48.7829L8.91565 48.794L8.87789 48.8859L8.83306 48.964L8.78586 49.026L8.73631 49.0719L8.6844 49.0972L8.63248 49.1086L8.57821 49.0972L8.52629 49.0719L8.47674 49.026L8.42955 48.964L8.38471 48.8859L8.3446 48.794L8.31156 48.6861L8.28089 48.569L8.25729 48.445L8.24077 48.3118L8.23133 48.1717L8.22661 48.0316Z" fill="#F3B95F"/>
<path d="M8.35643 48.8239L7.50458 46.7295L7.4857 46.6813L7.46447 46.6377L7.38896 46.4425L7.36772 46.3873L7.24973 46.0429L7.23086 45.9809L7.08219 45.4779L7.06568 45.409L6.89814 44.7362L6.88162 44.6627L6.70464 43.8061L6.69048 43.728L6.51115 42.6785L6.50171 42.5958L6.33181 41.3396L6.38844 41.6175L6.32473 41.257L6.17607 39.7826L6.21147 40.0123L6.16899 39.6999L6.05101 37.9913L6.06752 38.1452L6.04629 37.911L5.96842 35.9612L5.97078 36.0049L5.96606 35.8855L5.93774 33.6808V33.5958V33.6096L5.97078 31.1363L5.98022 30.9296L5.97078 31.0697L6.07224 28.3185L6.10292 28.0062L6.07696 28.2565L6.2563 25.2136L6.26102 25.1562L6.53003 21.8125L6.6079 21.3739L6.64565 21.2636L6.5489 21.6426L6.96893 18.8041L7.11287 18.3172L7.16006 18.2415L7.01848 18.5676L7.58875 16.4711L7.72875 15.9564L7.92461 15.5683L7.78303 15.7934L8.7623 13.405L8.81185 13.304L9.50133 12.0799L10.0342 11.1338L10.0767 11.0695L11.5255 9.11517L11.5585 9.07613L13.2127 7.3285L13.241 7.30323L15.0721 5.76458L15.0957 5.74621L17.085 4.40965L17.1062 4.39587L19.2346 3.25451L19.2512 3.24532L21.4952 2.29687L21.507 2.28998L23.8573 1.52295L26.2642 0.941933L28.7442 0.535453L31.2361 0.305803L33.7279 0.246094H33.7374L36.2103 0.351733H36.2198L39.6909 0.714579L42.9071 1.27033L45.8402 2.0098L48.5114 2.94448L50.9278 4.07665L53.0704 5.38795L54.9935 6.91742L55.0218 6.94728L56.6784 8.65587L58.139 10.6125L58.1815 10.6745L58.9676 12.0646L59.3802 12.7942L59.425 12.886L60.4043 15.2101L60.4515 15.3364L60.7551 16.3391L61.2184 17.8694L61.1193 17.6352L61.2585 18.0302L61.8201 20.7745L61.7352 20.4851L61.8485 20.9559L62.2118 23.9138L62.1646 23.6474L62.1906 23.776L62.2284 24.0952L62.3983 27.2713L62.3912 27.1702L62.4006 27.3149L62.403 27.4343L62.3888 30.8286L62.3817 30.9962L62.3699 31.1386L62.3865 30.9411L62.2354 34.3422L62.1977 34.6821L62.2307 34.4157L62.0113 37.5137L61.7564 40.1455L61.7493 40.2075L61.4827 42.419L61.4756 42.4741L61.2231 44.2355L61.216 44.286L61.0013 45.5744L60.9942 45.618L60.8479 46.4103L60.8409 46.4471L60.7842 46.7158L60.6072 47.1682L60.7134 46.9729L60.4492 47.6596L61.6384 48.1327L61.5205 50.2592L59.5241 49.4647L59.5572 49.4738L59.5029 49.4532L59.4486 49.4141L59.3991 49.3544L59.3519 49.2786L59.3094 49.1868L59.2717 49.0788L59.2386 48.9594L59.2188 48.8495L59.215 48.8285L59.1961 48.6907L59.1844 48.5461L59.1796 48.4014L59.1844 48.2544L59.1961 48.112L59.215 47.9719L59.2386 47.8433L59.2476 47.8107L59.2717 47.7239L59.3094 47.616L59.3519 47.5218L59.3991 47.446L59.3023 47.632L59.4588 47.2254L60.1046 45.5468L60.1282 45.4389L60.1508 45.3165L60.2674 44.6856L60.2947 44.5226L60.4751 43.4432L60.7181 41.7323L60.9801 39.5805L61.0295 39.068L61.1069 38.2667L61.2047 37.2533L61.2278 37.013L61.4379 34.0551L61.5842 30.7459L61.5845 30.6619L61.595 28.2502L61.5983 27.4918L61.5959 27.4463L61.4845 25.3946L61.4355 24.4925L61.0981 21.7161L60.7551 20.0471L60.5695 19.144L59.8451 16.7556L58.913 14.5418L57.7567 12.5025L56.3716 10.6423L54.7458 8.9659L52.8769 7.47547L50.7579 6.17565L48.3816 5.06415L45.7435 4.14325L42.8364 3.41067L39.6555 2.86181L36.1962 2.49896L33.7303 2.39562L31.2526 2.45533L28.7773 2.68268L26.3326 3.08457L23.9375 3.66099L21.2661 4.56958L20.4525 4.91516L18.948 5.60316L17.2761 6.49946L15.3057 7.82454L13.4982 9.34253L11.8771 11.0534L10.466 12.9595L9.28615 15.047L8.36115 17.3068L7.70516 19.7204L7.58875 20.5066L7.3158 22.3499L7.10412 24.9595L7.08537 25.1906L7.07067 25.3717L7.05388 25.5788L6.9449 27.4391L6.8977 28.2449L6.87926 28.5596L6.81786 30.2228L6.78015 31.2442L6.74948 33.6441L6.76149 34.6297L6.77543 35.7729L6.85094 37.6446L6.895 38.277L6.95087 39.079L6.96421 39.2705L7.10343 40.6622L7.25681 41.838L7.42199 42.8071L7.58245 43.5879L7.73347 44.1896L7.86089 44.6259L7.95764 44.913L8.01663 45.06L8.03551 45.1036L8.04967 45.1358L8.9086 47.2439L8.90632 47.2505L8.35643 48.8239Z" fill="#F3B95F"/>
<path fill-rule="evenodd" clip-rule="evenodd" d="M62.8468 12.1742C61.5616 11.994 60.2601 11.9574 58.9676 12.0646C58.7589 12.0819 58.5504 12.103 58.3422 12.1278C58.1165 12.1547 57.9111 11.998 57.8835 11.7778C57.856 11.5576 58.0166 11.3573 58.2423 11.3304C59.8131 11.1431 61.4025 11.1597 62.9689 11.3797L62.9781 11.381C63.4619 11.4599 64.4649 11.7243 65.4077 12.0573C65.8812 12.2245 66.352 12.4133 66.7425 12.6107C67.1119 12.7975 67.4809 13.0259 67.6729 13.296C67.7181 13.3595 67.7435 13.4344 67.7461 13.5117C67.8723 17.2496 67.6994 20.9913 67.2288 24.7031C67.2056 24.8867 67.0568 25.031 66.8685 25.0527L61.6441 25.6544C61.6441 25.6544 61.5472 25.5414 61.4845 25.3946C61.4612 25.3403 61.4427 25.2814 61.4355 25.2218C61.4216 25.1069 61.3912 25.0195 61.3974 24.9585C61.4032 24.9027 61.4396 24.869 61.5476 24.8565L66.4505 24.2919C66.8806 20.771 67.0401 17.2238 66.9277 13.6797C66.828 13.5889 66.6449 13.4662 66.3636 13.324C66.1262 13.204 65.8475 13.0839 65.5491 12.9684C65.412 12.9154 65.2708 12.8633 65.1274 12.8127C64.2151 12.4905 63.2666 12.2433 62.8468 12.1742Z" fill="#F3B95F"/>
<path d="M61.1758 49.1959L61.1781 49.0558L61.1899 48.918L61.2064 48.7848L61.2277 48.6585L61.2583 48.5414L61.2937 48.4357L61.3315 48.3439L61.3763 48.2658L61.4235 48.2015L61.4731 48.1579L61.525 48.1303L61.5769 48.1211L61.6312 48.1303L61.6831 48.1579L61.7326 48.2015L61.7798 48.2658L61.8247 48.3439L61.8648 48.4357L61.8978 48.5414L61.9261 48.6585L61.9497 48.7848L61.9686 48.918L61.978 49.0558L61.9828 49.1959L61.978 49.336L61.9686 49.4738L61.9497 49.607L61.9261 49.7333L61.8978 49.8504L61.8648 49.956L61.8247 50.0479L61.7798 50.126L61.7326 50.1903L61.6831 50.2339L61.6312 50.2615L61.5769 50.2706L61.525 50.2615L61.4731 50.2339L61.4235 50.1903L61.3763 50.126L61.3315 50.0479L61.2937 49.956L61.2583 49.8504L61.2277 49.7333L61.2064 49.607L61.1899 49.4738L61.1781 49.336L61.1758 49.1959Z" fill="#F3B95F"/>
<path d="M8.22661 48.0316L8.23133 47.8915L8.24077 47.7537L8.25729 47.6205L8.28089 47.4942L8.31156 47.3771L8.3446 47.2737L8.38471 47.1796L8.42955 47.1015L8.47674 47.0395L8.52629 46.9936L8.57821 46.966L8.63248 46.9568L8.6844 46.966L8.73631 46.9936L8.78586 47.0395L8.83306 47.1015L8.87789 47.1796L8.90632 47.2505L8.91565 47.2737L8.95104 47.3771L8.97936 47.4942L9.00531 47.6205L9.02183 47.7537L9.0223 47.7606L9.03127 47.8915L9.03363 48.0316L9.03127 48.1717L9.02183 48.3118L9.01561 48.362L9.00531 48.445L8.97936 48.569L8.95104 48.6861L8.91928 48.7829L8.91565 48.794L8.87789 48.8859L8.83306 48.964L8.78586 49.026L8.73631 49.0719L8.6844 49.0972L8.63248 49.1086L8.57821 49.0972L8.52629 49.0719L8.47674 49.026L8.42955 48.964L8.38471 48.8859L8.3446 48.794L8.31156 48.6861L8.28089 48.569L8.25729 48.445L8.24077 48.3118L8.23133 48.1717L8.22661 48.0316Z" fill="#F3B95F"/>
<path d="M8.35643 48.8239L7.50458 46.7295L7.4857 46.6813L7.46447 46.6377L7.38896 46.4425L7.36772 46.3873L7.24973 46.0429L7.23086 45.9809L7.08219 45.4779L7.06568 45.409L6.89814 44.7362L6.88162 44.6627L6.70464 43.8061L6.69048 43.728L6.51115 42.6785L6.50171 42.5958L6.33181 41.3396L6.38844 41.6175L6.32473 41.257L6.17607 39.7826L6.21147 40.0123L6.16899 39.6999L6.05101 37.9913L6.06752 38.1452L6.04629 37.911L5.96842 35.9612L5.97078 36.0049L5.96606 35.8855L5.93774 33.6808V33.5958V33.6096L5.97078 31.1363L5.98022 30.9296L5.97078 31.0697L6.07224 28.3185L6.10292 28.0062L6.07696 28.2565L6.2563 25.2136L6.26102 25.1562L6.53003 21.8125L6.6079 21.3739L6.64565 21.2636L6.5489 21.6426L6.96893 18.8041L7.11287 18.3172L7.16006 18.2415L7.01848 18.5676L7.58875 16.4711L7.72875 15.9564L7.92461 15.5683L7.78303 15.7934L8.7623 13.405L8.81185 13.304L9.50133 12.0799L10.0342 11.1338L10.0767 11.0695L11.5255 9.11517L11.5585 9.07613L13.2127 7.3285L13.241 7.30323L15.0721 5.76458L15.0957 5.74621L17.085 4.40965L17.1062 4.39587L19.2346 3.25451L19.2512 3.24532L21.4952 2.29687L21.507 2.28998L23.8573 1.52295L26.2642 0.941933L28.7442 0.535453L31.2361 0.305803L33.7279 0.246094H33.7374L36.2103 0.351733H36.2198L39.6909 0.714579L42.9071 1.27033L45.8402 2.0098L48.5114 2.94448L50.9278 4.07665L53.0704 5.38795L54.9935 6.91742L55.0218 6.94728L56.6784 8.65587L58.139 10.6125L58.1815 10.6745L58.9676 12.0646L59.3802 12.7942L59.425 12.886L60.4043 15.2101L60.4515 15.3364L60.7551 16.3391L61.2184 17.8694L61.1193 17.6352L61.2585 18.0302L61.8201 20.7745L61.7352 20.4851L61.8485 20.9559L62.2118 23.9138L62.1646 23.6474L62.1906 23.776L62.2284 24.0952L62.3983 27.2713L62.3912 27.1702L62.4006 27.3149L62.403 27.4343L62.3888 30.8286L62.3817 30.9962L62.3699 31.1386L62.3865 30.9411L62.2354 34.3422L62.1977 34.6821L62.2307 34.4157L62.0113 37.5137L61.7564 40.1455L61.7493 40.2075L61.4827 42.419L61.4756 42.4741L61.2231 44.2355L61.216 44.286L61.0013 45.5744L60.9942 45.618L60.8479 46.4103L60.8409 46.4471L60.7842 46.7158L60.6072 47.1682L60.7134 46.9729L60.4492 47.6596L61.6384 48.1327L61.5205 50.2592L59.5241 49.4647L59.5572 49.4738L59.5029 49.4532L59.4486 49.4141L59.3991 49.3544L59.3519 49.2786L59.3094 49.1868L59.2717 49.0788L59.2386 48.9594L59.2188 48.8495L59.215 48.8285L59.1961 48.6907L59.1844 48.5461L59.1796 48.4014L59.1844 48.2544L59.1961 48.112L59.215 47.9719L59.2386 47.8433L59.2476 47.8107L59.2717 47.7239L59.3094 47.616L59.3519 47.5218L59.3991 47.446L59.3023 47.632L59.4588 47.2254L60.1046 45.5468L60.1282 45.4389L60.1508 45.3165L60.2674 44.6856L60.2947 44.5226L60.4751 43.4432L60.7181 41.7323L60.9801 39.5805L61.0295 39.068L61.1069 38.2667L61.2047 37.2533L61.2278 37.013L61.4379 34.0551L61.5842 30.7459L61.5845 30.6619L61.595 28.2502L61.5983 27.4918L61.5959 27.4463L61.4845 25.3946L61.4355 24.4925L61.0981 21.7161L60.7551 20.0471L60.5695 19.144L59.8451 16.7556L58.913 14.5418L57.7567 12.5025L56.3716 10.6423L54.7458 8.9659L52.8769 7.47547L50.7579 6.17565L48.3816 5.06415L45.7435 4.14325L42.8364 3.41067L39.6555 2.86181L36.1962 2.49896L33.7303 2.39562L31.2526 2.45533L28.7773 2.68268L26.3326 3.08457L23.9375 3.66099L21.2661 4.56958L20.4525 4.91516L18.948 5.60316L17.2761 6.49946L15.3057 7.82454L13.4982 9.34253L11.8771 11.0534L10.466 12.9595L9.28615 15.047L8.36115 17.3068L7.70516 19.7204L7.58875 20.5066L7.3158 22.3499L7.10412 24.9595L7.08537 25.1906L7.07067 25.3717L7.05388 25.5788L6.9449 27.4391L6.8977 28.2449L6.87926 28.5596L6.81786 30.2228L6.78015 31.2442L6.74948 33.6441L6.76149 34.6297L6.77543 35.7729L6.85094 37.6446L6.895 38.277L6.95087 39.079L6.96421 39.2705L7.10343 40.6622L7.25681 41.838L7.42199 42.8071L7.58245 43.5879L7.73347 44.1896L7.86089 44.6259L7.95764 44.913L8.01663 45.06L8.03551 45.1036L8.04967 45.1358L8.9086 47.2439L8.90632 47.2505L8.35643 48.8239Z" fill="#F3B95F"/>
<path fill-rule="evenodd" clip-rule="evenodd" d="M15.9445 16.0884C19.4506 14.1956 25.1123 12.3189 33.7726 12.3189C39.7979 12.3189 44.4255 13.227 47.9016 14.4162C49.4219 14.9363 50.7219 15.5101 51.8224 16.0852C53.6192 17.0244 54.8812 17.9656 55.6989 18.6786C55.7038 18.6828 55.7086 18.687 55.7134 18.6912C56.1219 19.0484 56.4182 19.3475 56.6136 19.559C56.7114 19.6648 56.7839 19.7487 56.8327 19.8071C56.8571 19.8363 56.8756 19.8591 56.8883 19.8751L56.9031 19.8939L56.9073 19.8993L56.9086 19.901C56.9086 19.901 56.9094 19.902 56.6617 20.0809C56.9298 19.9326 56.9299 19.9329 56.9299 19.9329L56.9332 19.9385L56.9418 19.9536L56.9741 20.011C57.002 20.0613 57.0425 20.1354 57.0937 20.232C57.1959 20.4251 57.3407 20.7085 57.5126 21.0726C57.8562 21.8005 58.3084 22.8515 58.7452 24.1483C59.6182 26.7402 60.4329 30.3242 60.188 34.2777C60.0785 36.0543 59.931 37.6239 59.7655 38.9971C59.5267 40.9785 59.2504 42.5511 58.997 43.7464C58.9398 44.016 58.8838 44.2665 58.8297 44.4981C58.6806 45.1357 58.5455 45.6305 58.4389 45.9903C58.3663 46.2356 58.3069 46.4181 58.2652 46.5402C58.2444 46.6013 58.228 46.6472 58.2167 46.6784L58.2035 46.7141L58.1999 46.7238L58.1988 46.7265C58.1988 46.7265 58.1983 46.7279 57.91 46.6216L58.1988 46.7265C58.1386 46.8818 57.9602 46.9616 57.801 46.9028C57.6418 46.8441 57.5615 46.6706 57.6217 46.5153L57.6431 46.5232C57.6217 46.5153 57.6217 46.5153 57.6217 46.5153L57.6247 46.5072L57.6358 46.4772C57.6458 46.4498 57.6608 46.4077 57.6803 46.3504C57.7194 46.2359 57.7764 46.061 57.8468 45.8234C57.9876 45.3481 58.182 44.6216 58.3934 43.6246C58.8161 41.6306 59.3069 38.5545 59.5727 34.2415C59.7111 32.0069 59.5023 29.8896 59.1352 28.0088C58.918 26.8956 58.6454 25.8652 58.3565 24.9423C58.2916 24.7347 58.2258 24.5325 58.1596 24.3361C57.7313 23.0643 57.2881 22.0347 56.9527 21.3241C56.785 20.9689 56.6443 20.6936 56.546 20.5079C56.4968 20.4151 56.4583 20.3446 56.4322 20.2978L56.4033 20.2463L56.4015 20.244C56.3918 20.2317 56.3763 20.2127 56.355 20.1872C56.3125 20.1363 56.2465 20.0599 56.1558 19.9617C55.9743 19.7652 55.6935 19.4813 55.302 19.139C54.5191 18.4546 53.2929 17.536 51.5313 16.6153C48.0099 14.7749 42.3381 12.9203 33.7726 12.9203C25.2071 12.9203 19.6496 14.7755 16.243 16.6145C14.5388 17.5345 13.3697 18.4522 12.6297 19.1354C12.2596 19.4771 11.9967 19.7604 11.8276 19.9562C11.7431 20.0541 11.682 20.1302 11.6428 20.1808C11.6286 20.1991 11.6173 20.214 11.6088 20.2254L11.5959 20.2593C11.5783 20.3059 11.5522 20.3755 11.5188 20.4665C11.452 20.6485 11.3559 20.9163 11.2393 21.2577C11.0059 21.9407 10.6904 22.9181 10.3627 24.0935C10.1939 24.699 10.022 25.3565 9.85645 26.0529C9.71635 26.6422 9.58083 27.2595 9.45561 27.8966C9.15396 29.4314 8.91212 31.0817 8.81025 32.7366C8.61614 35.8901 8.92483 39.0697 9.28364 41.4652C9.46289 42.662 9.65428 43.6607 9.80073 44.3596C9.87394 44.7091 9.93589 44.9835 9.97944 45.1701C10.0012 45.2634 10.0184 45.3348 10.0301 45.3826L10.0433 45.4364L10.0467 45.4498L10.0475 45.4529C10.0884 45.6141 9.98791 45.778 9.82269 45.818C9.65748 45.858 9.49034 45.7597 9.44938 45.5985L9.74852 45.5262C9.44938 45.5985 9.44938 45.5985 9.44938 45.5985L9.44802 45.5932L9.44436 45.5785L9.4304 45.5219C9.41828 45.4722 9.40065 45.3989 9.3784 45.3036C9.3639 45.2414 9.34744 45.1699 9.32927 45.0895C9.2917 44.9232 9.24681 44.7187 9.1968 44.4801C9.04843 43.7719 8.8549 42.7619 8.67371 41.5522C8.55886 40.7854 8.44882 39.9375 8.3584 39.0345C8.16376 37.0908 8.06003 34.8924 8.19495 32.7006C8.39256 29.4903 9.10604 26.3095 9.76791 23.9356C10.0991 22.7476 10.4181 21.7594 10.6545 21.0676C10.7727 20.7216 10.8703 20.4497 10.9385 20.2638C10.9726 20.1709 10.9993 20.0995 11.0176 20.0511L11.0386 19.996L11.0441 19.9818L11.0455 19.978C11.0455 19.978 11.0461 19.9766 11.3342 20.0832C11.0795 19.9139 11.0799 19.9135 11.0799 19.9135L11.0815 19.9111L11.0855 19.9055L11.0993 19.8865C11.1112 19.8704 11.1284 19.8474 11.1512 19.818C11.1967 19.7593 11.2645 19.675 11.3561 19.5689C11.5394 19.3565 11.8183 19.0567 12.206 18.6987C12.3227 18.5909 12.4492 18.478 12.5859 18.3605C13.3581 17.6973 14.4559 16.892 15.9445 16.0884ZM11.3342 20.0832L11.0799 19.9135C11.0662 19.933 11.0541 19.9559 11.0455 19.978L11.3342 20.0832ZM56.6617 20.0809L56.9299 19.9329C56.9238 19.9223 56.916 19.9108 56.9086 19.901L56.6617 20.0809Z" fill="#F3B95F"/>
<path d="M20.5955 61.9457C20.6067 61.9422 20.6185 61.9385 20.6309 61.9347C20.7181 61.9077 20.8347 61.8721 20.9755 61.83C21.0208 61.8165 21.0687 61.8023 21.1189 61.7875C21.531 61.6658 22.1026 61.5036 22.7402 61.3412C23.5214 61.1423 24.4211 60.9379 25.2536 60.8113C25.7643 60.7336 26.2497 60.6852 26.6669 60.6852C26.8963 60.6852 27.1626 60.6925 27.4597 60.7048C27.8537 60.721 28.302 60.7457 28.7902 60.7731L28.9122 60.7799C29.7454 60.8266 30.6992 60.8801 31.7259 60.9148C33.8822 60.9877 36.3431 60.977 38.642 60.6503C43.2378 59.9971 49.2408 57.3337 52.19 55.7602C54.4561 54.5509 56.2347 52.7914 57.4513 51.3231C57.8921 50.791 58.2574 50.2994 58.5435 49.8895C58.6513 49.735 58.7478 49.5922 58.833 49.4631C58.9156 49.3379 58.9874 49.2257 59.0483 49.1287C59.102 49.043 59.1471 48.9692 59.1836 48.9085C59.1964 48.8872 59.2082 48.8675 59.2188 48.8495C59.2406 48.8128 59.2579 48.783 59.2707 48.7608L59.2918 48.7238L59.2967 48.7151L59.2977 48.7133C59.4058 48.5181 59.6557 48.4451 59.8557 48.5504C60.0558 48.6558 60.1305 48.8995 60.0225 49.0947L59.7154 48.933C60.0225 49.0947 60.0225 49.0947 60.0225 49.0947L60.0198 49.0996L60.0132 49.1113L59.9886 49.1543C59.9672 49.1916 59.9356 49.2457 59.894 49.3149C59.8108 49.4532 59.6876 49.6521 59.5254 49.898C59.2012 50.3894 58.7204 51.0693 58.0917 51.8281C56.8371 53.3424 54.9795 55.1873 52.5852 56.465C49.6115 58.0516 43.5045 60.7711 38.7607 61.4453C36.3897 61.7823 33.8716 61.7912 31.6973 61.7177C30.6612 61.6826 29.6992 61.6287 28.8672 61.5821L28.743 61.5751C27.8779 61.5267 27.1715 61.4885 26.6669 61.4885C25.6877 61.4885 24.2126 61.7965 22.9482 62.1185C22.3233 62.2777 21.7622 62.4369 21.3573 62.5564C21.155 62.6161 20.9919 62.6659 20.8797 62.7006C20.8236 62.7179 20.7802 62.7315 20.751 62.7407L20.718 62.7511L20.7098 62.7537L20.7075 62.7545L20.5955 61.9457Z" fill="#F3B95F"/>
<path d="M9.46872 44.2533C9.63549 44.2201 9.79831 44.325 9.83239 44.4877L10.758 48.9073L10.7596 48.9118C10.7651 48.9266 10.7738 48.9498 10.7861 48.9808C10.8108 49.0427 10.8499 49.1359 10.906 49.2562C11.0181 49.4967 11.1982 49.8455 11.4667 50.2693C12.0036 51.1167 12.8945 52.2644 14.3048 53.4474C17.1215 55.8102 22.0318 58.3314 30.384 58.8559C39.5632 59.4317 46.0306 57.1812 50.1977 54.7982C52.2827 53.6058 53.7944 52.3787 54.783 51.4523C55.2772 50.9891 55.6406 50.6011 55.8793 50.3304C55.9986 50.1951 56.0868 50.0891 56.1446 50.0177C56.1708 49.9853 56.1907 49.96 56.2045 49.9423L57.605 46.4076C57.6664 46.2527 57.8448 46.1757 58.0036 46.2356C58.1624 46.2954 58.2413 46.4695 58.18 46.6244L57.9412 47.2269L56.7641 50.1978C56.7545 50.2221 56.7416 50.2451 56.7259 50.2662L56.7236 50.2692L56.7186 50.2759L56.6999 50.3002C56.6837 50.3211 56.6599 50.3513 56.6285 50.3902C56.5655 50.468 56.4718 50.5806 56.3466 50.7226C56.0961 51.0066 55.7194 51.4086 55.21 51.8859C54.1913 52.8407 52.6414 54.0977 50.5094 55.317C46.2423 57.7571 39.6535 60.0399 30.3444 59.456C21.8744 58.9241 16.8325 56.3609 13.9029 53.9033C12.4399 52.6761 11.509 51.4797 10.9424 50.5855C10.6591 50.1385 10.467 49.7671 10.3449 49.5051C10.2838 49.3742 10.2403 49.2706 10.2116 49.1985C10.1972 49.1625 10.1866 49.1344 10.1794 49.1146L10.171 49.0914L10.1686 49.0847L10.1679 49.0826C10.1641 49.0714 10.1606 49.0587 10.1582 49.0472L10.0147 48.362L9.8887 47.7606L9.32927 45.0895L9.22845 44.6081C9.19438 44.4454 9.30195 44.2866 9.46872 44.2533Z" fill="#F3B95F"/>
<path d="M54.7682 21.2592L54.6856 21.1995L54.4354 21.0273L54.0107 20.7586L53.4137 20.4095L52.6374 19.9961L51.684 19.5345L50.549 19.0431L49.237 18.5401L47.741 18.0418L46.0609 17.5618L44.1991 17.1232L42.1461 16.7374L39.9115 16.4251L37.4857 16.2023L34.8712 16.0875L32.0655 16.0921L29.3023 16.2207L26.8128 16.4457L24.5829 16.7535L22.5984 17.1278L20.8498 17.555L19.3231 18.0188L18.0064 18.508L16.8855 19.004L15.9464 19.4955L15.1795 19.964L14.5683 20.3957L14.1011 20.7769L13.766 21.0939L13.5489 21.3281L13.4333 21.4682L13.4026 21.5141L13.2658 21.6381L13.3082 21.6106L13.3012 21.6175L13.2587 21.6932L13.1336 21.9895L12.9755 22.4327L12.5862 23.7027L12.1567 25.3676L11.732 27.3357L11.3521 29.5174L11.0642 31.8231L10.9037 34.1609L10.9155 36.1497L11.0571 38.3153L11.2931 40.5199L11.5786 42.6235L11.8712 44.4929L12.1355 45.9902L12.2393 46.5574L12.3219 46.9823L12.3714 47.2464L12.3809 47.2785L12.3903 47.3084L12.4918 47.5633L12.6947 47.9904L13.0251 48.5577L13.497 49.242L14.1389 50.016L14.9671 50.8496L16.0054 51.7154L17.2749 52.5857L18.7945 53.4286L20.5879 54.2185L22.6739 54.9236L25.0737 55.5184L27.8086 55.9685L30.8974 56.2509L34.3591 56.3336L37.2309 56.2027L39.8643 55.8743L42.2688 55.376L44.4492 54.7353L46.4148 53.982L48.1728 53.1461L49.7278 52.255L51.0894 51.3387L52.2645 50.4247L53.2556 49.5429L54.0768 48.723L54.728 47.9904L55.2212 47.375L55.5634 46.9065L55.7569 46.6125L55.764 46.6034L56.2524 44.7478L56.6276 42.9703L56.8919 41.3076L57.0665 39.6932L57.1774 38.0581L57.2459 36.338L57.2954 34.4778L57.3449 32.4592L57.2411 30.126L56.9414 27.9811L56.5073 26.0451L56.0023 24.3664L55.4973 22.9885L55.056 21.955L54.7446 21.3097L54.6856 21.1995L54.6809 21.1972L55.0018 19.9433L55.0891 20.0076L55.0466 19.9824L55.0985 20.0145L55.2283 20.1799L55.3534 20.4118L55.3652 20.4348L55.6884 21.1076L55.7026 21.1398L56.1604 22.2077L56.1745 22.249L56.6984 23.6728L56.7149 23.7233L57.2364 25.4618L57.1798 25.3194L57.2529 25.5284L57.7036 27.5378L57.6777 27.4368L57.7201 27.6228L58.034 29.8619L58.0316 29.8389L58.0434 29.9675L58.152 32.3972V32.4064L58.1543 32.4776L58.1001 34.5376L58.0529 36.4069V36.423L57.9821 38.166V38.1982L57.8664 39.87L57.8641 39.916L57.6824 41.5809L57.6753 41.6337L57.4016 43.3515L57.3921 43.4043L57.0052 45.2323L56.9957 45.2783L56.4695 47.2785L56.3846 47.4852L56.3444 47.5449L56.3798 47.4898L56.3138 47.6L56.302 47.6207L56.0943 47.9353L56.0802 47.9537L55.7238 48.4452L55.7073 48.4635L55.1835 49.118L54.5133 49.869L54.4968 49.8873L53.6591 50.7279L53.6402 50.7439L52.6303 51.6419L52.6114 51.6579L51.4174 52.5857L51.3985 52.5995L50.0181 53.5296L49.9968 53.5411L48.4229 54.4436L48.3993 54.4551L46.6225 55.3002L46.6036 55.3094L44.6167 56.0695L44.5979 56.0764L42.3963 56.7217L42.375 56.7286L39.954 57.2316L39.9327 57.2338L37.2804 57.5668L37.2616 57.5691L34.3733 57.6978L34.3568 57.7L30.8786 57.6151H30.862L27.7567 57.3303L27.7402 57.328L24.9864 56.8733L24.9675 56.8687L22.5488 56.2716L22.5276 56.2647L20.4204 55.5528L20.3968 55.5436L18.5798 54.7444L18.5562 54.733L17.0106 53.8741L16.9847 53.8603L15.6892 52.9715L15.6609 52.9509L14.5966 52.0621L14.5683 52.0369L13.7118 51.1757L13.6834 51.1435L13.0133 50.3352L12.9873 50.2984L12.4847 49.575L12.4588 49.5337L12.1048 48.9205L12.0812 48.8746L11.8547 48.4015L11.8334 48.3533L11.7107 48.0479L11.6942 48.0019L11.6588 47.894L11.6942 47.9836L11.6281 47.7792L11.6093 47.685V47.6827L11.555 47.4117V47.4048L11.47 46.9754V46.9685L11.3639 46.3944L11.3615 46.3829L11.0972 44.8718L11.0948 44.8511L10.7975 42.9657L10.7928 42.9404L10.5026 40.8093L10.5002 40.7771L10.2595 38.5335L10.2572 38.4898L10.1109 36.2691L10.1132 36.2967L10.1085 36.2002L10.0967 34.1311V34.0828L10.0991 34.0461L10.269 31.5659V31.5705L10.5663 29.2074L10.5734 29.1569L10.9603 26.9293L10.9698 26.8879L11.404 24.8808L11.4134 24.8417L11.8523 23.1377L11.8641 23.0964L12.2653 21.7851L12.2794 21.7438L12.4517 21.2615L12.4682 21.2202L12.6169 20.8665L12.6499 20.7953L12.7679 20.584L12.8623 20.46L12.9118 20.4187L12.8977 20.4256L12.9802 20.3659L12.8859 20.4623L12.9307 20.4026L12.9496 20.3773L13.0817 20.212L13.103 20.189L13.3413 19.9318L13.3625 19.9112L13.7188 19.5759L13.7401 19.5575L14.2262 19.1602L14.245 19.1441L14.8751 18.6986L14.894 18.6871L15.6821 18.2049L15.6986 18.1957L16.6543 17.6973L16.6732 17.6881L17.8106 17.1852L17.8247 17.1783L19.1603 16.6823L19.1721 16.68L20.7153 16.2092L20.7271 16.2069L22.4898 15.7752L22.5016 15.7729L24.4979 15.3962L24.5097 15.3939L26.7515 15.0862L26.7633 15.0839L29.2645 14.8589H29.274L32.0466 14.728H32.0584L34.8759 14.7211H34.8853L37.514 14.8382L37.5235 14.8405L39.961 15.0633L39.9705 15.0655L42.2216 15.3779L42.2311 15.3802L44.2935 15.7683L44.3029 15.7706L46.1789 16.2115L46.1907 16.2138L47.8802 16.6961L47.892 16.7007L49.3975 17.2036L49.4093 17.2082L50.7354 17.7157L50.7449 17.7203L51.887 18.214L51.8988 18.2209L52.8639 18.6848L52.8757 18.6917L53.6615 19.1097L53.6709 19.1166L54.2797 19.4725L54.2915 19.4771L54.7233 19.7527L54.7351 19.7596L54.9923 19.9364L55.0018 19.9433L55.0891 20.0076L54.7682 21.2592Z" fill="#F3B95F"/>
<path fill-rule="evenodd" clip-rule="evenodd" d="M21.2661 4.56958C21.1452 4.84082 20.9929 5.20356 20.8314 5.66183C20.5069 6.58316 20.1898 7.77485 20.1898 8.90119C20.1898 10.0685 20.2444 11.4705 20.2992 12.5833C20.3266 13.1391 20.3539 13.6217 20.3745 13.9653C20.3745 13.9653 20.3685 14.0943 20.3745 14.1883L19.7794 14.3326C19.7739 14.2449 19.767 14.1328 19.7591 14.0002C19.7385 13.6551 19.711 13.1704 19.6835 12.6121C19.6286 11.4967 19.5734 10.0832 19.5734 8.90119C19.5734 7.67822 19.9147 6.41381 20.2485 5.46637C20.4162 4.99025 20.3265 5.19788 20.4525 4.91516C20.4423 4.93563 20.4711 4.8766 20.4525 4.91516L21.2661 4.56958ZM19.7794 14.3326L18.1383 15.0204L19.7794 14.3326ZM18.1383 15.0204L17.7642 15.168C17.6838 14.3924 17.8874 12.2145 17.9944 10.8462C18.101 9.48346 18.1727 8.8025 18.1727 7.38507C18.1727 6.66648 18.2527 5.97593 18.2527 5.97593C18.2226 6.06768 18.3054 5.80551 18.2527 5.97593L18.948 5.60316" fill="#F3B95F"/>
<path fill-rule="evenodd" clip-rule="evenodd" d="M47.0838 4.61112C47.2047 4.88236 47.3151 5.14347 47.4766 5.60174C47.8011 6.52307 48.1182 7.71476 48.1182 8.84111C48.1182 10.0084 48.0636 11.4105 48.0088 12.5232C47.9814 13.079 47.9541 13.5616 47.9335 13.9052C47.9335 13.9052 47.9128 14.2381 47.9016 14.4162C47.899 14.4589 47.8968 14.4927 47.8957 14.5109L48.4907 14.6552C48.4962 14.5674 48.541 14.0728 48.5489 13.9402C48.5695 13.595 48.597 13.1103 48.6245 12.552C48.6794 11.4366 48.7346 10.0231 48.7346 8.84111C48.7346 7.61813 48.3933 6.35372 48.0595 5.40628C47.8918 4.93016 47.9917 5.16675 47.8657 4.88404C47.8471 4.84548 47.8759 4.9045 47.8657 4.88404L47.0838 4.61112ZM48.4907 14.6552L50.1219 15.2932L48.4907 14.6552ZM50.1219 15.2932L50.496 15.4409C50.5765 14.6652 50.4206 12.1544 50.3136 10.7861C50.207 9.42337 50.1353 8.74241 50.1353 7.32498C50.1353 6.6064 50.0474 5.84332 50.0474 5.84332C49.9946 5.6729 50.0774 5.93507 50.0474 5.84332L49.3492 5.51673" fill="#F3B95F"/>
<path fill-rule="evenodd" clip-rule="evenodd" d="M8.35198 27.8271C8.35878 27.714 8.3163 27.6033 8.235 27.5224C8.20126 27.4888 8.16215 27.4617 8.11963 27.4417C8.05968 27.4135 7.99297 27.3996 7.92506 27.4022L6.9449 27.4391L4.51057 27.5308C4.35701 27.5366 4.21953 27.6253 4.15401 27.7609L4.52645 27.9322C4.15401 27.7609 4.15401 27.7609 4.15401 27.7609L4.15235 27.7644L4.14927 27.7709L4.13904 27.793C4.13048 27.8118 4.11853 27.8385 4.10374 27.8731C4.07416 27.9421 4.03319 28.0423 3.98517 28.1718C3.88915 28.4308 3.76487 28.8077 3.64725 29.2883C3.41215 30.2489 3.2033 31.6257 3.30114 33.3057C3.38773 35.2016 3.74752 37.0763 4.36996 38.8749C4.42804 39.0427 4.59194 39.1536 4.7734 39.1479L6.95087 39.079L8.3584 39.0345L8.40498 39.033C8.52697 39.0292 8.64091 38.9727 8.71607 38.8789C8.7912 38.7851 8.81982 38.6637 8.79422 38.5473L8.79341 38.5435L8.79024 38.5286L8.77736 38.465C8.76604 38.4077 8.74954 38.3208 8.72939 38.2052C8.68909 37.974 8.6342 37.6277 8.57704 37.1729C8.46272 36.2633 8.33934 34.9199 8.30541 33.1949C8.27246 31.5194 8.28235 30.2076 8.30132 29.3004C8.30198 29.2688 8.30265 29.2377 8.30333 29.2071C8.30667 29.0569 8.31024 28.9185 8.31388 28.7921C8.32125 28.5361 8.32887 28.3295 8.33535 28.1742C8.34018 28.0583 8.34437 27.9709 8.34734 27.9128L8.35079 27.8478L8.3517 27.8319L8.35198 27.8271ZM7.90132 38.2452C7.86122 38.0071 7.81122 37.6808 7.75967 37.2707C7.64215 36.3356 7.51658 34.9646 7.48208 33.2103C7.44775 31.465 7.45957 30.1098 7.48003 29.1897C7.48917 28.7791 7.50003 28.4551 7.50928 28.2218L7.24834 28.2316L6.8977 28.2449L4.80589 28.3236C4.79166 28.3598 4.77615 28.4003 4.75958 28.445C4.67309 28.6784 4.55801 29.0262 4.44822 29.4748C4.2286 30.3722 4.03049 31.6711 4.12344 33.2625L4.12373 33.2675C4.20217 34.9898 4.51536 36.6939 5.05479 38.3352L6.895 38.277L7.51883 38.2573L7.90132 38.2452Z" fill="#F3B95F"/>
<path fill-rule="evenodd" clip-rule="evenodd" d="M8.10766 28.3305C8.09134 28.3587 8.07345 28.3928 8.0544 28.4338C7.94889 28.661 7.8459 29.0144 7.7587 29.4826C7.58555 30.4125 7.48951 31.7122 7.51631 33.1569C7.54311 34.6014 7.6888 35.8969 7.89781 36.82C8.00306 37.2848 8.1198 37.6344 8.23415 37.8575C8.2549 37.898 8.27421 37.9316 8.29169 37.9592C8.30818 37.9309 8.32629 37.8965 8.34558 37.8551C8.45144 37.6279 8.5549 37.2745 8.64251 36.8063C8.81648 35.8766 8.91309 34.5772 8.88513 33.1327C8.85717 31.6882 8.71089 30.3926 8.50159 29.4695C8.48444 29.3938 8.46698 29.3212 8.44929 29.2517C8.40534 29.0792 8.3599 28.9257 8.31388 28.7921C8.26454 28.6489 8.21454 28.5286 8.16499 28.4319C8.14432 28.3916 8.12508 28.3581 8.10766 28.3305ZM9.30564 29.296C9.52993 30.2852 9.6798 31.6364 9.70847 33.1176C9.73714 34.5989 9.63907 35.9542 9.4526 36.9506C9.35999 37.4455 9.24179 37.8731 9.09523 38.1876C9.0224 38.3438 8.9328 38.4938 8.81871 38.6109C8.70381 38.7289 8.53295 38.8435 8.309 38.8478C8.08478 38.852 7.90943 38.7436 7.79002 38.6298C7.68197 38.5269 7.59327 38.3959 7.51883 38.2573C7.51161 38.2438 7.50453 38.2303 7.49758 38.2167C7.33923 37.9077 7.20496 37.4846 7.09371 36.9933C6.94595 36.3407 6.83071 35.5306 6.76149 34.6297C6.72578 34.1648 6.70231 33.6756 6.69296 33.1715C6.67293 32.0915 6.71933 31.0785 6.81786 30.2228C6.85445 29.905 6.89824 29.6089 6.94847 29.3391C7.02853 28.9091 7.12784 28.53 7.24834 28.2316C7.26652 28.1866 7.28519 28.1434 7.30435 28.1022C7.37694 27.9459 7.46633 27.7959 7.58031 27.6787C7.69516 27.5606 7.86602 27.4458 8.09008 27.4416C8.10003 27.4414 8.10988 27.4414 8.11963 27.4417C8.14918 27.4424 8.17785 27.4451 8.2056 27.4495C8.37521 27.4763 8.51099 27.5661 8.60905 27.6595C8.72758 27.7724 8.82282 27.919 8.90152 28.0726C9.0599 28.3816 9.19424 28.8046 9.30564 29.296Z" fill="#F3B95F"/>
<path d="M9.35163 29.509L8.50196 29.6516C8.31408 30.8138 8.20452 31.9868 8.17396 33.1629C8.16896 34.3483 8.24305 35.5327 8.39577 36.7087L9.32785 36.5503L9.35163 29.509Z" fill="#F3B95F"/>
<path fill-rule="evenodd" clip-rule="evenodd" d="M9.44939 29.0886C9.67547 29.0904 9.85778 29.2697 9.85778 29.4903V29.4926C9.85778 29.4926 9.35163 29.509 9.85759 29.5048C9.85778 29.4903 9.25743 29.5248 9.35163 29.509L9.02621 29.9707L9.03434 29.4837C9.03737 29.3027 9.08635 29.136 9.25622 29.0886C9.29329 29.0783 9.40889 29.0883 9.44939 29.0886ZM8.92191 36.211L9.02621 29.9707L8.86455 29.9978C8.7067 31.0482 8.61363 32.1069 8.58588 33.1683C8.58172 34.1945 8.63771 35.2199 8.75356 36.2397L8.92191 36.211ZM9.35163 29.509L9.85772 29.4968L9.85759 29.5048L9.73974 36.5563C9.73652 36.749 9.5934 36.9124 9.39873 36.9455L8.46665 37.1039C8.3558 37.1228 8.24187 37.0965 8.15136 37.0313C8.06084 36.9661 8.00163 36.8676 7.98749 36.7587C7.83253 35.5654 7.75734 34.3635 7.76241 33.1607L7.76245 33.1522C7.79347 31.9585 7.90476 30.7681 8.09544 29.5885C8.11551 29.4643 8.19317 29.3593 8.30132 29.3004C8.34128 29.2786 8.3854 29.2631 8.43233 29.2552L8.44929 29.2517L9.25622 29.0886" fill="#F3B95F"/>
<path fill-rule="evenodd" clip-rule="evenodd" d="M60.0963 27.5191C60.1147 27.5012 60.1346 27.4852 60.1558 27.4711C60.2279 27.4235 60.3142 27.3989 60.4026 27.4022L61.5959 27.4463L63.817 27.5285C63.9708 27.5342 64.1084 27.623 64.174 27.7588L63.8014 27.9299C64.174 27.7588 64.174 27.7588 64.174 27.7588L64.1756 27.7622L64.1787 27.7688L64.1889 27.7909C64.1975 27.8097 64.2094 27.8364 64.2242 27.871C64.2538 27.9401 64.2948 28.0403 64.3428 28.1699C64.4388 28.4291 64.5632 28.8062 64.6809 29.2871C64.9163 30.2482 65.1258 31.6256 65.0291 33.3057C64.941 35.2013 64.5813 37.0758 63.9604 38.8746C63.9024 39.0426 63.7384 39.1536 63.5568 39.1479L61.0295 39.068L59.9229 39.033C59.8679 39.0313 59.8144 39.0188 59.7655 38.9971C59.7059 38.9706 59.6529 38.9303 59.6117 38.8787C59.5365 38.7848 59.508 38.6633 59.5338 38.5468M60.427 38.2452L60.8469 38.2584L61.1069 38.2667L63.2752 38.3352C63.8134 36.6935 64.1267 34.9895 64.2066 33.2672L64.2068 33.2627C64.2986 31.6713 64.0999 30.3718 63.88 29.4737C63.77 29.0248 63.6549 28.6766 63.5683 28.443C63.5517 28.3983 63.5362 28.3577 63.522 28.3215L61.595 28.2502L61.0988 28.2319L60.8162 28.2214C60.8255 28.4546 60.8365 28.7791 60.8458 29.1907C60.8665 30.1102 60.8789 31.4648 60.8458 33.2101C60.8125 34.9645 60.6869 36.3356 60.5691 37.2708C60.5174 37.6809 60.4672 38.0071 60.427 38.2452ZM59.9735 27.8294C59.9666 27.7147 60.0105 27.6025 60.0939 27.5214L60.0963 27.5191M59.9735 27.8294L59.9738 27.8342L59.9747 27.8501L59.9782 27.9151C59.9812 27.9731 59.9854 28.0604 59.9902 28.1762C59.9999 28.4079 60.0122 28.7538 60.0225 29.2084C60.043 30.1175 60.0554 31.4613 60.0225 33.1952C59.9897 34.92 59.8663 36.2633 59.7517 37.1728C59.6944 37.6275 59.6394 37.9737 59.5989 38.2049C59.5786 38.3205 59.5621 38.4073 59.5507 38.4646L59.5378 38.5282L59.5346 38.5431L59.5338 38.5468" fill="#F3B95F"/>
<path fill-rule="evenodd" clip-rule="evenodd" d="M59.7461 27.6818C59.8434 27.5892 59.9777 27.5004 60.1451 27.4728C60.1487 27.4722 60.1522 27.4717 60.1558 27.4711C60.1908 27.466 60.2271 27.4635 60.2649 27.4642C60.4888 27.4685 60.6597 27.583 60.7746 27.7009C60.8887 27.818 60.9784 27.9679 61.0514 28.1242C61.0675 28.1587 61.0833 28.1946 61.0988 28.2319C61.224 28.5334 61.327 28.9206 61.4097 29.3611C61.4819 29.7457 61.5409 30.1838 61.5845 30.6619C61.6539 31.4226 61.6844 32.2847 61.6667 33.1944C61.6381 34.6758 61.487 36.0271 61.2618 37.0163C61.2434 37.0972 61.2243 37.1763 61.2047 37.2533C61.1049 37.6439 60.9891 37.9815 60.8567 38.2395C60.8535 38.2458 60.8502 38.2521 60.8469 38.2584C60.7701 38.405 60.678 38.5441 60.5646 38.6523C60.4456 38.7658 60.2704 38.8747 60.046 38.8704C59.8218 38.8661 59.6511 38.7509 59.5366 38.6331C59.4229 38.5159 59.3336 38.3661 59.2609 38.2099C59.1148 37.8955 58.9968 37.4681 58.9042 36.9733C58.7195 35.9866 58.621 34.6481 58.6458 33.1838C58.6444 33.1694 58.6439 33.1548 58.6442 33.1402C58.6728 31.6578 58.8233 30.3065 59.0482 29.3175C59.16 28.8263 59.2946 28.4034 59.4533 28.0945C59.5321 27.9411 59.6275 27.7946 59.7461 27.6818ZM59.4684 33.1127C59.4696 33.1267 59.4701 33.1409 59.4699 33.155C59.4431 34.5996 59.5403 35.8991 59.7143 36.829C59.8019 37.2972 59.9052 37.6508 60.0109 37.878C60.0297 37.9185 60.0474 37.9524 60.0636 37.9804C60.0809 37.953 60.0999 37.9198 60.1203 37.88C60.2349 37.6567 60.3521 37.307 60.4579 36.8422C60.668 35.919 60.8154 34.6236 60.8434 33.1792C60.8714 31.7349 60.7742 30.4355 60.5996 29.5058C60.5118 29.0377 60.408 28.6843 60.302 28.4571C60.2825 28.4154 60.2642 28.3807 60.2475 28.3522C60.2299 28.3799 60.2104 28.4137 60.1895 28.4545C60.0749 28.6775 59.9579 29.0268 59.8522 29.4915C59.6444 30.4052 59.4984 31.6843 59.4684 33.1127Z" fill="#F3B95F"/>
<path d="M58.8934 29.4908L59.8066 29.6493C59.9928 30.8124 60.1008 31.9861 60.1299 33.1629C60.1381 34.3473 60.068 35.5309 59.9199 36.7064L59.0067 36.548L58.8934 29.4908Z" fill="#F3B95F"/>
<path fill-rule="evenodd" clip-rule="evenodd" d="M58.6267 29.1851C58.7203 29.1074 58.8447 29.0745 58.9657 29.0955L59.8789 29.254C60.052 29.284 60.1865 29.418 60.2136 29.5875C60.4026 30.7679 60.5122 31.9591 60.5417 33.1534L60.5419 33.1604C60.5502 34.362 60.479 35.5629 60.3287 36.7556C60.3149 36.8651 60.2556 36.9642 60.1647 37.0297C60.0738 37.0952 59.9593 37.1214 59.848 37.1021L58.9348 36.9436C58.7407 36.9099 58.5983 36.7468 58.5952 36.5544L58.4819 29.4973C58.48 29.3774 58.5331 29.2629 58.6267 29.1851ZM59.3131 29.9718L59.4132 36.2107L59.5611 36.2363C59.6728 35.2178 59.7254 34.1938 59.7184 33.1693C59.692 32.1065 59.6003 31.0464 59.4437 29.9944L59.3131 29.9718Z" fill="#F3B95F"/>
<path fill-rule="evenodd" clip-rule="evenodd" d="M11.1299 18.7663C10.5143 18.8139 9.91085 19.0428 9.64934 19.7224C9.50241 20.1043 9.37145 20.7911 9.26052 21.6358C9.15084 22.4711 9.06409 23.4322 8.99718 24.3446C8.93031 25.2564 8.88348 26.1165 8.85336 26.7488C8.8383 27.0648 8.82743 27.3238 8.82033 27.5037L8.81677 27.5975C9.1002 27.7471 9.30556 27.8434 9.45561 27.8966C9.5125 27.9167 9.56144 27.9306 9.60367 27.939C9.64228 27.9466 9.66514 27.9472 9.67683 27.9466C9.68055 27.9406 9.68579 27.9309 9.69207 27.9158C9.7147 27.8616 9.73619 27.7722 9.75388 27.629C9.77121 27.4888 9.78282 27.3165 9.79446 27.1045C9.79812 27.0376 9.80177 26.9673 9.80559 26.8936C9.81819 26.6503 9.83274 26.3697 9.85645 26.0529C9.8707 25.8624 9.88827 25.6589 9.91073 25.4426C10.1289 23.3189 10.6746 21.5667 11.1664 20.3443C11.4123 19.7328 11.6451 19.2532 11.8172 18.9251C11.8426 18.8767 11.8666 18.8316 11.8892 18.7899C11.6792 18.7629 11.4107 18.7445 11.1299 18.7663ZM12.6288 18.7306L12.6258 18.7354L12.6128 18.7566C12.6011 18.7759 12.5834 18.8055 12.5605 18.845C12.5147 18.924 12.4478 19.0429 12.3659 19.199C12.2021 19.5114 11.9779 19.9729 11.7402 20.564C11.2645 21.7465 10.7354 23.4447 10.524 25.5028C10.4659 26.0627 10.4416 26.5318 10.4214 26.9212C10.4175 26.9959 10.4138 27.0677 10.41 27.1366C10.3984 27.3487 10.3859 27.5389 10.3659 27.701C10.3462 27.8603 10.317 28.0131 10.2631 28.1424C10.2074 28.2759 10.1144 28.4098 9.954 28.4869C9.79855 28.5617 9.63154 28.5579 9.48184 28.5285C9.20362 28.4737 8.841 28.2988 8.3826 28.0512C8.34648 28.0364 8.31296 28.0148 8.28417 27.9868L8.27946 27.9822C8.20313 27.9079 8.17435 27.8031 8.19587 27.7058L8.19642 27.6901L8.20437 27.4805C8.20477 27.4704 8.20518 27.4601 8.2056 27.4495C8.21276 27.2701 8.22331 27.021 8.23761 26.7209C8.26788 26.0853 8.31499 25.22 8.38234 24.3017C8.44963 23.3841 8.53735 22.4105 8.64911 21.5594C8.75963 20.7177 8.89708 19.9663 9.07225 19.5111C9.45494 18.5166 10.3546 18.223 11.0811 18.1668C11.4465 18.1385 11.7861 18.1672 12.0323 18.2022C12.156 18.2197 12.2579 18.2391 12.3296 18.2543C12.3656 18.2619 12.3941 18.2684 12.4142 18.2733L12.4379 18.2791L12.4448 18.2809L12.4469 18.2815C12.4469 18.2815 12.4482 18.2818 12.3671 18.5719L12.4469 18.2815C12.5 18.2956 12.5479 18.3232 12.5859 18.3605C12.615 18.3891 12.6383 18.4233 12.6538 18.4616C12.6894 18.5497 12.6798 18.65 12.6288 18.7306Z" fill="#F3B95F"/>
<path fill-rule="evenodd" clip-rule="evenodd" d="M57.274 18.3753C58.0004 18.4316 58.8997 18.7251 59.2836 19.7193C59.4595 20.1747 59.5974 20.9262 59.7082 21.7678C59.8203 22.619 59.9083 23.5925 59.9757 24.5102C60.0432 25.4285 60.0904 26.2938 60.1207 26.9294C60.1306 27.137 60.1387 27.3202 60.1451 27.4728C60.1485 27.5538 60.1515 27.6262 60.154 27.6891L60.1619 27.8987L60.163 27.9294C60.1732 27.9904 60.1642 28.0545 60.1344 28.1126L60.132 28.1172C60.0967 28.1859 60.0373 28.2366 59.9676 28.2629C59.5126 28.5093 59.1522 28.6834 58.8751 28.7382C58.7253 28.7678 58.5583 28.7718 58.4028 28.6973C58.2422 28.6204 58.1489 28.4868 58.0929 28.3533C58.0386 28.2239 58.0091 28.071 57.9892 27.9116C57.9689 27.7493 57.9562 27.559 57.9443 27.3467C57.9404 27.2756 57.9365 27.2015 57.9324 27.1242C57.912 26.7359 57.8874 26.2688 57.8296 25.7117C57.6182 23.6523 57.0897 21.9538 56.6146 20.7716C56.3771 20.1807 56.1533 19.7194 55.9896 19.4072C55.9078 19.2511 55.8411 19.1323 55.7953 19.0534C55.7724 19.0139 55.7548 18.9843 55.7431 18.965L55.7301 18.9439L55.7271 18.9391C55.6778 18.861 55.6672 18.7646 55.6989 18.6786C55.7 18.6758 55.7011 18.6729 55.7022 18.6701C55.7378 18.582 55.814 18.5154 55.9077 18.4904L55.9889 18.7804C55.9077 18.4904 55.9077 18.4904 55.9077 18.4904L55.9111 18.4895L55.918 18.4877L55.9417 18.4818C55.9618 18.477 55.9903 18.4704 56.0262 18.4628C56.0979 18.4476 56.1997 18.4283 56.3234 18.4107C56.5693 18.3758 56.9088 18.347 57.274 18.3753ZM56.4666 18.9984C56.4892 19.0401 56.5132 19.0851 56.5385 19.1334C56.7103 19.4613 56.9428 19.9407 57.1885 20.5521C57.6239 21.6355 58.1017 23.1355 58.3565 24.9423C58.3892 25.1737 58.4182 25.4101 58.4429 25.6513M56.4666 18.9984C56.6764 18.9715 56.9446 18.9531 57.2252 18.9748C57.8403 19.0224 58.4442 19.2513 58.7068 19.9313C58.8542 20.3131 58.9856 20.9997 59.0968 21.8445C59.2068 22.6798 59.2938 23.6408 59.3609 24.5532C59.4279 25.465 59.4748 26.325 59.5049 26.9573C59.52 27.2734 59.5309 27.5324 59.538 27.7122L59.5415 27.8051C59.3831 27.8891 59.249 27.9564 59.1352 28.0088C58.9677 28.0859 58.8443 28.1307 58.7526 28.1489C58.7135 28.1566 58.6905 28.1572 58.6789 28.1566C58.6751 28.1506 58.6698 28.1408 58.6634 28.1255C58.6406 28.0713 58.619 27.9819 58.6011 27.8388C58.5835 27.6985 58.5717 27.5262 58.5599 27.314C58.5561 27.247 58.5524 27.1765 58.5485 27.1025C58.5484 27.1005 58.5483 27.0984 58.5482 27.0964C58.5278 26.7079 58.5023 26.2245 58.4429 25.6513" fill="#F3B95F"/>
<path fill-rule="evenodd" clip-rule="evenodd" d="M10.2789 48.362H10.0147H9.01561H8.47369V47.7606H9.0223H9.8887H10.2789V48.362Z" fill="#F3B95F"/>
<path fill-rule="evenodd" clip-rule="evenodd" d="M11.9729 55.2141C12.0621 55.0785 12.2443 55.0363 12.3859 55.1159C12.3903 55.1183 12.3945 55.1209 12.3988 55.1235L14.481 56.4276L21.9464 59.4798L27.3326 60.6451C27.3808 60.6556 27.4238 60.6764 27.4597 60.7048C27.5477 60.7743 27.593 60.8886 27.5668 61.0038C27.5299 61.1659 27.3654 61.2682 27.1992 61.2322L25.2536 60.8113L21.8208 60.0685L21.786 60.061C21.7681 60.0571 21.7506 60.0517 21.7336 60.0448L21.247 59.8458L14.5428 57.1049L14.218 56.9721C14.2015 56.9653 14.1857 56.9572 14.1706 56.9478L13.9914 56.8356L12.4822 55.8904L12.0658 55.6296C11.9225 55.5399 11.881 55.3539 11.9729 55.2141Z" fill="#F3B95F"/>
<path fill-rule="evenodd" clip-rule="evenodd" d="M8.46767 48.5044C8.62493 48.4409 8.80518 48.5139 8.87027 48.6673L8.91928 48.7829L9.81643 50.8984L12.3701 55.0917L12.3514 55.0719C12.3645 55.0858 12.376 55.1005 12.3859 55.1159C12.4635 55.2362 12.4447 55.397 12.3338 55.4968C12.2086 55.6094 12.0137 55.6016 11.8983 55.4794C11.8858 55.4663 11.8746 55.452 11.8648 55.4369L9.28189 51.1987C9.2723 51.184 9.26404 51.1685 9.25721 51.1524L8.30078 48.8972C8.23569 48.7437 8.31041 48.5678 8.46767 48.5044Z" fill="#F3B95F"/>
<path fill-rule="evenodd" clip-rule="evenodd" d="M21.6855 59.6413C21.8397 59.7117 21.9061 59.8907 21.834 60.0411L21.8208 60.0685L20.9755 61.83L20.7815 62.2343C20.7094 62.3847 20.5259 62.4495 20.3717 62.3791C20.2176 62.3087 20.1511 62.1297 20.2233 61.9793L20.2389 61.9468L21.247 59.8458L21.2757 59.7861C21.3479 59.6357 21.5313 59.5709 21.6855 59.6413Z" fill="#F3B95F"/>
<path fill-rule="evenodd" clip-rule="evenodd" d="M12.6053 59.1176C12.6862 58.9715 12.8732 58.917 13.0229 58.996L13.4167 59.1571L20.2389 61.9468L20.7901 62.1722C20.9398 62.2512 20.9956 62.4337 20.9147 62.5798C20.8338 62.726 20.6469 62.7804 20.4972 62.7015L12.7299 59.5253C12.5802 59.4463 12.5244 59.2638 12.6053 59.1176Z" fill="#F3B95F"/>
<path fill-rule="evenodd" clip-rule="evenodd" d="M11.9575 55.2433C12.0384 55.0971 12.2253 55.0427 12.375 55.1216L12.4822 55.8904L12.8931 58.8371L12.8983 58.8744C13.048 58.9534 13.1037 59.1359 13.0228 59.2821C12.942 59.4282 12.755 59.4827 12.6053 59.4037L12.082 55.6509C11.9323 55.5719 11.8766 55.3894 11.9575 55.2433Z" fill="#F3B95F"/>
<path fill-rule="evenodd" clip-rule="evenodd" d="M14.4833 56.5762C14.6333 56.6546 14.6899 56.8368 14.6095 56.9832L14.5428 57.1049L13.4167 59.1571L13.4061 59.1764C13.3257 59.3228 13.139 59.3779 12.9889 59.2996C12.8388 59.2212 12.7823 59.039 12.8626 58.8926L12.8931 58.8371L13.9914 56.8356L14.0661 56.6994C14.1464 56.553 14.3332 56.4979 14.4833 56.5762Z" fill="#F3B95F"/>
<path fill-rule="evenodd" clip-rule="evenodd" d="M59.5704 48.0201L59.2476 47.8107L58.7482 47.4867L57.7653 46.8489L58.1066 46.3482L58.811 46.8052L59.4588 47.2254L59.9118 47.5194L59.5704 48.0201Z" fill="#F3B95F"/>
<path fill-rule="evenodd" clip-rule="evenodd" d="M18.8136 22.4096C17.4725 21.9311 15.8097 22.8663 15.1438 24.6261C14.4779 26.3862 15.1208 28.1453 16.4563 28.6234C17.7924 29.1017 19.4552 28.1669 20.1187 26.4071L20.1683 26.2756H20.171C20.7597 24.5619 20.12 22.8758 18.8136 22.4096ZM14.7576 24.487C15.4698 22.6046 17.323 21.45 18.955 22.0324C20.5886 22.6153 21.2242 24.6666 20.5097 26.5463L20.4599 26.6773H20.4532C19.7084 28.4815 17.9039 29.5695 16.3145 29.0005C14.6863 28.4177 14.0454 26.3692 14.7576 24.487Z" fill="#F3B95F"/>
<path fill-rule="evenodd" clip-rule="evenodd" d="M21.8952 18.6944C21.3452 18.4984 20.6163 18.8815 20.3159 19.6732C20.1694 20.0595 20.1663 20.4557 20.2727 20.7749C20.379 21.0941 20.5885 21.3234 20.8613 21.4135C21.4163 21.5965 22.1482 21.2154 22.445 20.4233C22.745 19.6303 22.4449 18.8903 21.8952 18.6944ZM19.9298 19.5337C20.276 18.6214 21.1942 18.017 22.0364 18.3171C22.8788 18.6172 23.1779 19.6459 22.8316 20.5615C22.4864 21.4823 21.5666 22.0702 20.7294 21.794C20.3062 21.6543 20.0178 21.3096 19.8811 20.899C19.7443 20.4885 19.7531 19.9994 19.9298 19.5337Z" fill="#F3B95F"/>
<path fill-rule="evenodd" clip-rule="evenodd" d="M58.7216 44.6173C58.7496 44.57 58.7866 44.5298 58.8297 44.4981C58.9099 44.439 59.0111 44.4093 59.115 44.4185L60.2947 44.5226L62.6546 44.7308C62.8739 44.7502 63.0387 44.9344 63.0288 45.149C63.026 45.209 63.0099 45.2654 62.9832 45.3156C62.9807 45.3283 62.978 45.3421 62.975 45.3571C62.956 45.4547 62.9283 45.6013 62.8944 45.7946C62.8266 46.1812 62.7336 46.7547 62.634 47.4978L62.6332 47.5043C62.5184 48.2637 62.4708 49.0312 62.4911 49.7985C62.4941 49.9133 62.4466 50.0239 62.3606 50.1023C62.2746 50.1807 62.1583 50.2195 62.0411 50.2088L58.5435 49.8895L58.419 49.8781C58.2343 49.8612 58.0841 49.7261 58.0518 49.5479C57.9133 48.7817 57.8762 48.0017 57.9412 47.2269C57.9467 47.1618 57.9529 47.0967 57.9598 47.0316C58.023 46.1811 58.2834 45.3557 58.7216 44.6173ZM62.113 45.4897L60.1508 45.3165L59.3101 45.2423C59.0536 45.732 58.8849 46.2605 58.811 46.8052C58.7979 46.9014 58.7878 46.9982 58.7807 47.0954L58.7798 47.1085C58.7663 47.2344 58.7558 47.3605 58.7482 47.4867C58.7159 48.0276 58.7379 48.5704 58.8142 49.1073L59.0483 49.1287L61.6633 49.3674C61.6675 48.7059 61.7191 48.0453 61.8179 47.3904C61.9188 46.6378 62.0132 46.055 62.0827 45.659C62.0934 45.5981 62.1035 45.5417 62.113 45.4897Z" fill="#F3B95F"/>
<path fill-rule="evenodd" clip-rule="evenodd" d="M62.5351 46.3231C62.4547 46.6358 62.3818 47.0077 62.3272 47.4129C62.2722 47.8208 62.2442 48.201 62.2397 48.5248C62.3211 48.2105 62.3948 47.8358 62.4499 47.4279C62.5036 47.023 62.5309 46.6454 62.5351 46.3231ZM62.3374 44.8571C62.4221 44.7916 62.5642 44.7164 62.7453 44.7391C62.9268 44.7618 63.045 44.87 63.11 44.9545C63.1746 45.0383 63.2152 45.1334 63.2426 45.2162C63.2982 45.384 63.3296 45.5948 63.3456 45.8202C63.378 46.2777 63.3527 46.8829 63.2665 47.5316C63.1791 48.1788 63.0449 48.7706 62.8934 49.2048C62.8187 49.4188 62.733 49.615 62.6349 49.7636C62.5864 49.837 62.5221 49.9188 62.4375 49.9838C62.3522 50.0494 62.2103 50.1238 62.0299 50.1014C61.8491 50.079 61.7306 49.9719 61.6648 49.8869C61.5997 49.8028 61.5588 49.7075 61.5312 49.6244C61.4754 49.4563 61.4442 49.2451 61.4285 49.0197C61.3967 48.562 61.4233 47.9567 61.5107 47.3082C61.5981 46.6597 61.7322 46.0688 61.8834 45.6349C61.9578 45.4211 62.0433 45.2253 62.1409 45.077C62.1891 45.0038 62.2531 44.922 62.3374 44.8571Z" fill="#F3B95F"/>
<path d="M57.0469 41.365C57.0469 41.365 52.7193 44.1737 47.9149 45.3403C43.1106 46.5069 41.6664 46.5115 41.6664 46.5115C41.6664 46.5115 40.706 44.8718 37.5818 44.8718C34.4576 44.8718 34.4599 46.5115 34.4599 47.9124C34.4599 49.3132 36.1424 49.5498 38.0655 49.5498C39.3245 49.5122 40.5576 49.1923 41.6688 48.6151C41.6688 48.6151 45.2721 48.3854 48.158 47.6804C51.0439 46.9754 56.5679 44.8741 56.5679 44.8741" fill="#F3B95F"/>
<path fill-rule="evenodd" clip-rule="evenodd" d="M62.7455 12.9684H65.5491H66.3612C66.8866 12.9722 67.3896 13.1772 67.7612 13.5394C68.1328 13.9016 68.3431 14.3918 68.3462 14.9041L68.3462 23.5477C68.3438 24.06 68.1332 24.5504 67.7608 24.9118C67.3883 25.2732 66.8843 25.4763 66.3588 25.477H62.7424C62.2426 25.4734 61.7631 25.288 61.3974 24.9585C61.3786 24.9415 61.36 24.9242 61.3418 24.9064C60.9698 24.5444 60.759 24.0543 60.7551 23.542L60.7551 23.539L60.7551 20.0471L60.7551 16.3391L60.7551 14.8971C60.7582 14.3847 60.9694 13.8945 61.3422 13.5333C61.715 13.1721 62.2198 12.9691 62.7455 12.9684ZM62.7458 13.7718C62.437 13.7723 62.1411 13.8916 61.9225 14.1033C61.7042 14.3148 61.5807 14.6015 61.5786 14.9008V23.5374C61.5812 23.8376 61.7049 24.125 61.9234 24.3376C62.1419 24.5503 62.4377 24.6711 62.7471 24.6736H66.3576C66.666 24.6731 66.9619 24.5538 67.1801 24.3422C67.398 24.1306 67.2512 23.8468 67.2528 23.5477L67.5227 14.9078C67.5206 14.6077 67.3973 14.3203 67.1792 14.1077C66.9611 13.8951 66.6656 13.7744 66.3565 13.7718H62.7458Z" fill="#F3B95F"/>
<path d="M65.1539 16.8957C65.1539 17.8648 64.6466 18.6525 64.026 18.6525C63.4054 18.6525 62.898 17.8648 62.898 16.8957C62.898 15.9266 63.403 15.1389 64.026 15.1389C64.6489 15.1389 65.1539 15.9266 65.1539 16.8957Z" fill="#F3B95F"/>
<path fill-rule="evenodd" clip-rule="evenodd" d="M62.8796 15.4409C63.1271 15.0551 63.5217 14.7373 64.0262 14.7373C64.5306 14.7373 64.9252 15.0551 65.1727 15.4409C65.4239 15.8322 65.5658 16.3478 65.5658 16.8958C65.5658 17.4442 65.4231 17.9599 65.1717 18.3511C64.9241 18.7362 64.5297 19.0544 64.0262 19.0544C63.5226 19.0544 63.1282 18.7362 62.8806 18.3511C62.6292 17.9599 62.4865 17.4442 62.4865 16.8958C62.4865 16.3478 62.6284 15.8322 62.8796 15.4409Z" fill="#F3B95F"/>
<path d="M65.3053 22.0166C65.3053 22.9858 64.8004 23.7735 64.1798 23.7735C63.5592 23.7735 63.0495 22.9858 63.0495 22.0166C63.0495 21.0475 63.5568 20.2598 64.1798 20.2598C64.8027 20.2598 65.3077 21.0475 65.3077 22.0166" fill="#F3B95F"/>
<path fill-rule="evenodd" clip-rule="evenodd" d="M65.7169 22.0623C65.7187 22.0472 65.7196 22.0317 65.7196 22.0161C65.7196 21.4681 65.5777 20.9525 65.3265 20.5611C65.079 20.1754 64.6844 19.8576 64.18 19.8576C63.6758 19.8576 63.2807 20.1751 63.0325 20.5607C62.7806 20.952 62.6379 21.4677 62.6379 22.0161C62.6379 22.5649 62.7814 23.0806 63.0335 23.4718C63.2817 23.8568 63.6767 24.1746 64.18 24.1746C64.6838 24.1746 65.0777 23.8562 65.3246 23.4709C65.5683 23.0906 65.7092 22.5931 65.7169 22.0623Z" fill="#F3B95F"/>
<path fill-rule="evenodd" clip-rule="evenodd" d="M64.9981 15.0573C64.6268 14.9833 64.2413 15.0191 63.8911 15.1601C63.541 15.301 63.2424 15.5407 63.0335 15.8479C62.8247 16.1552 62.7151 16.5162 62.7188 16.8844C62.7225 17.2526 62.8393 17.6114 63.0543 17.9146C63.2693 18.2179 63.5727 18.4517 63.9256 18.586C64.2785 18.7203 64.6647 18.7487 65.0344 18.6677C65.4041 18.5867 65.7403 18.3999 65.9999 18.1315C66.2594 17.8632 66.4304 17.5256 66.491 17.1621L66.4923 17.1545C66.5801 16.6851 66.4732 16.201 66.1947 15.8081C65.9161 15.4152 65.4887 15.1456 65.0058 15.0587L64.9981 15.0573ZM65.159 14.2694C64.6283 14.1644 64.0775 14.216 63.577 14.4175C63.0753 14.6195 62.6469 14.963 62.3472 15.404C62.0474 15.845 61.8901 16.3633 61.8954 16.8922C61.9007 17.4212 62.0685 17.9364 62.377 18.3716C62.6856 18.8068 63.1207 19.1421 63.6264 19.3345C64.1321 19.5269 64.6853 19.5676 65.2149 19.4516C65.7445 19.3355 66.2265 19.0678 66.5988 18.6829C66.9702 18.2988 67.2155 17.8156 67.3032 17.2949C67.429 16.6169 67.2739 15.9181 66.872 15.3511C66.47 14.7842 65.8541 14.3954 65.159 14.2694Z" fill="#F3B95F"/>
<path fill-rule="evenodd" clip-rule="evenodd" d="M65.197 20.4422C64.8263 20.3687 64.4414 20.4048 64.092 20.5458C63.7425 20.6868 63.4445 20.9261 63.2362 21.233C63.0279 21.5399 62.9186 21.9002 62.9224 22.2678C62.9262 22.6354 63.0429 22.9936 63.2575 23.2964C63.4721 23.5991 63.775 23.8326 64.1273 23.9668C64.4796 24.1009 64.8651 24.1294 65.2342 24.0487C65.6034 23.968 65.9391 23.7817 66.1984 23.514C66.4577 23.2463 66.6287 22.9094 66.6896 22.5465L66.6908 22.5393C66.7787 22.07 66.6717 21.5858 66.3932 21.193C66.1147 20.8001 65.6872 20.5304 65.2043 20.4436L65.197 20.4422ZM65.3573 19.6542C64.8272 19.5498 64.277 19.6017 63.7773 19.8034C63.2763 20.0055 62.8488 20.3488 62.5496 20.7894C62.2505 21.23 62.0935 21.7477 62.099 22.2759C62.1044 22.8042 62.2721 23.3187 62.5802 23.7533C62.8884 24.188 63.3229 24.5229 63.8279 24.7152C64.3329 24.9074 64.8853 24.9483 65.4143 24.8327C65.9433 24.717 66.4249 24.45 66.797 24.0658C67.1682 23.6825 67.4136 23.2 67.5017 22.68C67.6275 22.0019 67.4725 21.303 67.0705 20.736C66.6685 20.169 66.0525 19.7802 65.3573 19.6542Z" fill="#F3B95F"/>
<path d="M7.08537 25.1906C7.09068 25.2252 7.09141 25.261 7.08701 25.2974C7.0839 25.3231 7.07838 25.3479 7.07067 25.3717L7.05388 25.5788L6.9449 27.4391L7.92506 27.4022C7.99297 27.3996 8.05968 27.4135 8.11963 27.4417C8.14918 27.4424 8.17785 27.4451 8.2056 27.4495C8.21276 27.2701 8.22331 27.021 8.23761 26.7209C8.26788 26.0853 8.31499 25.22 8.38234 24.3017C8.44963 23.3841 8.53735 22.4105 8.64911 21.5594C8.75963 20.7177 8.89708 19.9663 9.07225 19.5111C9.45494 18.5166 10.3546 18.223 11.0811 18.1668C11.4465 18.1385 11.7861 18.1672 12.0323 18.2022C12.156 18.2197 12.2579 18.2391 12.3296 18.2543C12.3656 18.2619 12.3941 18.2684 12.4142 18.2733L12.4379 18.2791L12.4448 18.2809L12.4469 18.2815C12.5 18.2956 12.5479 18.3232 12.5859 18.3605C13.3581 17.6973 14.4559 16.892 15.9445 16.0884C19.4506 14.1956 25.1123 12.3189 33.7726 12.3189C39.7979 12.3189 44.4255 13.227 47.9016 14.4162C47.9128 14.2381 47.9335 13.9052 47.9335 13.9052C47.9541 13.5616 47.9814 13.079 48.0088 12.5232C48.0636 11.4105 48.1182 10.0084 48.1182 8.84111C48.1182 7.71476 47.8011 6.52307 47.4766 5.60174C47.3151 5.14347 47.2047 4.88236 47.0838 4.61112L45.7435 4.14325L42.8364 3.41067L39.6555 2.86181L36.1962 2.49896L33.7303 2.39562L31.2526 2.45533L28.7773 2.68268L26.3326 3.08457L23.9375 3.66099L21.2661 4.56958C21.1452 4.84082 20.9929 5.20356 20.8314 5.66183C20.5069 6.58316 20.1898 7.77485 20.1898 8.90119C20.1898 10.0685 20.2444 11.4705 20.2992 12.5833C20.3266 13.1391 20.3539 13.6217 20.3745 13.9653C20.3745 13.9653 20.3685 14.0943 20.3745 14.1883L19.7794 14.3326L18.1383 15.0204L17.7642 15.168C17.6838 14.3924 17.8874 12.2145 17.9944 10.8462C18.101 9.48346 18.1727 8.8025 18.1727 7.38507C18.1727 6.66648 18.2527 5.97593 18.2527 5.97593L17.2761 6.49946L15.3057 7.82454L13.4982 9.34253L11.8771 11.0534L10.466 12.9595L9.28615 15.047L8.36115 17.3068L7.70516 19.7204L7.58875 20.5066L7.58874 23.6963L7.58874 23.6981C7.58662 24.163 7.41367 24.6099 7.10412 24.9595L7.08537 25.1906Z" fill="#F3B95F"/>
<path d="M61.4845 25.3946C61.4612 25.3403 61.4427 25.2814 61.4355 25.2218C61.4216 25.1069 61.3912 25.0195 61.3974 24.9585C61.3786 24.9415 61.36 24.9242 61.3418 24.9064C60.9698 24.5444 60.759 24.0543 60.7551 23.542L60.7551 23.539L60.7551 20.0471L60.5695 19.144L59.8451 16.7556L58.913 14.5418L57.7567 12.5025L56.3716 10.6423L54.7458 8.9659L52.8769 7.47547L50.7579 6.17565L50.0474 5.84332C50.0474 5.84332 50.1353 6.6064 50.1353 7.32498C50.1353 8.74241 50.207 9.42337 50.3136 10.7861C50.4206 12.1544 50.5765 14.6652 50.496 15.4409C50.9671 15.6539 51.4088 15.8691 51.8224 16.0852C53.6192 17.0244 54.8812 17.9656 55.6989 18.6786C55.7 18.6758 55.7011 18.6729 55.7022 18.6701C55.7378 18.582 55.814 18.5154 55.9077 18.4904L55.9111 18.4895L55.918 18.4877L55.9417 18.4818C55.9618 18.477 55.9903 18.4704 56.0262 18.4628C56.0979 18.4476 56.1997 18.4283 56.3234 18.4107C56.5693 18.3758 56.9088 18.347 57.274 18.3753C58.0004 18.4316 58.8997 18.7251 59.2836 19.7193C59.4595 20.1747 59.5974 20.9262 59.7082 21.7678C59.8203 22.619 59.9083 23.5925 59.9757 24.5102C60.0432 25.4285 60.0904 26.2938 60.1207 26.9294C60.1306 27.137 60.1387 27.3202 60.1451 27.4728C60.1487 27.4722 60.1522 27.4717 60.1558 27.4711C60.2279 27.4235 60.3142 27.3989 60.4026 27.4022L61.5959 27.4463L61.4845 25.3946Z" fill="#F3B95F"/>
<path d="M60.2947 44.5226L60.4751 43.4432L60.7181 41.7323L60.9801 39.5805L61.0295 39.068L59.9229 39.033C59.8679 39.0313 59.8144 39.0188 59.7655 38.9971C59.5267 40.9785 59.2504 42.5511 58.997 43.7464C58.9398 44.016 58.8838 44.2665 58.8297 44.4981C58.9099 44.439 59.0111 44.4093 59.115 44.4185L60.2947 44.5226Z" fill="#F3B95F"/>
<path d="M9.01561 48.362L9.00531 48.445L8.97936 48.569L8.95104 48.6861L8.91928 48.7829L9.81643 50.8984L12.3701 55.0917L12.3514 55.0719C12.3645 55.0858 12.376 55.1005 12.3859 55.1159C12.3903 55.1183 12.3945 55.1209 12.3988 55.1235L14.481 56.4276L21.9464 59.4798L27.3326 60.6451C27.3808 60.6556 27.4238 60.6764 27.4597 60.7048C27.8537 60.721 28.302 60.7457 28.7902 60.7731L28.9122 60.7799C29.7454 60.8266 30.6992 60.8801 31.7259 60.9148C33.8822 60.9877 36.3431 60.977 38.642 60.6503C43.2378 59.9971 49.2408 57.3337 52.19 55.7602C54.4561 54.5509 56.2347 52.7914 57.4513 51.3231C57.8921 50.791 58.2574 50.2994 58.5435 49.8895L58.419 49.8781C58.2343 49.8612 58.0841 49.7261 58.0518 49.5479C57.9133 48.7817 57.8762 48.0017 57.9412 47.2269L56.7641 50.1978C56.7545 50.2221 56.7416 50.2451 56.7259 50.2662L56.7236 50.2692L56.7186 50.2759L56.6999 50.3002C56.6837 50.3211 56.6599 50.3513 56.6285 50.3902C56.5655 50.468 56.4718 50.5806 56.3466 50.7226C56.0961 51.0066 55.7194 51.4086 55.21 51.8859C54.1913 52.8407 52.6414 54.0977 50.5094 55.317C46.2423 57.7571 39.6535 60.0399 30.3444 59.456C21.8744 58.9241 16.8325 56.3609 13.9029 53.9033C12.4399 52.6761 11.509 51.4797 10.9424 50.5855C10.6591 50.1385 10.467 49.7671 10.3449 49.5051C10.2838 49.3742 10.2403 49.2706 10.2116 49.1985C10.1972 49.1625 10.1866 49.1344 10.1794 49.1146L10.171 49.0914L10.1686 49.0847L10.1679 49.0826C10.1641 49.0714 10.1606 49.0587 10.1582 49.0472L10.0147 48.362H9.01561Z" fill="#F3B95F"/>
<path d="M8.90632 47.2505L8.91565 47.2737L8.95104 47.3771L8.97936 47.4942L9.00531 47.6205L9.02183 47.7537L9.0223 47.7606H9.8887L9.32927 45.0895C9.2917 44.9232 9.24681 44.7187 9.1968 44.4801C9.04843 43.7719 8.8549 42.7619 8.67371 41.5522C8.55886 40.7854 8.44882 39.9375 8.3584 39.0345L6.95087 39.079L6.96421 39.2705L7.10343 40.6622L7.25681 41.838L7.42199 42.8071L7.58245 43.5879L7.73347 44.1896L7.86089 44.6259L7.95764 44.913L8.01663 45.06L8.03551 45.1036L8.04967 45.1358L8.9086 47.2439L8.90632 47.2505Z" fill="#F3B95F"/>
<path d="M6.76149 34.6297L6.77543 35.7729L6.85094 37.6446L6.895 38.277L7.51883 38.2573C7.51161 38.2438 7.50453 38.2303 7.49758 38.2167C7.33923 37.9077 7.20496 37.4846 7.09371 36.9933C6.94595 36.3407 6.83071 35.5306 6.76149 34.6297Z" fill="#F3B95F"/>
<path d="M61.5845 30.6619L61.595 28.2502L61.0988 28.2319C61.224 28.5334 61.327 28.9206 61.4097 29.3611C61.4819 29.7457 61.5409 30.1838 61.5845 30.6619Z" fill="#F3B95F"/>
<path d="M60.8469 38.2584L61.1069 38.2667L61.2047 37.2533C61.1049 37.6439 60.9891 37.9815 60.8567 38.2395C60.8535 38.2458 60.8502 38.2521 60.8469 38.2584Z" fill="#F3B95F"/>
<path d="M59.4588 47.2254L60.1046 45.5468L60.1282 45.4389L60.1508 45.3165L59.3101 45.2423C59.0536 45.732 58.8849 46.2605 58.811 46.8052L59.4588 47.2254Z" fill="#F3B95F"/>
<path d="M59.2188 48.8495L59.215 48.8285L59.1961 48.6907L59.1844 48.5461L59.1796 48.4014L59.1844 48.2544L59.1961 48.112L59.215 47.9719L59.2386 47.8433L59.2476 47.8107L58.7482 47.4867C58.7159 48.0276 58.7379 48.5704 58.8142 49.1073L59.0483 49.1287C59.102 49.043 59.1471 48.9692 59.1836 48.9085C59.1964 48.8872 59.2082 48.8675 59.2188 48.8495Z" fill="#F3B95F"/>
<path d="M6.87926 28.5596L6.81786 30.2228C6.85445 29.905 6.89824 29.6089 6.94847 29.3391C7.02853 28.9091 7.12784 28.53 7.24834 28.2316L6.8977 28.2449L6.87926 28.5596Z" fill="#F3B95F"/>
<path d="M8.30333 29.2071C8.30265 29.2377 8.30198 29.2688 8.30132 29.3004C8.34128 29.2786 8.3854 29.2631 8.43233 29.2552L8.44929 29.2517C8.40534 29.0792 8.3599 28.9257 8.31388 28.7921C8.31024 28.9185 8.30667 29.0569 8.30333 29.2071Z" fill="#F3B95F"/>
<path d="M9.85645 26.0529C9.71635 26.6422 9.58083 27.2595 9.45561 27.8966C9.5125 27.9167 9.56144 27.9306 9.60367 27.939C9.64228 27.9466 9.66514 27.9472 9.67683 27.9466C9.68055 27.9406 9.68579 27.9309 9.69207 27.9158C9.7147 27.8616 9.73619 27.7722 9.75388 27.629C9.77121 27.4888 9.78282 27.3165 9.79446 27.1045C9.79812 27.0376 9.80177 26.9673 9.80559 26.8936C9.81819 26.6503 9.83274 26.3697 9.85645 26.0529Z" fill="#F3B95F"/>
<path d="M59.1352 28.0088C58.918 26.8956 58.6454 25.8652 58.3565 24.9423C58.3892 25.1737 58.4182 25.4101 58.4429 25.6513C58.5023 26.2245 58.5278 26.7079 58.5482 27.0964L58.5485 27.1025C58.5524 27.1765 58.5561 27.247 58.5599 27.314C58.5717 27.5262 58.5835 27.6985 58.6011 27.8388C58.619 27.9819 58.6406 28.0713 58.6634 28.1255C58.6698 28.1408 58.6751 28.1506 58.6789 28.1566C58.6905 28.1572 58.7135 28.1566 58.7526 28.1489C58.8443 28.1307 58.9677 28.0859 59.1352 28.0088Z" fill="#F3B95F"/>
<path d="M15.1438 24.6261C15.8097 22.8663 17.4725 21.9311 18.8136 22.4096C20.12 22.8758 20.7597 24.5619 20.171 26.2756H20.1683L20.1187 26.4071C19.4552 28.1669 17.7924 29.1017 16.4563 28.6234C15.1208 28.1453 14.4779 26.3862 15.1438 24.6261Z" fill="#F3B95F"/>
<path d="M20.3159 19.6732C20.6163 18.8815 21.3452 18.4984 21.8952 18.6944C22.4449 18.8903 22.745 19.6303 22.445 20.4233C22.1482 21.2154 21.4163 21.5965 20.8613 21.4135C20.5885 21.3234 20.379 21.0941 20.2727 20.7749C20.1663 20.4557 20.1694 20.0595 20.3159 19.6732Z" fill="#F3B95F"/>
<path d="M9.50133 12.0799C8.15008 11.954 6.78766 11.9862 5.44326 12.1761C5.03029 12.2427 4.08159 12.4887 3.16631 12.8104C2.87999 12.911 2.60189 13.0173 2.34844 13.1257H3.75126C3.76581 13.1242 3.78059 13.1234 3.79555 13.1234L5.60492 13.1234C6.13002 13.1257 6.63314 13.3297 7.00475 13.6914C7.37639 14.0531 7.58639 14.5432 7.58874 15.0551L7.58875 15.0569L7.58875 16.4711L7.72875 15.9564L7.92461 15.5683L7.78303 15.7934L8.7623 13.405L8.81185 13.304L9.50133 12.0799Z" fill="#F3B95F"/>
<path d="M62.8468 12.1742C61.5616 11.994 60.2601 11.9574 58.9676 12.0646L59.3802 12.7942L59.425 12.886L60.4043 15.2101L60.4515 15.3364L60.7551 16.3391L60.7551 14.8971C60.7582 14.3847 60.9694 13.8945 61.3422 13.5333C61.715 13.1721 62.2198 12.9691 62.7455 12.9684H65.5491C65.412 12.9154 65.2708 12.8633 65.1274 12.8127C64.2151 12.4905 63.2666 12.2433 62.8468 12.1742Z" fill="#F3B95F"/>
<path d="M21.247 59.8458L14.5428 57.1049L13.4167 59.1571L20.2389 61.9468L21.247 59.8458Z" fill="#F3B95F"/>
<path d="M78.6488 12.9248H83.6211L86.829 19.5973H86.9574L90.1653 12.9248H95.1376L89.1067 24.1847V29.3495H84.6797V24.1847L78.6488 12.9248Z" fill="#F3B95F"/>
<path d="M96.5912 29.3495V12.9248H108.429V16.5177H101.05V19.3407H107.819V22.9336H101.05V25.7566H108.396V29.3495H96.5912Z" fill="#F3B95F"/>
<path d="M110.64 29.3495V12.9248H115.099V25.7566H121.74V29.3495H110.64Z" fill="#F3B95F"/>
<path d="M123.542 29.3495V12.9248H128.001V25.7566H134.642V29.3495H123.542Z" fill="#F3B95F"/>
<path d="M151.716 21.1371C151.716 22.9656 151.36 24.5081 150.649 25.7646C149.938 27.0157 148.978 27.9647 147.77 28.6116C146.562 29.2532 145.214 29.574 143.728 29.574C142.231 29.574 140.878 29.2505 139.67 28.6036C138.467 27.9513 137.51 26.9996 136.799 25.7485C136.093 24.4921 135.74 22.9549 135.74 21.1371C135.74 19.3086 136.093 17.7688 136.799 16.5177C137.51 15.2612 138.467 14.3122 139.67 13.6706C140.878 13.0237 142.231 12.7002 143.728 12.7002C145.214 12.7002 146.562 13.0237 147.77 13.6706C148.978 14.3122 149.938 15.2612 150.649 16.5177C151.36 17.7688 151.716 19.3086 151.716 21.1371ZM147.128 21.1371C147.128 20.1533 146.997 19.3246 146.735 18.651C146.479 17.9719 146.097 17.4587 145.589 17.1111C145.086 16.7583 144.466 16.5818 143.728 16.5818C142.99 16.5818 142.367 16.7583 141.859 17.1111C141.357 17.4587 140.975 17.9719 140.713 18.651C140.456 19.3246 140.328 20.1533 140.328 21.1371C140.328 22.1209 140.456 22.9523 140.713 23.6313C140.975 24.305 141.357 24.8182 141.859 25.1711C142.367 25.5186 142.99 25.6924 143.728 25.6924C144.466 25.6924 145.086 25.5186 145.589 25.1711C146.097 24.8182 146.479 24.305 146.735 23.6313C146.997 22.9523 147.128 22.1209 147.128 21.1371Z" fill="#F3B95F"/>
<path d="M156.913 29.3495L152.069 12.9248H157.041L159.287 23.0298H159.415L162.077 12.9248H165.991L168.654 23.0619H168.782L171.028 12.9248H176L171.156 29.3495H166.889L164.098 20.1747H163.97L161.179 29.3495H156.913Z" fill="#F3B95F"/>
<path d="M85.9117 42.2545C85.8791 41.8471 85.7263 41.5294 85.4534 41.3012C85.1845 41.0731 84.7752 40.9591 84.2252 40.9591C83.8749 40.9591 83.5877 41.0018 83.3637 41.0874C83.1437 41.1689 82.9808 41.2809 82.8748 41.4235C82.7689 41.566 82.7139 41.729 82.7099 41.9123C82.7017 42.063 82.7282 42.1995 82.7893 42.3217C82.8545 42.4398 82.9563 42.5478 83.0948 42.6455C83.2333 42.7392 83.4105 42.8248 83.6264 42.9021C83.8423 42.9795 84.0989 43.0488 84.3963 43.1099L85.4229 43.3299C86.1154 43.4765 86.7081 43.67 87.201 43.9104C87.6939 44.1507 88.0971 44.4338 88.4108 44.7597C88.7245 45.0815 88.9546 45.444 89.1013 45.8473C89.252 46.2506 89.3294 46.6905 89.3335 47.1672C89.3294 47.99 89.1237 48.6866 88.7163 49.2569C88.309 49.8272 87.7264 50.261 86.9688 50.5584C86.2152 50.8558 85.3088 51.0044 84.2497 51.0044C83.162 51.0044 82.2129 50.8435 81.4023 50.5217C80.5957 50.1999 79.9684 49.705 79.5203 49.0369C79.0763 48.3648 78.8522 47.5053 78.8482 46.4584H82.0744C82.0948 46.8413 82.1905 47.1631 82.3616 47.4238C82.5327 47.6845 82.773 47.8821 83.0826 48.0165C83.3963 48.1509 83.769 48.2181 84.2008 48.2181C84.5633 48.2181 84.8668 48.1733 85.1112 48.0837C85.3556 47.9941 85.541 47.8698 85.6673 47.711C85.7935 47.5521 85.8587 47.3708 85.8628 47.1672C85.8587 46.9757 85.7956 46.8087 85.6734 46.6661C85.5552 46.5195 85.3597 46.3891 85.0868 46.275C84.8139 46.1569 84.4452 46.0469 83.9808 45.9451L82.7343 45.6762C81.6263 45.4359 80.7525 45.0347 80.113 44.4725C79.4775 43.9063 79.1618 43.1343 79.1659 42.1567C79.1618 41.3624 79.3736 40.6678 79.8014 40.0731C80.2332 39.4743 80.8299 39.0078 81.5917 38.6738C82.3575 38.3398 83.2354 38.1728 84.2252 38.1728C85.2355 38.1728 86.1092 38.3418 86.8466 38.6799C87.5839 39.018 88.1521 39.4946 88.5513 40.1097C88.9546 40.7208 89.1583 41.4357 89.1624 42.2545H85.9117Z" fill="white"/>
<path d="M90.6258 38.3438H94.8541L97.7626 45.4318H97.9093L100.818 38.3438H105.046V50.8578H101.722V43.6232H101.624L98.8381 50.76H96.8339L94.0476 43.5743H93.9498V50.8578H90.6258V38.3438Z" fill="white"/>
<path d="M116.83 42.2545C116.797 41.8471 116.645 41.5294 116.372 41.3012C116.103 41.0731 115.693 40.9591 115.143 40.9591C114.793 40.9591 114.506 41.0018 114.282 41.0874C114.062 41.1689 113.899 41.2809 113.793 41.4235C113.687 41.566 113.632 41.729 113.628 41.9123C113.62 42.063 113.646 42.1995 113.708 42.3217C113.773 42.4398 113.875 42.5478 114.013 42.6455C114.152 42.7392 114.329 42.8248 114.545 42.9021C114.761 42.9795 115.017 43.0488 115.315 43.1099L116.341 43.3299C117.034 43.4765 117.626 43.67 118.119 43.9104C118.612 44.1507 119.015 44.4338 119.329 44.7597C119.643 45.0815 119.873 45.444 120.019 45.8473C120.17 46.2506 120.248 46.6905 120.252 47.1672C120.248 47.99 120.042 48.6866 119.635 49.2569C119.227 49.8272 118.645 50.261 117.887 50.5584C117.133 50.8558 116.227 51.0044 115.168 51.0044C114.08 51.0044 113.131 50.8435 112.32 50.5217C111.514 50.1999 110.887 49.705 110.439 49.0369C109.994 48.3648 109.77 47.5053 109.766 46.4584H112.993C113.013 46.8413 113.109 47.1631 113.28 47.4238C113.451 47.6845 113.691 47.8821 114.001 48.0165C114.314 48.1509 114.687 48.2181 115.119 48.2181C115.482 48.2181 115.785 48.1733 116.029 48.0837C116.274 47.9941 116.459 47.8698 116.585 47.711C116.712 47.5521 116.777 47.3708 116.781 47.1672C116.777 46.9757 116.714 46.8087 116.592 46.6661C116.473 46.5195 116.278 46.3891 116.005 46.275C115.732 46.1569 115.363 46.0469 114.899 45.9451L113.653 45.6762C112.545 45.4359 111.671 45.0347 111.031 44.4725C110.396 43.9063 110.08 43.1343 110.084 42.1567C110.08 41.3624 110.292 40.6678 110.72 40.0731C111.151 39.4743 111.748 39.0078 112.51 38.6738C113.276 38.3398 114.154 38.1728 115.143 38.1728C116.154 38.1728 117.027 38.3418 117.765 38.6799C118.502 39.018 119.07 39.4946 119.47 40.1097C119.873 40.7208 120.077 41.4357 120.081 42.2545H116.83Z" fill="white"/>
<path d="M121.202 41.0813V38.3438H132.078V41.0813H128.314V50.8578H124.966V41.0813H121.202Z" fill="white"/>
<path d="M140.762 38.3438H144.16V46.3606C144.16 47.3138 143.932 48.1387 143.475 48.8353C143.023 49.5278 142.392 50.0634 141.581 50.4423C140.771 50.8171 139.83 51.0044 138.758 51.0044C137.679 51.0044 136.734 50.8171 135.923 50.4423C135.112 50.0634 134.481 49.5278 134.029 48.8353C133.581 48.1387 133.357 47.3138 133.357 46.3606V38.3438H136.754V46.0673C136.754 46.4543 136.84 46.8005 137.011 47.1061C137.182 47.4075 137.418 47.6438 137.72 47.8148C138.025 47.9859 138.371 48.0715 138.758 48.0715C139.149 48.0715 139.496 47.9859 139.797 47.8148C140.099 47.6438 140.335 47.4075 140.506 47.1061C140.677 46.8005 140.762 46.4543 140.762 46.0673V38.3438Z" fill="white"/>
<path d="M150.589 50.8578H145.774V38.3438H150.541C151.828 38.3438 152.94 38.5944 153.877 39.0954C154.818 39.5924 155.543 40.3093 156.052 41.2463C156.565 42.1791 156.822 43.2973 156.822 44.6008C156.822 45.9044 156.567 47.0246 156.058 47.9615C155.549 48.8943 154.828 49.6113 153.895 50.1123C152.962 50.6093 151.86 50.8578 150.589 50.8578ZM149.172 47.9737H150.467L152.05 47.6743C152.49 47.4747 152.824 47.1305 153.052 46.6417C153.284 46.1528 153.4 45.4726 153.4 44.6008C153.4 43.7291 153.282 43.0488 153.046 42.56C152.814 42.0711 152.471 41.7269 152.019 41.5273C151.571 41.3277 151.021 41.2279 150.369 41.2279H149.172V47.9737Z" fill="white"/>
<path d="M161.791 38.3438V50.8578H158.394V38.3438H161.791Z" fill="white"/>
<path d="M175.524 44.6008C175.524 45.994 175.253 47.1692 174.711 48.1265C174.17 49.0797 173.438 49.8027 172.518 50.2956C171.597 50.7845 170.571 51.0289 169.438 51.0289C168.298 51.0289 167.267 50.7824 166.346 50.2895C165.43 49.7926 164.701 49.0675 164.159 48.1143C163.621 47.157 163.352 45.9858 163.352 44.6008C163.352 43.2077 163.621 42.0345 164.159 41.0813C164.701 40.124 165.43 39.4009 166.346 38.9121C167.267 38.4192 168.298 38.1728 169.438 38.1728C170.571 38.1728 171.597 38.4192 172.518 38.9121C173.438 39.4009 174.17 40.124 174.711 41.0813C175.253 42.0345 175.524 43.2077 175.524 44.6008ZM172.029 44.6008C172.029 43.8513 171.929 43.2199 171.73 42.7066C171.534 42.1893 171.243 41.7982 170.856 41.5334C170.473 41.2646 170 41.1302 169.438 41.1302C168.876 41.1302 168.402 41.2646 168.015 41.5334C167.632 41.7982 167.34 42.1893 167.141 42.7066C166.945 43.2199 166.847 43.8513 166.847 44.6008C166.847 45.3503 166.945 45.9838 167.141 46.5011C167.34 47.0144 167.632 47.4055 168.015 47.6743C168.402 47.9391 168.876 48.0715 169.438 48.0715C170 48.0715 170.473 47.9391 170.856 47.6743C171.243 47.4055 171.534 47.0144 171.73 46.5011C171.929 45.9838 172.029 45.3503 172.029 44.6008Z" fill="white"/>
</svg>
