<svg width="200" height="71" viewBox="0 0 200 71" fill="none" xmlns="http://www.w3.org/2000/svg">
<path fill-rule="evenodd" clip-rule="evenodd" d="M6.0468 12.6482C7.82668 12.3965 9.63309 12.3768 11.4183 12.5894C11.6748 12.62 11.8574 12.8475 11.826 13.0977C11.7947 13.3478 11.5614 13.5258 11.3049 13.4952C11.1357 13.4751 10.9664 13.4571 10.797 13.4413C9.26146 13.2984 7.71325 13.335 6.18552 13.5506C5.71624 13.6263 4.63817 13.9057 3.59808 14.2711C3.27272 14.3854 2.9567 14.5061 2.66868 14.6293C2.49726 14.7026 2.33576 14.7767 2.18812 14.8509C1.86751 15.0118 1.65785 15.1509 1.54321 15.2542C1.41733 19.2802 1.71953 23.2993 2.2099 27.2987L7.64357 27.9479C7.8578 27.9725 8.02106 28.1347 8.05156 28.3331C8.05759 28.3724 8.05842 28.4131 8.05342 28.4545C8.04989 28.4837 8.04361 28.5119 8.03486 28.5389C7.96857 28.7436 7.76063 28.8802 7.53394 28.8541L1.61592 28.1733C1.40198 28.1487 1.23292 27.9848 1.2064 27.7764C0.669967 23.5597 0.471622 19.3088 0.613167 15.0621C0.616125 14.9734 0.64558 14.8874 0.697921 14.8147C0.91769 14.5096 1.33837 14.2511 1.75978 14.0395C2.20514 13.816 2.74175 13.602 3.28093 13.4126C4.3541 13.0356 5.49432 12.7365 6.0382 12.6495L6.0468 12.6482Z" fill="#F3B95F"/>
<path fill-rule="evenodd" clip-rule="evenodd" d="M3.53384 17.2573C3.8184 16.823 4.26858 16.4631 4.83479 16.4631C5.4035 16.4631 5.84876 16.8259 6.1276 17.2613C6.41149 17.7046 6.5737 18.2892 6.5737 18.9122C6.5737 19.5347 6.41238 20.1203 6.12698 20.5648C5.8457 21.0029 5.39731 21.3639 4.82406 21.3639C4.25081 21.3639 3.80243 21.0029 3.52114 20.5648C3.23574 20.1203 3.07443 19.5347 3.07443 18.9122C3.07443 18.2859 3.24363 17.7002 3.53384 17.2573Z" fill="#F3B95F"/>
<path fill-rule="evenodd" clip-rule="evenodd" d="M4.2628 14.6293H2.66868H2.25912L2.25566 14.6293C1.65857 14.6336 1.03541 14.6508 0.613167 15.0621C0.190887 15.4735 0.0035468 16.2461 8.21713e-06 16.8279L0 26.6437L4.72362e-06 26.6457C0.00268656 27.2276 0.241977 27.7846 0.665249 28.1952C1.08848 28.6056 1.66126 28.8363 2.25842 28.8372H6.36714L6.37061 28.8372C6.96756 28.8329 7.53894 28.5998 7.96077 28.1882C7.99971 28.1503 8.03709 28.111 8.07286 28.0706C8.42462 27.6736 8.62116 27.1659 8.62357 26.6379L8.62357 26.6359L8.62357 23.0128L8.62358 18.4292L8.62358 16.8228L8.62357 16.8208C8.6209 16.2393 8.38226 15.6826 7.95994 15.2718C7.53766 14.861 6.96593 14.6293 6.36922 14.6267L4.31313 14.6267C4.29612 14.6267 4.27933 14.6276 4.2628 14.6293ZM4.36346 15.5392C4.34692 15.5409 4.33013 15.5418 4.31313 15.5418H2.26097C1.90976 15.5448 1.57402 15.6819 1.32616 15.9234C1.07827 16.1649 0.93819 16.4913 0.935781 16.8321L1.2064 26.7249C1.20823 27.0647 1.07742 27.3079 1.32515 27.5482C1.57303 27.7886 1.90883 27.924 2.25934 27.9247H6.36525C6.7161 27.9217 7.05147 27.7846 7.29888 27.5432C7.5464 27.3017 7.68598 26.9753 7.68779 26.6348V16.8239C7.68598 16.4841 7.54642 16.1585 7.29905 15.9178C7.05163 15.6771 6.71636 15.541 6.36601 15.5392H4.36346Z" fill="#F3B95F"/>
<path d="M3.37413 24.732C3.37413 25.8302 3.94796 26.7249 4.65319 26.7249C5.35842 26.7249 5.93494 25.825 5.93494 24.732C5.93494 23.6391 5.37183 22.7366 4.65319 22.7366C3.93456 22.7366 3.37413 23.6287 3.37413 24.732Z" fill="#F3B95F"/>
<path fill-rule="evenodd" clip-rule="evenodd" d="M3.51773 15.8786C3.9053 15.7853 4.30821 15.7684 4.70268 15.829C5.10204 15.8903 5.48451 16.0298 5.82697 16.2391C6.16944 16.4484 6.4648 16.7231 6.69514 17.0467C6.92548 17.3703 7.08601 17.736 7.16696 18.1218C7.24791 18.5076 7.2476 18.9054 7.16603 19.291C7.08446 19.6767 6.92335 20.0422 6.69249 20.3654C6.46164 20.6887 6.16584 20.9629 5.82304 21.1717C5.4845 21.3779 5.10704 21.5159 4.71295 21.5778C4.32773 21.6595 3.92982 21.6675 3.54137 21.6014C3.14798 21.5344 2.77195 21.3927 2.43475 21.1844C2.09755 20.976 1.80577 20.705 1.57611 20.3868C1.34645 20.0686 1.18343 19.7095 1.09641 19.3299L1.09207 19.311C0.950396 18.5407 1.12803 17.7472 1.58525 17.1037C2.03964 16.4642 2.73382 16.0245 3.51773 15.8786ZM4.55706 16.7304C4.28239 16.6882 4.00177 16.7006 3.73219 16.7669C3.72261 16.7693 3.71296 16.7713 3.70324 16.7731C3.1556 16.8723 2.67082 17.1781 2.35444 17.6234C2.03997 18.066 1.9171 18.6108 2.01184 19.1403C2.07251 19.3991 2.1844 19.6442 2.34135 19.8616C2.50022 20.0817 2.70215 20.2693 2.93565 20.4136C3.16916 20.5579 3.42966 20.6561 3.70228 20.7025C3.9749 20.7489 4.25425 20.7426 4.52436 20.684C4.53415 20.6818 4.544 20.68 4.5539 20.6785C4.82864 20.6367 5.09176 20.5412 5.32736 20.3977C5.56295 20.2543 5.7661 20.0658 5.92458 19.8439C6.08306 19.622 6.19359 19.3712 6.24954 19.1067C6.30549 18.8422 6.3057 18.5694 6.25018 18.3048C6.19465 18.0401 6.08452 17.7892 5.9264 17.567C5.76827 17.3449 5.56542 17.1562 5.33006 17.0123C5.0947 16.8685 4.83173 16.7726 4.55706 16.7304Z" fill="#F3B95F"/>
<path fill-rule="evenodd" clip-rule="evenodd" d="M3.34695 23.08C3.62772 22.6392 4.07621 22.2805 4.65341 22.2805C5.23237 22.2805 5.68108 22.6438 5.9613 23.084C6.245 23.5296 6.40305 24.1149 6.40305 24.7322C6.40305 25.3517 6.24063 25.9365 5.95527 26.3807C5.67461 26.8176 5.22658 27.1814 4.65341 27.1814C4.08096 27.1814 3.63337 26.8198 3.35278 26.3825C3.06787 25.9385 2.90646 25.3536 2.90646 24.7322C2.90646 24.1107 3.06335 23.5251 3.34695 23.08Z" fill="#F3B95F"/>
<path fill-rule="evenodd" clip-rule="evenodd" d="M3.29272 21.9865C3.67928 21.8982 4.08007 21.8857 4.4717 21.9498C4.86716 22.0144 5.24527 22.1558 5.58351 22.3656C5.92175 22.5754 6.21325 22.8492 6.44059 23.1709C6.66794 23.4927 6.82648 23.8556 6.90673 24.2383C6.98698 24.6209 6.98729 25.0154 6.90763 25.3981C6.82798 25.7809 6.67 26.1441 6.44315 26.4661C6.21631 26.7882 5.92524 27.0625 5.58732 27.2727C5.25282 27.4809 4.87916 27.6221 4.48816 27.6882C3.70591 27.8553 2.8872 27.7155 2.2099 27.2987C1.52914 26.8798 1.04669 26.215 0.8688 25.4501C0.865634 25.4365 0.863114 25.4228 0.861242 25.4089C0.724103 24.6435 0.901169 23.856 1.35466 23.216C1.80969 22.5739 2.5061 22.1324 3.29272 21.9865ZM4.31693 22.8497C4.04494 22.8052 3.76653 22.8144 3.49828 22.8768L3.47565 22.882C2.9268 22.9817 2.44105 23.2881 2.12451 23.7348C1.808 24.1814 1.6862 24.7316 1.78548 25.2651C1.91178 25.7861 2.24332 26.2402 2.70933 26.527C3.18079 26.8172 3.75148 26.9136 4.29612 26.795C4.30404 26.7933 4.312 26.7918 4.31999 26.7905C4.59191 26.7456 4.85171 26.648 5.08395 26.5035C5.31618 26.359 5.51608 26.1705 5.67181 25.9495C5.82753 25.7284 5.93591 25.4792 5.99054 25.2166C6.04518 24.9541 6.04497 24.6836 5.98993 24.4211C5.93488 24.1586 5.82612 23.9096 5.67005 23.6887C5.51398 23.4679 5.31379 23.2798 5.08133 23.1356C4.84887 22.9914 4.58891 22.8942 4.31693 22.8497Z" fill="#F3B95F"/>
<path fill-rule="evenodd" clip-rule="evenodd" d="M71.4168 13.5486C69.9563 13.3439 68.4774 13.3023 67.0087 13.424C66.7715 13.4437 66.5345 13.4676 66.298 13.4958C66.0415 13.5264 65.8081 13.3484 65.7768 13.0983C65.7454 12.8482 65.9279 12.6206 66.1844 12.59C67.9695 12.3773 69.7756 12.3962 71.5555 12.6461L71.566 12.6476C72.1158 12.7372 73.2556 13.0375 74.3269 13.4157C74.865 13.6056 75.4 13.8201 75.8437 14.0443C76.2635 14.2564 76.6828 14.5159 76.9011 14.8227C76.9524 14.8949 76.9813 14.9799 76.9842 15.0677C77.1276 19.3134 76.9311 23.5634 76.3964 27.7794C76.37 27.9879 76.2009 28.1519 75.9869 28.1765L70.0501 28.8599C70.0501 28.8599 69.94 28.7316 69.8687 28.5649C69.8423 28.5032 69.8213 28.4363 69.8131 28.3686C69.7973 28.238 69.7627 28.1388 69.7698 28.0695C69.7763 28.0061 69.8177 27.9678 69.9404 27.9537L75.5119 27.3123C76.0007 23.3132 76.182 19.2841 76.0542 15.2585C75.941 15.1554 75.7328 15.016 75.4132 14.8545C75.1434 14.7182 74.8268 14.5818 74.4876 14.4506C74.3318 14.3904 74.1713 14.3312 74.0084 14.2737C72.9717 13.9078 71.8939 13.6271 71.4168 13.5486Z" fill="#F3B95F"/>
<path d="M69.5179 55.5995L69.5206 55.4404L69.534 55.2839L69.5528 55.1326L69.5769 54.9891L69.6117 54.8561L69.652 54.7361L69.6949 54.6318L69.7458 54.5431L69.7995 54.47L69.8558 54.4205L69.9148 54.3892L69.9738 54.3787L70.0354 54.3892L70.0944 54.4205L70.1507 54.47L70.2044 54.5431L70.2553 54.6318L70.3009 54.7361L70.3384 54.8561L70.3706 54.9891L70.3974 55.1326L70.4189 55.2839L70.4296 55.4404L70.435 55.5995L70.4296 55.7586L70.4189 55.9151L70.3974 56.0664L70.3706 56.2099L70.3384 56.3429L70.3009 56.4629L70.2553 56.5672L70.2044 56.6559L70.1507 56.729L70.0944 56.7785L70.0354 56.8098L69.9738 56.8203L69.9148 56.8098L69.8558 56.7785L69.7995 56.729L69.7458 56.6559L69.6949 56.5672L69.652 56.4629L69.6117 56.3429L69.5769 56.2099L69.5528 56.0664L69.534 55.9151L69.5206 55.7586L69.5179 55.5995Z" fill="#F3B95F"/>
<path d="M9.34843 54.277L9.35379 54.1179L9.36452 53.9614L9.38328 53.8101L9.4101 53.6666L9.44496 53.5336L9.4825 53.4162L9.52808 53.3093L9.57903 53.2206L9.63266 53.1502L9.68897 53.098L9.74797 53.0667L9.80964 53.0563L9.86863 53.0667L9.92762 53.098L9.98394 53.1502L10.0376 53.2206L10.0885 53.3093L10.1208 53.3898L10.1314 53.4162L10.1716 53.5336L10.2038 53.6666L10.2333 53.8101L10.2521 53.9614L10.2526 53.9692L10.2628 54.1179L10.2655 54.277L10.2628 54.4361L10.2521 54.5953L10.245 54.6523L10.2333 54.7466L10.2038 54.8874L10.1716 55.0204L10.1355 55.1304L10.1314 55.143L10.0885 55.2474L10.0376 55.3361L9.98394 55.4065L9.92762 55.4587L9.86863 55.4874L9.80964 55.5004L9.74797 55.4874L9.68897 55.4587L9.63266 55.4065L9.57903 55.3361L9.52808 55.2474L9.4825 55.143L9.44496 55.0204L9.4101 54.8874L9.38328 54.7466L9.36452 54.5953L9.35379 54.4361L9.34843 54.277Z" fill="#F3B95F"/>
<path d="M9.49595 55.177L8.52793 52.7981L8.50648 52.7433L8.48235 52.6937L8.39654 52.472L8.37241 52.4094L8.23833 52.0181L8.21688 51.9477L8.04795 51.3765L8.02918 51.2982L7.83879 50.5339L7.82002 50.4505L7.61891 49.4775L7.60282 49.3888L7.39903 48.1967L7.38831 48.1028L7.19524 46.676L7.2596 46.9916L7.1872 46.5821L7.01826 44.9075L7.05848 45.1683L7.01022 44.8136L6.87614 42.8728L6.89491 43.0476L6.87078 42.7815L6.78229 40.567L6.78497 40.6165L6.77961 40.4809L6.74743 37.9767V37.8802V37.8959L6.78497 35.0866L6.7957 34.8518L6.78497 35.0109L6.90028 31.886L6.93513 31.5312L6.90564 31.8155L7.10943 28.3593L7.11479 28.2941L7.42048 24.4962L7.50897 23.9979L7.55188 23.8727L7.44193 24.3031L7.91924 21.0791L8.08281 20.5261L8.13644 20.44L7.97555 20.8104L8.62358 18.4292L8.78267 17.8446L9.00523 17.4037L8.84435 17.6594L9.95716 14.9465L10.0135 14.8318L10.797 13.4413L11.4025 12.3668L11.4507 12.2937L13.0972 10.0739L13.1347 10.0296L15.0144 8.04453L15.0466 8.01583L17.1274 6.26816L17.1542 6.24729L19.4147 4.72916L19.4389 4.71351L21.8576 3.4171L21.8763 3.40666L24.4264 2.32937L24.4398 2.32154L27.1106 1.45031L29.8457 0.790367L32.6639 0.328667L35.4955 0.0678203L38.3272 0H38.3379L41.1481 0.11999H41.1588L45.1033 0.532128L48.7581 1.16338L52.0912 2.00331L55.1266 3.06495L57.8725 4.35093L60.3072 5.84037L62.4926 7.57761L62.5248 7.61152L64.4072 9.55223L66.067 11.7746L66.1153 11.8451L67.0087 13.424L67.4775 14.2527L67.5284 14.357L68.6413 16.9968L68.6949 17.1403L69.0399 18.2792L69.5664 20.0174L69.4538 19.7514L69.612 20.2L70.2502 23.3171L70.1536 22.9885L70.2823 23.5232L70.6953 26.8829L70.6416 26.5803L70.6711 26.7264L70.7141 27.089L70.9071 30.6965L70.8991 30.5817L70.9098 30.7461L70.9125 30.8817L70.8964 34.737L70.8883 34.9274L70.8749 35.0892L70.8937 34.8648L70.7221 38.728L70.6792 39.114L70.7167 38.8115L70.4674 42.3303L70.1777 45.3196L70.1697 45.39L69.8667 47.902L69.8587 47.9646L69.5717 49.9653L69.5637 50.0227L69.3197 51.486L69.3116 51.5356L69.1454 52.4355L69.1373 52.4772L69.073 52.7824L68.8719 53.2963L68.9925 53.0746L68.6922 53.8545L70.0437 54.3919L69.9096 56.8073L67.6411 55.9048L67.6786 55.9152L67.6169 55.8917L67.5553 55.8474L67.499 55.7796L67.4453 55.6935L67.3971 55.5891L67.3542 55.4665L67.3166 55.3309L67.2941 55.2061L67.2898 55.1822L67.2684 55.0257L67.255 54.8614L67.2496 54.697L67.255 54.5301L67.2684 54.3684L67.2898 54.2093L67.3166 54.0632L67.3269 54.0261L67.3542 53.9276L67.3971 53.805L67.4453 53.698L67.499 53.6119L67.389 53.8232L67.5668 53.3614L68.3007 51.4547L68.3275 51.3321L68.3532 51.1931L68.4857 50.4765L68.5167 50.2913L68.7217 49.0654L68.9979 47.122L69.2956 44.6779L69.3518 44.0958L69.4396 43.1856L69.5508 42.0345L69.5771 41.7616L69.8158 38.4019L69.982 34.6431L69.9824 34.5477L69.9943 31.8084L69.9981 30.9469L69.9953 30.8953L69.8687 28.5649L69.8131 27.5402L69.4296 24.3866L69.0399 22.4909L68.829 21.4651L68.0058 18.7523L66.9466 16.2377L65.6327 13.9214L64.0586 11.8086L62.2111 9.90437L60.0874 8.21147L57.6794 6.73508L54.9791 5.47257L51.9813 4.42658L48.6777 3.59447L45.063 2.97105L41.132 2.55891L38.3299 2.44153L35.5143 2.50935L32.7014 2.76759L29.9234 3.22407L27.2017 3.8788L24.166 4.91082L23.2414 5.30335L21.5319 6.08481L19.6319 7.10287L17.3929 8.60796L15.3389 10.3322L13.4967 12.2755L11.8932 14.4405L10.5524 16.8116L9.50131 19.3783L8.75586 22.1198L8.62357 23.0128L8.31341 25.1065L8.07286 28.0706L8.05156 28.3331L8.03486 28.5389L8.01577 28.7741L7.89193 30.8871L7.8383 31.8023L7.81734 32.1599L7.74757 34.0489L7.70472 35.2092L7.66986 37.935L7.68352 39.0545L7.69936 40.3531L7.78516 42.479L7.83523 43.1973L7.89872 44.1083L7.91387 44.3258L8.07208 45.9065L8.24638 47.242L8.43408 48.3428L8.61642 49.2297L8.78804 49.9131L8.93283 50.4087L9.04278 50.7348L9.10981 50.9017L9.13126 50.9513L9.14735 50.9878L10.1234 53.3824L10.1208 53.3898L9.49595 55.177Z" fill="#F3B95F"/>
<path fill-rule="evenodd" clip-rule="evenodd" d="M71.4168 13.5486C69.9563 13.3439 68.4774 13.3023 67.0087 13.424C66.7715 13.4437 66.5345 13.4676 66.298 13.4958C66.0415 13.5264 65.8081 13.3484 65.7768 13.0983C65.7454 12.8482 65.9279 12.6206 66.1844 12.59C67.9695 12.3773 69.7756 12.3962 71.5555 12.6461L71.566 12.6476C72.1158 12.7372 73.2556 13.0375 74.3269 13.4157C74.865 13.6056 75.4 13.8201 75.8437 14.0443C76.2635 14.2564 76.6828 14.5159 76.9011 14.8227C76.9524 14.8949 76.9813 14.9799 76.9842 15.0677C77.1276 19.3134 76.9311 23.5634 76.3964 27.7794C76.37 27.9879 76.2009 28.1519 75.9869 28.1765L70.0501 28.8599C70.0501 28.8599 69.94 28.7316 69.8687 28.5649C69.8423 28.5032 69.8213 28.4363 69.8131 28.3686C69.7973 28.238 69.7627 28.1388 69.7698 28.0695C69.7763 28.0061 69.8177 27.9678 69.9404 27.9537L75.5119 27.3123C76.0007 23.3132 76.182 19.2841 76.0542 15.2585C75.941 15.1554 75.7328 15.016 75.4132 14.8545C75.1434 14.7182 74.8268 14.5818 74.4876 14.4506C74.3318 14.3904 74.1713 14.3312 74.0084 14.2737C72.9717 13.9078 71.8939 13.6271 71.4168 13.5486Z" fill="#F3B95F"/>
<path d="M69.5179 55.5995L69.5206 55.4404L69.534 55.2839L69.5528 55.1326L69.5769 54.9891L69.6117 54.8561L69.652 54.7361L69.6949 54.6318L69.7458 54.5431L69.7995 54.47L69.8558 54.4205L69.9148 54.3892L69.9738 54.3787L70.0354 54.3892L70.0944 54.4205L70.1507 54.47L70.2044 54.5431L70.2553 54.6318L70.3009 54.7361L70.3384 54.8561L70.3706 54.9891L70.3974 55.1326L70.4189 55.2839L70.4296 55.4404L70.435 55.5995L70.4296 55.7586L70.4189 55.9151L70.3974 56.0664L70.3706 56.2099L70.3384 56.3429L70.3009 56.4629L70.2553 56.5672L70.2044 56.6559L70.1507 56.729L70.0944 56.7785L70.0354 56.8098L69.9738 56.8203L69.9148 56.8098L69.8558 56.7785L69.7995 56.729L69.7458 56.6559L69.6949 56.5672L69.652 56.4629L69.6117 56.3429L69.5769 56.2099L69.5528 56.0664L69.534 55.9151L69.5206 55.7586L69.5179 55.5995Z" fill="#F3B95F"/>
<path d="M9.34843 54.277L9.35379 54.1179L9.36452 53.9614L9.38328 53.8101L9.4101 53.6666L9.44496 53.5336L9.4825 53.4162L9.52808 53.3093L9.57903 53.2206L9.63266 53.1502L9.68897 53.098L9.74797 53.0667L9.80964 53.0563L9.86863 53.0667L9.92762 53.098L9.98394 53.1502L10.0376 53.2206L10.0885 53.3093L10.1208 53.3898L10.1314 53.4162L10.1716 53.5336L10.2038 53.6666L10.2333 53.8101L10.2521 53.9614L10.2526 53.9692L10.2628 54.1179L10.2655 54.277L10.2628 54.4361L10.2521 54.5953L10.245 54.6523L10.2333 54.7466L10.2038 54.8874L10.1716 55.0204L10.1355 55.1304L10.1314 55.143L10.0885 55.2474L10.0376 55.3361L9.98394 55.4065L9.92762 55.4587L9.86863 55.4874L9.80964 55.5004L9.74797 55.4874L9.68897 55.4587L9.63266 55.4065L9.57903 55.3361L9.52808 55.2474L9.4825 55.143L9.44496 55.0204L9.4101 54.8874L9.38328 54.7466L9.36452 54.5953L9.35379 54.4361L9.34843 54.277Z" fill="#F3B95F"/>
<path d="M9.49595 55.177L8.52793 52.7981L8.50648 52.7433L8.48235 52.6937L8.39654 52.472L8.37241 52.4094L8.23833 52.0181L8.21688 51.9477L8.04795 51.3765L8.02918 51.2982L7.83879 50.5339L7.82002 50.4505L7.61891 49.4775L7.60282 49.3888L7.39903 48.1967L7.38831 48.1028L7.19524 46.676L7.2596 46.9916L7.1872 46.5821L7.01826 44.9075L7.05848 45.1683L7.01022 44.8136L6.87614 42.8728L6.89491 43.0476L6.87078 42.7815L6.78229 40.567L6.78497 40.6165L6.77961 40.4809L6.74743 37.9767V37.8802V37.8959L6.78497 35.0866L6.7957 34.8518L6.78497 35.0109L6.90028 31.886L6.93513 31.5312L6.90564 31.8155L7.10943 28.3593L7.11479 28.2941L7.42048 24.4962L7.50897 23.9979L7.55188 23.8727L7.44193 24.3031L7.91924 21.0791L8.08281 20.5261L8.13644 20.44L7.97555 20.8104L8.62358 18.4292L8.78267 17.8446L9.00523 17.4037L8.84435 17.6594L9.95716 14.9465L10.0135 14.8318L10.797 13.4413L11.4025 12.3668L11.4507 12.2937L13.0972 10.0739L13.1347 10.0296L15.0144 8.04453L15.0466 8.01583L17.1274 6.26816L17.1542 6.24729L19.4147 4.72916L19.4389 4.71351L21.8576 3.4171L21.8763 3.40666L24.4264 2.32937L24.4398 2.32154L27.1106 1.45031L29.8457 0.790367L32.6639 0.328667L35.4955 0.0678203L38.3272 0H38.3379L41.1481 0.11999H41.1588L45.1033 0.532128L48.7581 1.16338L52.0912 2.00331L55.1266 3.06495L57.8725 4.35093L60.3072 5.84037L62.4926 7.57761L62.5248 7.61152L64.4072 9.55223L66.067 11.7746L66.1153 11.8451L67.0087 13.424L67.4775 14.2527L67.5284 14.357L68.6413 16.9968L68.6949 17.1403L69.0399 18.2792L69.5664 20.0174L69.4538 19.7514L69.612 20.2L70.2502 23.3171L70.1536 22.9885L70.2823 23.5232L70.6953 26.8829L70.6416 26.5803L70.6711 26.7264L70.7141 27.089L70.9071 30.6965L70.8991 30.5817L70.9098 30.7461L70.9125 30.8817L70.8964 34.737L70.8883 34.9274L70.8749 35.0892L70.8937 34.8648L70.7221 38.728L70.6792 39.114L70.7167 38.8115L70.4674 42.3303L70.1777 45.3196L70.1697 45.39L69.8667 47.902L69.8587 47.9646L69.5717 49.9653L69.5637 50.0227L69.3197 51.486L69.3116 51.5356L69.1454 52.4355L69.1373 52.4772L69.073 52.7824L68.8719 53.2963L68.9925 53.0746L68.6922 53.8545L70.0437 54.3919L69.9096 56.8073L67.6411 55.9048L67.6786 55.9152L67.6169 55.8917L67.5553 55.8474L67.499 55.7796L67.4453 55.6935L67.3971 55.5891L67.3542 55.4665L67.3166 55.3309L67.2941 55.2061L67.2898 55.1822L67.2684 55.0257L67.255 54.8614L67.2496 54.697L67.255 54.5301L67.2684 54.3684L67.2898 54.2093L67.3166 54.0632L67.3269 54.0261L67.3542 53.9276L67.3971 53.805L67.4453 53.698L67.499 53.6119L67.389 53.8232L67.5668 53.3614L68.3007 51.4547L68.3275 51.3321L68.3532 51.1931L68.4857 50.4765L68.5167 50.2913L68.7217 49.0654L68.9979 47.122L69.2956 44.6779L69.3518 44.0958L69.4396 43.1856L69.5508 42.0345L69.5771 41.7616L69.8158 38.4019L69.982 34.6431L69.9824 34.5477L69.9943 31.8084L69.9981 30.9469L69.9953 30.8953L69.8687 28.5649L69.8131 27.5402L69.4296 24.3866L69.0399 22.4909L68.829 21.4651L68.0058 18.7523L66.9466 16.2377L65.6327 13.9214L64.0586 11.8086L62.2111 9.90437L60.0874 8.21147L57.6794 6.73508L54.9791 5.47257L51.9813 4.42658L48.6777 3.59447L45.063 2.97105L41.132 2.55891L38.3299 2.44153L35.5143 2.50935L32.7014 2.76759L29.9234 3.22407L27.2017 3.8788L24.166 4.91082L23.2414 5.30335L21.5319 6.08481L19.6319 7.10287L17.3929 8.60796L15.3389 10.3322L13.4967 12.2755L11.8932 14.4405L10.5524 16.8116L9.50131 19.3783L8.75586 22.1198L8.62357 23.0128L8.31341 25.1065L8.07286 28.0706L8.05156 28.3331L8.03486 28.5389L8.01577 28.7741L7.89193 30.8871L7.8383 31.8023L7.81734 32.1599L7.74757 34.0489L7.70472 35.2092L7.66986 37.935L7.68352 39.0545L7.69936 40.3531L7.78516 42.479L7.83523 43.1973L7.89872 44.1083L7.91387 44.3258L8.07208 45.9065L8.24638 47.242L8.43408 48.3428L8.61642 49.2297L8.78804 49.9131L8.93283 50.4087L9.04278 50.7348L9.10981 50.9017L9.13126 50.9513L9.14735 50.9878L10.1234 53.3824L10.1208 53.3898L9.49595 55.177Z" fill="#F3B95F"/>
<path fill-rule="evenodd" clip-rule="evenodd" d="M18.1188 17.9944C22.103 15.8445 28.5368 13.7129 38.378 13.7129C45.2249 13.7129 50.4835 14.7444 54.4337 16.0951C56.1613 16.6858 57.6386 17.3376 58.8891 17.9909C60.931 19.0576 62.365 20.1266 63.2942 20.9365C63.2997 20.9413 63.3052 20.9461 63.3106 20.9508C63.7749 21.3566 64.1116 21.6962 64.3337 21.9366C64.4448 22.0567 64.5272 22.152 64.5827 22.2183C64.6104 22.2515 64.6314 22.2774 64.6458 22.2955L64.6626 22.3169L64.6674 22.323L64.6689 22.325C64.6689 22.325 64.6698 22.3261 64.3883 22.5294C64.693 22.3609 64.6931 22.3612 64.6931 22.3612L64.6968 22.3676L64.7066 22.3847L64.7433 22.45C64.775 22.5071 64.8211 22.5912 64.8792 22.7009C64.9954 22.9203 65.1599 23.2422 65.3552 23.6557C65.7457 24.4825 66.2596 25.6763 66.7559 27.1493C67.7479 30.0933 68.6738 34.1642 68.3954 38.6547C68.271 40.6726 68.1034 42.4555 67.9153 44.0152C67.6439 46.2659 67.33 48.052 67.042 49.4097C66.9771 49.716 66.9134 50.0004 66.8519 50.2635C66.6825 50.9877 66.529 51.5498 66.4079 51.9585C66.3253 52.2371 66.2578 52.4443 66.2105 52.5831C66.1868 52.6524 66.1682 52.7046 66.1553 52.74L66.1404 52.7806L66.1362 52.7915L66.135 52.7947C66.135 52.7947 66.1344 52.7962 65.8068 52.6755L66.135 52.7947C66.0666 52.9711 65.8639 53.0616 65.683 52.9949C65.502 52.9283 65.4108 52.7312 65.4792 52.5548L65.5035 52.5637C65.4792 52.5548 65.4792 52.5548 65.4792 52.5548L65.4827 52.5456L65.4952 52.5115C65.5066 52.4804 65.5236 52.4325 65.5458 52.3675C65.5902 52.2374 65.655 52.0388 65.735 51.7689C65.895 51.229 66.1159 50.4038 66.3561 49.2714C66.8365 47.0065 67.3942 43.5125 67.6962 38.6136C67.8535 36.0754 67.6162 33.6705 67.1991 31.5341C66.9523 30.2698 66.6425 29.0994 66.3143 28.0511C66.2404 27.8153 66.1657 27.5857 66.0905 27.3625C65.6037 25.918 65.1002 24.7485 64.719 23.9414C64.5284 23.538 64.3686 23.2253 64.2568 23.0143C64.201 22.9089 64.1571 22.8288 64.1275 22.7756L64.0947 22.7172L64.0927 22.7146C64.0816 22.7006 64.064 22.679 64.0398 22.65C63.9915 22.5922 63.9165 22.5055 63.8134 22.3939C63.6071 22.1707 63.288 21.8483 62.8431 21.4595C61.9535 20.682 60.5601 19.6387 58.5583 18.593C54.5567 16.5025 48.1114 14.396 38.378 14.396C28.6444 14.396 22.3291 16.5031 18.4579 18.592C16.5213 19.637 15.1929 20.6793 14.3519 21.4554C13.9314 21.8435 13.6326 22.1653 13.4405 22.3877C13.3444 22.4989 13.275 22.5853 13.2304 22.6428C13.2144 22.6635 13.2015 22.6805 13.1918 22.6935L13.1771 22.732C13.1571 22.7849 13.1275 22.8639 13.0896 22.9673C13.0137 23.174 12.9045 23.4782 12.7719 23.866C12.5067 24.6418 12.1482 25.7519 11.7758 27.087C11.584 27.7748 11.3886 28.5216 11.2005 29.3126C11.0413 29.982 10.8873 30.6831 10.745 31.4067C10.4022 33.1501 10.1274 35.0246 10.0117 36.9043C9.79107 40.4862 10.1419 44.0977 10.5496 46.8187C10.7533 48.178 10.9708 49.3123 11.1372 50.1063C11.2204 50.5032 11.2908 50.8148 11.3403 51.0268C11.365 51.1328 11.3845 51.2139 11.3978 51.2682L11.4129 51.3293L11.4167 51.3445L11.4176 51.3481C11.4641 51.5312 11.3499 51.7173 11.1622 51.7627C10.9744 51.8081 10.7845 51.6965 10.7379 51.5134L11.0779 51.4312C10.7379 51.5134 10.7379 51.5134 10.7379 51.5134L10.7364 51.5073L10.7322 51.4907L10.7164 51.4264C10.7026 51.37 10.6826 51.2867 10.6573 51.1784C10.6408 51.1078 10.6221 51.0266 10.6014 50.9352C10.5587 50.7464 10.5077 50.5141 10.4509 50.243C10.2823 49.4387 10.0624 48.2915 9.85649 46.9174C9.72597 46.0465 9.60093 45.0833 9.49818 44.0577C9.277 41.85 9.15913 39.3529 9.31245 36.8633C9.537 33.217 10.3478 29.6041 11.0999 26.9077C11.4763 25.5583 11.8388 24.4358 12.1074 23.65C12.2417 23.2571 12.3526 22.9482 12.4301 22.7371C12.4688 22.6315 12.4992 22.5504 12.52 22.4955L12.5439 22.4329L12.5501 22.4167L12.5517 22.4124C12.5517 22.4124 12.5524 22.4108 12.8798 22.532C12.5904 22.3397 12.5908 22.3392 12.5908 22.3392L12.5927 22.3364L12.5972 22.3301L12.6129 22.3085C12.6264 22.2902 12.6459 22.2641 12.6718 22.2307C12.7235 22.164 12.8005 22.0683 12.9047 21.9477C13.113 21.7065 13.4298 21.366 13.8705 20.9593C14.003 20.837 14.1468 20.7086 14.3022 20.5753C15.1797 19.8219 16.4272 18.9072 18.1188 17.9944ZM12.8798 22.532L12.5908 22.3392C12.5753 22.3613 12.5615 22.3874 12.5517 22.4124L12.8798 22.532ZM64.3883 22.5294L64.6931 22.3612C64.6861 22.3491 64.6773 22.3361 64.6689 22.325L64.3883 22.5294Z" fill="#F3B95F"/>
<path d="M23.404 70.0813C23.4167 70.0773 23.4301 70.0732 23.4442 70.0689C23.5433 70.0382 23.6757 69.9978 23.8358 69.95C23.8873 69.9346 23.9417 69.9184 23.9987 69.9016C24.4671 69.7635 25.1166 69.5792 25.8411 69.3947C26.7289 69.1688 27.7513 68.9366 28.6973 68.7928C29.2776 68.7046 29.8292 68.6496 30.3033 68.6496C30.5639 68.6496 30.8665 68.6579 31.2042 68.6718C31.652 68.6903 32.1613 68.7184 32.7161 68.7494L32.8548 68.7571C33.8016 68.8102 34.8854 68.8709 36.0521 68.9104C38.5025 68.9932 41.299 68.9811 43.9113 68.61C49.1339 67.8681 55.9555 64.8428 59.3068 63.0556C61.8819 61.6819 63.9031 59.6834 65.2856 58.0157C65.7865 57.4113 66.2015 56.8529 66.5267 56.3873C66.6492 56.2119 66.7589 56.0496 66.8557 55.903C66.9496 55.7608 67.0312 55.6334 67.1004 55.5231C67.1614 55.4259 67.2127 55.342 67.2541 55.273C67.2687 55.2489 67.282 55.2265 67.2941 55.2061C67.3189 55.1643 67.3385 55.1305 67.3531 55.1053L67.3771 55.0633L67.3826 55.0534L67.3838 55.0513C67.5066 54.8297 67.7905 54.7467 68.0179 54.8664C68.2453 54.986 68.3301 55.2628 68.2074 55.4846L67.8585 55.3009C68.2074 55.4846 68.2074 55.4846 68.2074 55.4846L68.2043 55.4901L68.1968 55.5034L68.1689 55.5523C68.1445 55.5946 68.1086 55.6561 68.0613 55.7346C67.9668 55.8918 67.8268 56.1177 67.6425 56.3969C67.274 56.9551 66.7277 57.7275 66.0133 58.5893C64.5876 60.3093 62.4767 62.4048 59.7559 63.8562C56.3767 65.6582 49.4369 68.7472 44.0462 69.513C41.3519 69.8957 38.4905 69.9058 36.0197 69.8223C34.8423 69.7825 33.7491 69.7213 32.8037 69.6683L32.6625 69.6604C31.6794 69.6054 30.8767 69.5621 30.3033 69.5621C29.1905 69.5621 27.5143 69.9119 26.0775 70.2776C25.3674 70.4584 24.7298 70.6393 24.2697 70.775C24.0397 70.8429 23.8544 70.8993 23.7269 70.9387C23.6631 70.9584 23.6138 70.9739 23.5807 70.9843L23.5432 70.9962L23.5339 70.9991L23.5312 71L23.404 70.0813Z" fill="#F3B95F"/>
<path d="M10.7599 49.9855C10.9494 49.9477 11.1344 50.0669 11.1732 50.2517L12.225 55.2717L12.2269 55.2768C12.2331 55.2937 12.243 55.32 12.257 55.3552C12.285 55.4255 12.3294 55.5314 12.3932 55.668C12.5206 55.9412 12.7252 56.3374 13.0303 56.8187C13.6405 57.7812 14.6529 59.0849 16.2554 60.4285C19.4563 63.1123 25.0361 65.976 34.5273 66.5718C44.9582 67.2258 52.3075 64.6696 57.0428 61.9628C59.4122 60.6085 61.13 59.2147 62.2534 58.1624C62.8151 57.6363 63.228 57.1956 63.4992 56.8882C63.6348 56.7344 63.735 56.614 63.8006 56.5329C63.8304 56.4961 63.8531 56.4674 63.8687 56.4473L65.4602 52.4324C65.53 52.2565 65.7327 52.169 65.9132 52.237C66.0936 52.305 66.1833 52.5028 66.1136 52.6787L65.8423 53.363L64.5047 56.7375C64.4937 56.7651 64.4791 56.7913 64.4613 56.8152L64.4587 56.8187L64.4529 56.8263L64.4317 56.8538C64.4133 56.8775 64.3863 56.9118 64.3505 56.956C64.279 57.0444 64.1725 57.1723 64.0302 57.3336C63.7456 57.6562 63.3175 58.1128 62.7387 58.655C61.581 59.7394 59.8198 61.1672 57.397 62.5521C52.5481 65.3238 45.0607 67.9167 34.4823 67.2534C24.8572 66.6493 19.1279 63.7378 15.7987 60.9464C14.1362 59.5525 13.0784 58.1936 12.4345 57.1779C12.1126 56.6701 11.8943 56.2483 11.7555 55.9508C11.6861 55.802 11.6367 55.6843 11.6041 55.6025C11.5878 55.5616 11.5757 55.5296 11.5674 55.5072L11.5579 55.4809L11.5553 55.4732L11.5544 55.4708C11.5501 55.4581 11.5461 55.4437 11.5434 55.4307L11.3803 54.6523L11.2372 53.9692L10.6014 50.9352L10.4869 50.3885C10.4482 50.2037 10.5704 50.0233 10.7599 49.9855Z" fill="#F3B95F"/>
<path d="M62.2366 23.8677L62.1427 23.7999L61.8585 23.6042L61.3758 23.299L60.6974 22.9026L59.8152 22.433L58.7319 21.9087L57.4421 21.3505L55.9512 20.7793L54.2511 20.2132L52.3419 19.6681L50.2262 19.1698L47.8933 18.7316L45.354 18.3769L42.5974 18.1238L39.6263 17.9934L36.4381 17.9986L33.2981 18.1447L30.4691 18.4003L27.9351 18.7499L25.68 19.175L23.693 19.6602L21.9581 20.1871L20.4618 20.7427L19.1881 21.3062L18.1209 21.8644L17.2494 22.3965L16.5549 22.8869L16.024 23.3199L15.6432 23.6799L15.3965 23.9459L15.2651 24.1051L15.2303 24.1572L15.0747 24.2981L15.123 24.2668L15.115 24.2746L15.0667 24.3607L14.9246 24.6972L14.7449 25.2006L14.3025 26.6431L13.8144 28.5342L13.3318 30.7697L12.9001 33.2477L12.5729 35.8667L12.3906 38.5221L12.404 40.781L12.5649 43.2408L12.833 45.7449L13.1575 48.1343L13.49 50.2576L13.7903 51.9583L13.9083 52.6026L14.0022 53.0852L14.0585 53.3852L14.0692 53.4217L14.0799 53.4556L14.1952 53.7451L14.4258 54.2303L14.8012 54.8746L15.3375 55.6519L16.0669 56.531L17.0081 57.4778L18.1879 58.4612L19.6306 59.4499L21.3574 60.4072L23.3954 61.3045L25.7658 62.1053L28.4929 62.7809L31.6007 63.2921L35.1107 63.613L39.0445 63.7069L42.3078 63.5582L45.3003 63.1852L48.0328 62.6191L50.5105 61.8914L52.7441 61.0358L54.7418 60.0863L56.5089 59.0742L58.0561 58.0334L59.3915 56.9953L60.5177 55.9936L61.4509 55.0624L62.191 54.2303L62.7514 53.5312L63.1402 52.9991L63.3601 52.6652L63.3681 52.6548L63.9232 50.5471L64.3495 48.5282L64.6499 46.6396L64.8483 44.8059L64.9743 42.9487L65.0521 40.9949L65.1084 38.882L65.1647 36.5892L65.0467 33.939L64.7062 31.5027L64.2128 29.3037L63.639 27.3969L63.0651 25.8319L62.5637 24.6581L62.2097 23.9251L62.1427 23.7999L62.1373 23.7973L62.502 22.373L62.6012 22.4461L62.553 22.4174L62.612 22.4539L62.7594 22.6417L62.9016 22.9052L62.915 22.9312L63.2823 23.6955L63.2984 23.732L63.8186 24.945L63.8347 24.9919L64.43 26.6092L64.4488 26.6666L65.0414 28.6412L64.977 28.4795L65.0602 28.7168L65.5723 30.9992L65.5428 30.8845L65.5911 31.0958L65.9477 33.639L65.945 33.6129L65.9584 33.759L66.0818 36.5188V36.5292L66.0845 36.6101L66.0228 38.9499L65.9692 41.0732V41.0914L65.8887 43.0713V43.1078L65.7573 45.0067L65.7546 45.0589L65.5482 46.9501L65.5401 47.01L65.2291 48.9612L65.2184 49.0212L64.7786 51.0975L64.7679 51.1497L64.1699 53.4217L64.0734 53.6564L64.0278 53.7243L64.068 53.6617L63.9929 53.7869L63.9795 53.8103L63.7435 54.1677L63.7275 54.1886L63.3225 54.7468L63.3038 54.7676L62.7085 55.5111L61.947 56.364L61.9282 56.3849L60.9763 57.3396L60.9548 57.3579L59.8071 58.3778L59.7857 58.396L58.4288 59.4499L58.4074 59.4655L56.8387 60.5219L56.8146 60.535L55.0261 61.5601L54.9992 61.5731L52.9801 62.5331L52.9586 62.5435L50.7008 63.4069L50.6794 63.4147L48.1776 64.1477L48.1534 64.1555L45.4022 64.7268L45.3781 64.7294L42.3641 65.1076L42.3427 65.1102L39.0606 65.2563L39.0418 65.2589L35.0893 65.1624H35.0705L31.5417 64.839L31.5229 64.8363L28.3936 64.3199L28.3722 64.3146L25.6237 63.6364L25.5995 63.6286L23.205 62.82L23.1782 62.8096L21.1134 61.9018L21.0866 61.8888L19.3302 60.9132L19.3007 60.8976L17.8286 59.8881L17.7964 59.8646L16.5871 58.8551L16.5549 58.8264L15.5815 57.8483L15.5494 57.8117L14.7878 56.8935L14.7583 56.8518L14.1872 56.0301L14.1577 55.9832L13.7555 55.2867L13.7286 55.2346L13.4712 54.6972L13.4471 54.6424L13.3076 54.2955L13.2889 54.2433L13.2487 54.1207L13.2889 54.2225L13.2138 53.9903L13.1923 53.8834V53.8808L13.1307 53.573V53.5651L13.0341 53.0774V53.0695L12.9135 52.4174L12.9108 52.4044L12.6105 50.688L12.6078 50.6645L12.2699 48.523L12.2646 48.4943L11.9347 46.0736L11.9321 46.0371L11.6585 43.4886L11.6559 43.439L11.4896 40.9167L11.4923 40.948L11.4869 40.8384L11.4735 38.4882V38.4334L11.4762 38.3917L11.6693 35.5745V35.5797L12.0071 32.8956L12.0152 32.8382L12.4549 30.308L12.4657 30.2611L12.9591 27.9812L12.9698 27.9369L13.4685 26.0014L13.4819 25.9545L13.9378 24.465L13.9539 24.4181L14.1496 23.8703L14.1684 23.8233L14.3373 23.4216L14.3749 23.3408L14.5089 23.1008L14.6162 22.9599L14.6725 22.913L14.6564 22.9208L14.7503 22.853L14.643 22.9625L14.694 22.8947L14.7154 22.866L14.8656 22.6782L14.8897 22.6521L15.1605 22.36L15.1847 22.3365L15.5896 21.9557L15.6137 21.9348L16.1661 21.4835L16.1876 21.4653L16.9035 20.9592L16.925 20.9462L17.8206 20.3984L17.8393 20.388L18.9253 19.8219L18.9468 19.8115L20.2393 19.2403L20.2554 19.2324L21.7731 18.669L21.7865 18.6664L23.5402 18.1317L23.5536 18.1291L25.5566 17.6387L25.57 17.636L27.8386 17.2083L27.852 17.2057L30.3994 16.8561L30.4128 16.8535L33.2551 16.5979H33.2659L36.4166 16.4492H36.43L39.6317 16.4414H39.6424L42.6296 16.5744L42.6403 16.577L45.4103 16.83L45.421 16.8326L47.9791 17.1874L47.9899 17.19L50.3335 17.6308L50.3442 17.6334L52.476 18.1343L52.4894 18.1369L54.4093 18.6847L54.4227 18.6899L56.1335 19.2611L56.1469 19.2663L57.6539 19.8428L57.6646 19.848L58.9625 20.4089L58.9759 20.4167L60.0726 20.9436L60.086 20.9514L60.9789 21.4262L60.9897 21.434L61.6815 21.8383L61.6949 21.8435L62.1856 22.1565L62.199 22.1644L62.4913 22.3652L62.502 22.373L62.6012 22.4461L62.2366 23.8677Z" fill="#F3B95F"/>
<path fill-rule="evenodd" clip-rule="evenodd" d="M24.166 4.91082C24.0286 5.2189 23.8556 5.63093 23.6721 6.15145C23.3033 7.19794 22.943 8.55152 22.943 9.83087C22.943 11.1568 23.005 12.7493 23.0673 14.0132C23.0984 14.6445 23.1295 15.1926 23.1528 15.5829C23.1528 15.5829 23.146 15.7295 23.1528 15.8362L22.4766 16.0001C22.4704 15.9005 22.4625 15.7732 22.4535 15.6226C22.4301 15.2306 22.3988 14.68 22.3676 14.0459C22.3052 12.779 22.2425 11.1734 22.2425 9.83087C22.2425 8.44176 22.6304 7.00559 23.0097 5.92944C23.2003 5.38864 23.0983 5.62447 23.2414 5.30335C23.2299 5.32659 23.2626 5.25955 23.2414 5.30335L24.166 4.91082ZM22.4766 16.0001L20.6117 16.7814L22.4766 16.0001ZM20.6117 16.7814L20.1866 16.949C20.0952 16.068 20.3266 13.5943 20.4482 12.0401C20.5693 10.4922 20.6507 9.71877 20.6507 8.10879C20.6507 7.29258 20.7417 6.50822 20.7417 6.50822C20.7075 6.61244 20.8016 6.31465 20.7417 6.50822L21.5319 6.08481" fill="#F3B95F"/>
<path fill-rule="evenodd" clip-rule="evenodd" d="M53.5043 4.958C53.6417 5.26609 53.7672 5.56267 53.9506 6.0832C54.3195 7.12969 54.6798 8.48327 54.6798 9.76262C54.6798 11.0885 54.6177 12.681 54.5555 13.9449C54.5244 14.5762 54.4933 15.1244 54.4699 15.5146C54.4699 15.5146 54.4464 15.8928 54.4337 16.0951C54.4306 16.1436 54.4282 16.182 54.4269 16.2026L55.1031 16.3665C55.1093 16.2668 55.1602 15.705 55.1692 15.5544C55.1926 15.1623 55.2239 14.6118 55.2551 13.9777C55.3176 12.7107 55.3802 11.1052 55.3802 9.76262C55.3802 8.37351 54.9924 6.93734 54.6131 5.86118C54.4225 5.32038 54.536 5.58912 54.3928 5.26799C54.3717 5.2242 54.4044 5.29124 54.3928 5.26799L53.5043 4.958ZM55.1031 16.3665L56.9567 17.0913L55.1031 16.3665ZM56.9567 17.0913L57.3819 17.259C57.4733 16.378 57.2961 13.526 57.1745 11.9719C57.0535 10.424 56.972 9.65052 56.972 8.04054C56.972 7.22433 56.872 6.35759 56.872 6.35759C56.8121 6.16403 56.9062 6.46181 56.872 6.35759L56.0786 5.98664" fill="#F3B95F"/>
<path fill-rule="evenodd" clip-rule="evenodd" d="M9.49088 31.3278C9.49861 31.1993 9.45034 31.0736 9.35795 30.9817C9.31962 30.9436 9.27517 30.9127 9.22685 30.89C9.15872 30.858 9.08292 30.8423 9.00575 30.8452L7.89193 30.8871L5.12565 30.9912C4.95115 30.9978 4.79492 31.0986 4.72047 31.2526L5.1437 31.4472C4.72047 31.2526 4.72047 31.2526 4.72047 31.2526L4.71858 31.2566L4.71508 31.264L4.70345 31.2891C4.69373 31.3104 4.68015 31.3408 4.66334 31.38C4.62973 31.4584 4.58317 31.5722 4.5286 31.7194C4.41949 32.0136 4.27826 32.4416 4.1446 32.9875C3.87744 34.0786 3.64012 35.6424 3.75129 37.5506C3.84969 39.7041 4.25854 41.8335 4.96586 43.8764C5.03186 44.067 5.21811 44.193 5.42432 44.1865L7.89872 44.1083L9.49818 44.0577L9.55111 44.0561C9.68973 44.0517 9.81922 43.9876 9.90462 43.881C9.99 43.7745 10.0225 43.6365 9.99343 43.5043L9.99251 43.5L9.98891 43.483L9.97427 43.4108C9.96141 43.3458 9.94266 43.2471 9.91976 43.1158C9.87396 42.8531 9.81159 42.4598 9.74664 41.9432C9.61673 40.9101 9.47652 39.3841 9.43797 37.4249C9.40052 35.5217 9.41176 34.0317 9.43331 33.0012C9.43406 32.9654 9.43483 32.9301 9.4356 32.8953C9.4394 32.7246 9.44346 32.5675 9.44759 32.424C9.45596 32.1331 9.46463 31.8985 9.47198 31.7221C9.47748 31.5904 9.48224 31.4912 9.48561 31.4252L9.48954 31.3513L9.49057 31.3332L9.49088 31.3278ZM8.97878 43.1611C8.93321 42.8908 8.87639 42.5202 8.81781 42.0543C8.68426 40.9922 8.54157 39.4349 8.50236 37.4424C8.46335 35.4599 8.47678 33.9206 8.50004 32.8755C8.51042 32.4091 8.52276 32.0411 8.53327 31.7762L8.23675 31.7873L7.8383 31.8023L5.46124 31.8918C5.44507 31.9329 5.42744 31.9789 5.40861 32.0297C5.31033 32.2947 5.17956 32.6898 5.05479 33.1994C4.80523 34.2187 4.5801 35.694 4.68572 37.5016L4.68606 37.5073C4.77519 39.4636 5.13109 41.3992 5.74408 43.2634L7.83523 43.1973L8.54413 43.1749L8.97878 43.1611Z" fill="#F3B95F"/>
<path fill-rule="evenodd" clip-rule="evenodd" d="M9.21325 31.8996C9.19471 31.9316 9.17438 31.9704 9.15273 32.017C9.03283 32.2749 8.91579 32.6764 8.8167 33.2083C8.61994 34.2645 8.51081 35.7407 8.54127 37.3817C8.57171 39.0224 8.73728 40.4939 8.97478 41.5424C9.09439 42.0704 9.22705 42.4674 9.35699 42.7208C9.38057 42.7668 9.40251 42.805 9.42237 42.8363C9.44112 42.8042 9.46169 42.7651 9.48362 42.7181C9.6039 42.4601 9.72147 42.0587 9.82103 41.5269C10.0187 40.4708 10.1285 38.9949 10.0967 37.3542C10.065 35.7134 9.89874 34.2419 9.6609 33.1933C9.64141 33.1074 9.62157 33.0249 9.60146 32.946C9.55153 32.75 9.49989 32.5757 9.44759 32.424C9.39153 32.2613 9.3347 32.1246 9.27839 32.0148C9.25491 31.969 9.23305 31.9309 9.21325 31.8996ZM10.5746 32.9962C10.8295 34.1199 10.9998 35.6546 11.0324 37.337C11.0649 39.0195 10.9535 40.5589 10.7416 41.6908C10.6364 42.2529 10.502 42.7385 10.3355 43.0957C10.2527 43.2732 10.1509 43.4435 10.0213 43.5766C9.8907 43.7106 9.69654 43.8408 9.44204 43.8456C9.18725 43.8504 8.98799 43.7273 8.8523 43.5981C8.72951 43.4812 8.62872 43.3324 8.54413 43.1749C8.53593 43.1596 8.52788 43.1443 8.51998 43.1289C8.34003 42.7779 8.18745 42.2973 8.06103 41.7392C7.89313 40.9979 7.76217 40.0779 7.68352 39.0545C7.64293 38.5264 7.61627 37.9709 7.60564 37.3982C7.58287 36.1715 7.6356 35.0209 7.74757 34.0489C7.78915 33.6879 7.8389 33.3516 7.89599 33.0452C7.98697 32.5568 8.09982 32.1262 8.23675 31.7873C8.25741 31.7362 8.27862 31.6871 8.30039 31.6403C8.38289 31.4628 8.48447 31.2924 8.61399 31.1593C8.7445 31.0251 8.93866 30.8948 9.19328 30.8899C9.20458 30.8897 9.21577 30.8898 9.22685 30.89C9.26044 30.8909 9.29301 30.8939 9.32455 30.8989C9.51728 30.9293 9.67158 31.0313 9.78302 31.1374C9.9177 31.2657 10.0259 31.4322 10.1154 31.6066C10.2953 31.9576 10.448 32.4382 10.5746 32.9962Z" fill="#F3B95F"/>
<path d="M10.6269 33.2381L9.66131 33.4002C9.44782 34.7203 9.32332 36.0526 9.28859 37.3885C9.28291 38.7349 9.36711 40.0802 9.54065 41.416L10.5998 41.236L10.6269 33.2381Z" fill="#F3B95F"/>
<path fill-rule="evenodd" clip-rule="evenodd" d="M10.7379 32.7607C10.9949 32.7627 11.202 32.9664 11.202 33.2169V33.2196C11.202 33.2196 10.6269 33.2381 11.2018 33.2334C11.202 33.2169 10.5198 33.2561 10.6269 33.2381L10.2571 33.7626L10.2663 33.2095C10.2697 33.0039 10.3254 32.8145 10.5184 32.7607C10.5606 32.749 10.6919 32.7603 10.7379 32.7607ZM10.1385 40.8507L10.2571 33.7626L10.0734 33.7934C9.89397 34.9865 9.78822 36.189 9.75668 37.3946C9.75195 38.5602 9.81559 39.7249 9.94723 40.8832L10.1385 40.8507ZM10.6269 33.2381L11.202 33.2244L11.2018 33.2334L11.0679 41.2428C11.0642 41.4618 10.9016 41.6473 10.6804 41.6849L9.62119 41.8649C9.49523 41.8863 9.36576 41.8565 9.26291 41.7824C9.16005 41.7083 9.09276 41.5964 9.07669 41.4727C8.9006 40.1173 8.81516 38.7522 8.82093 37.386L8.82097 37.3763C8.85621 36.0205 8.98268 34.6683 9.19936 33.3285C9.22217 33.1874 9.31042 33.0682 9.43331 33.0012C9.47873 32.9765 9.52887 32.9588 9.58219 32.9499L9.60146 32.946L10.5184 32.7607" fill="#F3B95F"/>
<path fill-rule="evenodd" clip-rule="evenodd" d="M68.2912 30.978C68.3121 30.9576 68.3348 30.9394 68.3589 30.9235C68.4408 30.8693 68.5389 30.8414 68.6393 30.8452L69.9953 30.8953L72.5194 30.9886C72.6941 30.9951 72.8505 31.096 72.9249 31.2502L72.5016 31.4446C72.925 31.2502 72.9249 31.2502 72.9249 31.2502L72.9268 31.2541L72.9303 31.2615L72.9419 31.2867C72.9517 31.308 72.9652 31.3384 72.982 31.3776C73.0156 31.4561 73.0622 31.57 73.1168 31.7172C73.2259 32.0117 73.3672 32.4399 73.5011 32.9861C73.7685 34.0778 74.0066 35.6424 73.8967 37.5506C73.7966 39.7038 73.3878 41.8329 72.6823 43.8761C72.6164 44.0669 72.43 44.193 72.2237 44.1865L69.3518 44.0958L68.0942 44.0561C68.0317 44.0541 67.9709 44.0399 67.9153 44.0152C67.8476 43.9851 67.7874 43.9394 67.7405 43.8808C67.6552 43.7741 67.6227 43.636 67.652 43.5038M68.667 43.1612L69.1442 43.1762L69.4396 43.1856L71.9036 43.2634C72.5152 41.3987 72.8712 39.4632 72.962 37.5069L72.9623 37.5019C73.0666 35.6942 72.8408 34.2182 72.5909 33.1982C72.4659 32.6882 72.3351 32.2927 72.2367 32.0274C72.2179 31.9766 72.2003 31.9305 72.1841 31.8894L69.9943 31.8084L69.4304 31.7876L69.1093 31.7757C69.1199 32.0406 69.1324 32.4091 69.1429 32.8767C69.1665 33.921 69.1806 35.4597 69.143 37.4421C69.1051 39.4348 68.9624 40.9922 68.8285 42.0544C68.7698 42.5202 68.7128 42.8908 68.667 43.1612ZM68.1518 31.3305C68.1439 31.2001 68.1937 31.0727 68.2885 30.9806L68.2912 30.978M68.1518 31.3305L68.1521 31.3359L68.1531 31.3539L68.157 31.4278C68.1604 31.4937 68.1652 31.5928 68.1707 31.7244C68.1817 31.9875 68.1957 32.3804 68.2074 32.8968C68.2307 33.9294 68.2448 35.4557 68.2073 37.4252C68.1701 39.3843 68.0299 40.9101 67.8997 41.9431C67.8346 42.4596 67.772 42.8529 67.726 43.1154C67.703 43.2467 67.6842 43.3454 67.6712 43.4104L67.6565 43.4826L67.6529 43.4996L67.652 43.5038" fill="#F3B95F"/>
<path fill-rule="evenodd" clip-rule="evenodd" d="M67.8933 31.1627C68.0038 31.0577 68.1564 30.9567 68.3467 30.9254C68.3508 30.9247 68.3548 30.9241 68.3589 30.9235C68.3986 30.9176 68.4399 30.9148 68.4829 30.9156C68.7373 30.9205 68.9315 31.0506 69.062 31.1845C69.1917 31.3175 69.2937 31.4877 69.3766 31.6652C69.3949 31.7045 69.4129 31.7453 69.4304 31.7876C69.5727 32.1301 69.6897 32.5698 69.7837 33.0702C69.8658 33.5071 69.9328 34.0046 69.9824 34.5477C70.0613 35.4117 70.0959 36.391 70.0759 37.4243C70.0433 39.1069 69.8716 40.6417 69.6157 41.7654C69.5947 41.8573 69.5731 41.9471 69.5508 42.0345C69.4374 42.4782 69.3058 42.8617 69.1554 43.1547C69.1517 43.1619 69.148 43.1691 69.1442 43.1762C69.057 43.3427 68.9523 43.5007 68.8234 43.6236C68.6882 43.7525 68.489 43.8761 68.2341 43.8713C67.9793 43.8665 67.7853 43.7356 67.6552 43.6018C67.526 43.4687 67.4245 43.2985 67.342 43.1211C67.1759 42.764 67.0418 42.2785 66.9366 41.7165C66.7268 40.5958 66.6147 39.0755 66.6429 37.4122C66.6414 37.3958 66.6408 37.3793 66.6411 37.3627C66.6737 35.6789 66.8447 34.1441 67.1003 33.0207C67.2272 32.4627 67.3803 31.9824 67.5606 31.6316C67.6501 31.4573 67.7585 31.2909 67.8933 31.1627ZM67.5777 37.3315C67.5791 37.3474 67.5797 37.3634 67.5794 37.3796C67.549 39.0203 67.6594 40.4964 67.8571 41.5526C67.9567 42.0844 68.0741 42.486 68.1942 42.7441C68.2156 42.7901 68.2357 42.8286 68.2541 42.8604C68.2737 42.8293 68.2954 42.7916 68.3186 42.7463C68.4487 42.4927 68.5819 42.0955 68.7021 41.5675C68.9409 40.519 69.1085 39.0476 69.1402 37.407C69.172 35.7665 69.0616 34.2906 68.8632 33.2346C68.7634 32.7029 68.6455 32.3015 68.525 32.0435C68.5028 31.996 68.482 31.9566 68.4631 31.9242C68.4431 31.9557 68.4209 31.9941 68.3971 32.0405C68.267 32.2937 68.1339 32.6905 68.0138 33.2183C67.7777 34.2561 67.6118 35.709 67.5777 37.3315Z" fill="#F3B95F"/>
<path d="M66.9243 33.2176L67.9621 33.3976C68.1737 34.7187 68.2964 36.0518 68.3294 37.3885C68.3388 38.7337 68.2591 40.0781 68.0908 41.4134L67.053 41.2334L66.9243 33.2176Z" fill="#F3B95F"/>
<path fill-rule="evenodd" clip-rule="evenodd" d="M66.6213 32.8703C66.7276 32.782 66.8689 32.7447 67.0065 32.7685L68.0442 32.9485C68.2409 32.9827 68.3937 33.1348 68.4246 33.3273C68.6394 34.6681 68.7639 36.0211 68.7974 37.3777L68.7976 37.3856C68.8071 38.7505 68.7261 40.1145 68.5554 41.4692C68.5397 41.5936 68.4723 41.7061 68.369 41.7806C68.2657 41.855 68.1355 41.8847 68.0091 41.8628L66.9713 41.6828C66.7508 41.6445 66.5889 41.4592 66.5854 41.2407L66.4567 33.2249C66.4545 33.0887 66.5149 32.9586 66.6213 32.8703ZM67.4013 33.7639L67.515 40.8503L67.683 40.8794C67.81 39.7225 67.8697 38.5594 67.8618 37.3957C67.8318 36.1886 67.7276 34.9844 67.5497 33.7896L67.4013 33.7639Z" fill="#F3B95F"/>
<path fill-rule="evenodd" clip-rule="evenodd" d="M12.6476 21.0361C11.9481 21.0902 11.2623 21.3502 10.9652 22.1222C10.7982 22.5559 10.6494 23.336 10.5233 24.2955C10.3987 25.2443 10.3001 26.3359 10.2241 27.3722C10.1481 28.4079 10.0949 29.3848 10.0606 30.103C10.0435 30.462 10.0312 30.7562 10.0231 30.9605L10.0191 31.067C10.3411 31.237 10.5745 31.3463 10.745 31.4067C10.8097 31.4296 10.8653 31.4454 10.9133 31.4549C10.9571 31.4635 10.9831 31.4642 10.9964 31.4635C11.0006 31.4568 11.0066 31.4457 11.0137 31.4286C11.0394 31.367 11.0639 31.2654 11.084 31.1028C11.1037 30.9436 11.1168 30.7479 11.1301 30.507C11.1342 30.4311 11.1384 30.3512 11.1427 30.2675C11.157 29.9911 11.1736 29.6724 11.2005 29.3126C11.2167 29.0962 11.2367 28.8651 11.2622 28.6193C11.5101 26.2072 12.1302 24.217 12.689 22.8285C12.9686 22.134 13.2331 21.5892 13.4286 21.2165C13.4575 21.1616 13.4848 21.1103 13.5105 21.0629C13.2719 21.0323 12.9667 21.0114 12.6476 21.0361ZM14.3509 20.9956L14.3475 21.001L14.3328 21.0251C14.3195 21.047 14.2994 21.0806 14.2733 21.1255C14.2212 21.2153 14.1453 21.3503 14.0522 21.5276C13.866 21.8825 13.6113 22.4067 13.3411 23.078C12.8005 24.4212 12.1993 26.35 11.9591 28.6878C11.8931 29.3237 11.8654 29.8566 11.8425 30.2989C11.8381 30.3837 11.8338 30.4652 11.8295 30.5435C11.8163 30.7844 11.8022 31.0004 11.7794 31.1846C11.757 31.3655 11.7238 31.5391 11.6626 31.686C11.5993 31.8376 11.4936 31.9896 11.3114 32.0773C11.1347 32.1622 10.9449 32.1579 10.7748 32.1244C10.4587 32.0623 10.0466 31.8636 9.52568 31.5824C9.48464 31.5656 9.44655 31.541 9.41384 31.5092L9.40847 31.504C9.32174 31.4196 9.28904 31.3006 9.31348 31.19L9.31411 31.1722L9.32315 30.9342C9.32361 30.9227 9.32407 30.9109 9.32455 30.8989C9.33269 30.6951 9.34467 30.4122 9.36092 30.0713C9.39532 29.3494 9.44886 28.3665 9.52538 27.3235C9.60186 26.2812 9.70154 25.1754 9.82854 24.2087C9.95413 23.2527 10.1103 22.3992 10.3094 21.8821C10.7443 20.7525 11.7666 20.4191 12.5922 20.3552C13.0074 20.323 13.3933 20.3557 13.673 20.3953C13.8137 20.4153 13.9294 20.4373 14.011 20.4545C14.0518 20.4632 14.0842 20.4706 14.107 20.4761L14.1339 20.4828L14.1418 20.4848L14.1442 20.4854C14.1442 20.4854 14.1457 20.4858 14.0535 20.8153L14.1442 20.4854C14.2046 20.5015 14.259 20.5329 14.3022 20.5753C14.3352 20.6077 14.3617 20.6466 14.3793 20.69C14.4198 20.7901 14.4088 20.904 14.3509 20.9956Z" fill="#F3B95F"/>
<path fill-rule="evenodd" clip-rule="evenodd" d="M65.0841 20.592C65.9095 20.6559 66.9314 20.9894 67.3677 22.1186C67.5676 22.6358 67.7243 23.4894 67.8502 24.4454C67.9776 25.4122 68.0776 26.518 68.1542 27.5603C68.2309 28.6033 68.2845 29.5862 68.319 30.3081C68.3302 30.544 68.3394 30.7521 68.3467 30.9254C68.3506 31.0174 68.354 31.0996 68.3568 31.171L68.3658 31.4091L68.3671 31.444C68.3787 31.5133 68.3684 31.5861 68.3345 31.6521L68.3318 31.6573C68.2917 31.7353 68.2242 31.793 68.145 31.8229C67.628 32.1027 67.2184 32.3004 66.9035 32.3627C66.7334 32.3964 66.5436 32.4009 66.3668 32.3162C66.1843 32.2289 66.0783 32.0771 66.0146 31.9254C65.953 31.7786 65.9195 31.6049 65.8968 31.4238C65.8737 31.2395 65.8593 31.0233 65.8459 30.7822C65.8413 30.7014 65.8369 30.6172 65.8323 30.5295C65.8091 30.0883 65.7811 29.5579 65.7155 28.925C65.4753 26.5859 64.8747 24.6566 64.3348 23.3138C64.0649 22.6426 63.8105 22.1187 63.6246 21.7641C63.5316 21.5868 63.4558 21.4519 63.4038 21.3622C63.3778 21.3173 63.3577 21.2838 63.3444 21.2619L63.3297 21.2378L63.3263 21.2324C63.2703 21.1438 63.2582 21.0342 63.2942 20.9365C63.2954 20.9333 63.2967 20.9301 63.298 20.9269C63.3385 20.8267 63.425 20.7511 63.5314 20.7227L63.6238 21.0522C63.5314 20.7227 63.5314 20.7227 63.5314 20.7227L63.5354 20.7217L63.5432 20.7197L63.5701 20.713C63.5929 20.7075 63.6253 20.7 63.6661 20.6914C63.7476 20.6741 63.8633 20.6522 64.0038 20.6322C64.2834 20.5926 64.669 20.5599 65.0841 20.592ZM64.1666 21.2998C64.1922 21.3471 64.2195 21.3982 64.2483 21.4531C64.4436 21.8256 64.7077 22.3701 64.9869 23.0645C65.4817 24.2951 66.0247 25.9989 66.3143 28.0511C66.3513 28.3139 66.3843 28.5824 66.4124 28.8564M64.1666 21.2998C64.405 21.2692 64.7098 21.2483 65.0286 21.2729C65.7276 21.3271 66.4138 21.5871 66.7122 22.3594C66.8798 22.793 67.0291 23.573 67.1555 24.5325C67.2805 25.4812 67.3793 26.5729 67.4555 27.6092C67.5317 28.6448 67.585 29.6217 67.6193 30.3399C67.6364 30.6989 67.6488 30.9931 67.6568 31.1973L67.6608 31.3029C67.4808 31.3983 67.3284 31.4747 67.1991 31.5341C67.0087 31.6218 66.8686 31.6727 66.7643 31.6933C66.7199 31.7021 66.6938 31.7028 66.6805 31.7021C66.6763 31.6953 66.6702 31.6842 66.6629 31.6668C66.6371 31.6052 66.6125 31.5036 66.5921 31.3411C66.5722 31.1818 66.5587 30.986 66.5453 30.7451C66.541 30.6689 66.5368 30.5888 66.5324 30.5048C66.5323 30.5025 66.5322 30.5002 66.532 30.4978C66.5088 30.0565 66.4799 29.5075 66.4124 28.8564" fill="#F3B95F"/>
<path fill-rule="evenodd" clip-rule="evenodd" d="M11.6805 54.6523H11.3803H10.245H9.62919V53.9692H10.2526H11.2372H11.6805V54.6523Z" fill="#F3B95F"/>
<path fill-rule="evenodd" clip-rule="evenodd" d="M13.6056 62.4353C13.707 62.2813 13.914 62.2333 14.0749 62.3237C14.0798 62.3265 14.0847 62.3294 14.0895 62.3324L16.4557 63.8136L24.9391 67.2804L31.0598 68.6041C31.1145 68.6159 31.1634 68.6396 31.2042 68.6718C31.3042 68.7508 31.3557 68.8807 31.3259 69.0115C31.284 69.1956 31.097 69.3118 30.9082 69.271L28.6973 68.7928L24.7964 67.9492L24.7569 67.9406C24.7365 67.9362 24.7166 67.93 24.6973 67.9222L24.1444 67.6962L16.5259 64.5829L16.1568 64.4321C16.1381 64.4244 16.1201 64.4152 16.103 64.4045L15.8993 64.277L14.1843 63.2034L13.7111 62.9072C13.5483 62.8053 13.5011 62.594 13.6056 62.4353Z" fill="#F3B95F"/>
<path fill-rule="evenodd" clip-rule="evenodd" d="M9.62235 54.814C9.80105 54.7419 10.0059 54.8248 10.0798 54.9992L10.1355 55.1304L11.155 57.5333L14.057 62.2962L14.0357 62.2737C14.0506 62.2895 14.0636 62.3062 14.0749 62.3237C14.163 62.4604 14.1417 62.6431 14.0156 62.7564C13.8734 62.8842 13.6519 62.8754 13.5208 62.7367C13.5066 62.7217 13.4939 62.7055 13.4827 62.6884L10.5476 57.8744C10.5367 57.8577 10.5273 57.8401 10.5196 57.8218L9.4327 55.2602C9.35874 55.0859 9.44365 54.8861 9.62235 54.814Z" fill="#F3B95F"/>
<path fill-rule="evenodd" clip-rule="evenodd" d="M24.6426 67.4639C24.8178 67.5439 24.8933 67.7472 24.8113 67.918L24.7964 67.9492L23.8358 69.95L23.6154 70.4091C23.5334 70.5799 23.3249 70.6536 23.1497 70.5736C22.9745 70.4936 22.899 70.2903 22.981 70.1195L22.9987 70.0826L24.1444 67.6962L24.1769 67.6284C24.2589 67.4576 24.4674 67.3839 24.6426 67.4639Z" fill="#F3B95F"/>
<path fill-rule="evenodd" clip-rule="evenodd" d="M14.3242 66.8691C14.4162 66.7031 14.6286 66.6413 14.7987 66.7309L15.2462 66.9139L22.9987 70.0826L23.6251 70.3386C23.7952 70.4283 23.8586 70.6356 23.7667 70.8016C23.6748 70.9676 23.4623 71.0295 23.2922 70.9398L14.4658 67.3321C14.2957 67.2424 14.2323 67.0351 14.3242 66.8691Z" fill="#F3B95F"/>
<path fill-rule="evenodd" clip-rule="evenodd" d="M13.588 62.4684C13.6799 62.3024 13.8924 62.2405 14.0625 62.3302L14.1843 63.2034L14.6512 66.5505L14.6571 66.5929C14.8272 66.6825 14.8906 66.8898 14.7987 67.0558C14.7068 67.2218 14.4943 67.2837 14.3242 67.194L13.7296 62.9314C13.5595 62.8417 13.4961 62.6344 13.588 62.4684Z" fill="#F3B95F"/>
<path fill-rule="evenodd" clip-rule="evenodd" d="M16.4583 63.9825C16.6288 64.0715 16.693 64.2785 16.6017 64.4447L16.5259 64.5829L15.2462 66.9139L15.2342 66.9358C15.1429 67.1021 14.9306 67.1648 14.7601 67.0757C14.5896 66.9867 14.5254 66.7798 14.6166 66.6135L14.6512 66.5505L15.8993 64.277L15.9842 64.1224C16.0755 63.9561 16.2877 63.8934 16.4583 63.9825Z" fill="#F3B95F"/>
<path fill-rule="evenodd" clip-rule="evenodd" d="M67.6937 54.264L67.3269 54.0261L66.7594 53.6581L65.6423 52.9337L66.0302 52.3649L66.8307 52.884L67.5668 53.3614L68.0816 53.6952L67.6937 54.264Z" fill="#F3B95F"/>
<path fill-rule="evenodd" clip-rule="evenodd" d="M21.3791 25.1744C19.8551 24.6308 17.9655 25.6931 17.2089 27.692C16.4522 29.6912 17.1827 31.6893 18.7004 32.2323C20.2187 32.7756 22.1081 31.7138 22.8622 29.7149L22.9185 29.5655H22.9216C23.5906 27.619 22.8636 25.7039 21.3791 25.1744ZM16.77 27.534C17.5793 25.3958 19.6852 24.0844 21.5398 24.7459C23.3961 25.408 24.1184 27.738 23.3065 29.873L23.2499 30.0218H23.2423C22.3959 32.0711 20.3453 33.3069 18.5392 32.6607C16.6889 31.9986 15.9607 29.6719 16.77 27.534Z" fill="#F3B95F"/>
<path fill-rule="evenodd" clip-rule="evenodd" d="M24.8809 20.9545C24.2559 20.7319 23.4277 21.167 23.0863 22.0662C22.9197 22.505 22.9163 22.955 23.0371 23.3176C23.1579 23.6801 23.396 23.9406 23.7061 24.0429C24.3367 24.2508 25.1684 23.818 25.5056 22.9182C25.8466 22.0175 25.5056 21.1769 24.8809 20.9545ZM22.6475 21.9078C23.0409 20.8716 24.0843 20.185 25.0414 20.5259C25.9987 20.8668 26.3385 22.0352 25.945 23.0752C25.5527 24.1211 24.5075 24.7888 23.5562 24.4751C23.0752 24.3165 22.7475 23.9249 22.5921 23.4586C22.4367 22.9923 22.4467 22.4368 22.6475 21.9078Z" fill="#F3B95F"/>
<path fill-rule="evenodd" clip-rule="evenodd" d="M66.7291 50.3989C66.761 50.3452 66.803 50.2996 66.8519 50.2635C66.943 50.1964 67.0581 50.1627 67.1762 50.1731L68.5167 50.2913L71.1984 50.5278C71.4476 50.5498 71.6349 50.7591 71.6236 51.0028C71.6205 51.071 71.6021 51.1351 71.5718 51.1921C71.5689 51.2065 71.5659 51.2222 71.5625 51.2392C71.5409 51.3501 71.5095 51.5166 71.4709 51.7362C71.3938 52.1753 71.2882 52.8266 71.175 53.6707L71.1741 53.6782C71.0436 54.5407 70.9895 55.4125 71.0126 56.284C71.016 56.4144 70.9621 56.54 70.8643 56.629C70.7666 56.7181 70.6345 56.7621 70.5013 56.75L66.5267 56.3873L66.3852 56.3744C66.1754 56.3552 66.0046 56.2017 65.968 55.9993C65.8106 55.1291 65.7684 54.2431 65.8423 53.363C65.8485 53.2891 65.8556 53.2151 65.8634 53.1412C65.9352 52.1752 66.2312 51.2376 66.7291 50.3989ZM70.5829 51.3898L68.3532 51.1931L67.3978 51.1089C67.1064 51.6651 66.9146 52.2654 66.8307 52.884C66.8158 52.9934 66.8043 53.1033 66.7963 53.2136L66.7952 53.2286C66.7799 53.3716 66.768 53.5148 66.7594 53.6581C66.7226 54.2725 66.7476 54.889 66.8343 55.4989L67.1004 55.5231L70.0719 55.7943C70.0767 55.0429 70.1353 54.2926 70.2477 53.5488C70.3623 52.6939 70.4696 52.0319 70.5486 51.5821C70.5607 51.513 70.5722 51.4489 70.5829 51.3898Z" fill="#F3B95F"/>
<path fill-rule="evenodd" clip-rule="evenodd" d="M71.0626 52.3365C70.9712 52.6916 70.8884 53.1141 70.8264 53.5743C70.7639 54.0376 70.7321 54.4694 70.727 54.8372C70.8194 54.4803 70.9032 54.0547 70.9658 53.5913C71.0269 53.1315 71.0578 52.7025 71.0626 52.3365ZM70.8379 50.6712C70.9342 50.5969 71.0957 50.5115 71.3015 50.5372C71.5077 50.563 71.6421 50.686 71.7159 50.7819C71.7893 50.8772 71.8354 50.9851 71.8666 51.0792C71.9298 51.2698 71.9654 51.5093 71.9836 51.7653C72.0205 52.2849 71.9917 52.9723 71.8937 53.7091C71.7944 54.4442 71.6419 55.1164 71.4698 55.6097C71.3849 55.8527 71.2875 56.0756 71.176 56.2444C71.121 56.3277 71.0478 56.4206 70.9517 56.4945C70.8548 56.5689 70.6935 56.6534 70.4886 56.6281C70.2831 56.6026 70.1484 56.4809 70.0736 56.3844C69.9996 56.2889 69.9532 56.1806 69.9219 56.0863C69.8584 55.8953 69.823 55.6554 69.8052 55.3993C69.769 54.8795 69.7993 54.192 69.8986 53.4553C69.9979 52.7188 70.1503 52.0476 70.322 51.5548C70.4066 51.312 70.5038 51.0895 70.6147 50.921C70.6694 50.8379 70.7422 50.7451 70.8379 50.6712Z" fill="#F3B95F"/>
<path d="M64.8261 46.7049C64.8261 46.7049 59.9083 49.895 54.4488 51.2201C48.9893 52.5452 47.3482 52.5504 47.3482 52.5504C47.3482 52.5504 46.2569 50.688 42.7066 50.688C39.1563 50.688 39.159 52.5504 39.159 54.1416C39.159 55.7328 41.0709 56.0015 43.2563 56.0015C44.6869 55.9587 46.0882 55.5954 47.3509 54.9398C47.3509 54.9398 51.4455 54.679 54.725 53.8782C58.0044 53.0774 64.2817 50.6906 64.2817 50.6906" fill="#F3B95F"/>
<path fill-rule="evenodd" clip-rule="evenodd" d="M71.3017 14.4506H74.4876H75.4105C76.0075 14.4549 76.5791 14.6878 77.0013 15.0991C77.4236 15.5105 77.6626 16.0674 77.6661 16.6492L77.6661 26.467C77.6634 27.0489 77.4241 27.6059 77.0009 28.0165C76.5776 28.4269 76.0049 28.6576 75.4077 28.6585H71.2982C70.7303 28.6544 70.1854 28.4438 69.7698 28.0695C69.7484 28.0502 69.7273 28.0305 69.7066 28.0104C69.2839 27.5992 69.0443 27.0425 69.0399 26.4605L69.0399 26.4572L69.0399 22.4909L69.0399 18.2792L69.0399 16.6414C69.0434 16.0593 69.2834 15.5025 69.7071 15.0922C70.1307 14.682 70.7044 14.4514 71.3017 14.4506ZM71.302 15.3631C70.9511 15.3637 70.6149 15.4992 70.3665 15.7397C70.1184 15.98 69.9781 16.3055 69.9757 16.6456V26.4553C69.9787 26.7964 70.1192 27.1228 70.3675 27.3643C70.6158 27.6059 70.952 27.743 71.3035 27.746H75.4063C75.7568 27.7453 76.0931 27.6099 76.341 27.3695C76.5887 27.1292 76.4219 26.8068 76.4237 26.467L76.7303 16.6534C76.728 16.3126 76.5879 15.9862 76.34 15.7447C76.0921 15.5032 75.7564 15.366 75.4052 15.3631H71.302Z" fill="#F3B95F"/>
<path d="M74.0385 18.9114C74.0385 20.0122 73.462 20.9069 72.7568 20.9069C72.0516 20.9069 71.475 20.0122 71.475 18.9114C71.475 17.8106 72.0489 16.9159 72.7568 16.9159C73.4647 16.9159 74.0385 17.8106 74.0385 18.9114Z" fill="#F3B95F"/>
<path fill-rule="evenodd" clip-rule="evenodd" d="M71.4541 17.2589C71.7354 16.8208 72.1837 16.4598 72.757 16.4598C73.3303 16.4598 73.7786 16.8208 74.0599 17.2589C74.3453 17.7035 74.5066 18.2891 74.5066 18.9116C74.5066 19.5345 74.3444 20.1201 74.0587 20.5645C73.7774 21.002 73.3292 21.3633 72.757 21.3633C72.1848 21.3633 71.7365 21.002 71.4552 20.5645C71.1695 20.1201 71.0074 19.5345 71.0074 18.9116C71.0074 18.2891 71.1687 17.7035 71.4541 17.2589Z" fill="#F3B95F"/>
<path d="M74.2106 24.728C74.2106 25.8288 73.6368 26.7235 72.9315 26.7235C72.2263 26.7235 71.6471 25.8288 71.6471 24.728C71.6471 23.6273 72.2236 22.7325 72.9315 22.7325C73.6395 22.7325 74.2133 23.6273 74.2133 24.728" fill="#F3B95F"/>
<path fill-rule="evenodd" clip-rule="evenodd" d="M74.6783 24.7799C74.6804 24.7627 74.6814 24.7452 74.6814 24.7274C74.6814 24.1049 74.5201 23.5193 74.2347 23.0748C73.9534 22.6366 73.505 22.2757 72.9318 22.2757C72.3588 22.2757 71.9098 22.6363 71.6278 23.0743C71.3416 23.5187 71.1794 24.1045 71.1794 24.7274C71.1794 25.3507 71.3425 25.9365 71.629 26.3808C71.911 26.8182 72.3599 27.1791 72.9318 27.1791C73.5043 27.1791 73.9519 26.8175 74.2325 26.3798C74.5094 25.9479 74.6695 25.3828 74.6783 24.7799Z" fill="#F3B95F"/>
<path fill-rule="evenodd" clip-rule="evenodd" d="M73.8614 16.8232C73.4395 16.7392 73.0014 16.7799 72.6035 16.94C72.2057 17.1001 71.8663 17.3723 71.629 17.7213C71.3917 18.0703 71.2672 18.4803 71.2714 18.8985C71.2756 19.3168 71.4083 19.7243 71.6526 20.0687C71.8969 20.4132 72.2417 20.6788 72.6427 20.8313C73.0438 20.9839 73.4826 21.0162 73.9027 20.9242C74.3229 20.8321 74.7049 20.62 74.9998 20.3151C75.2948 20.0103 75.4891 19.6268 75.558 19.214L75.5594 19.2053C75.6592 18.6722 75.5377 18.1223 75.2212 17.6761C74.9047 17.2298 74.4189 16.9235 73.8702 16.8249L73.8614 16.8232ZM74.0443 15.9283C73.4413 15.8091 72.8153 15.8676 72.2466 16.0965C71.6764 16.3259 71.1897 16.7161 70.8491 17.217C70.5085 17.718 70.3296 18.3067 70.3357 18.9075C70.3417 19.5083 70.5324 20.0935 70.883 20.5878C71.2336 21.0821 71.7281 21.463 72.3027 21.6815C72.8774 21.9 73.506 21.9463 74.1079 21.8145C74.7097 21.6826 75.2574 21.3786 75.6805 20.9414C76.1025 20.5052 76.3813 19.9563 76.4809 19.3649C76.6238 18.5948 76.4476 17.801 75.9909 17.157C75.5341 16.513 74.8342 16.0715 74.0443 15.9283Z" fill="#F3B95F"/>
<path fill-rule="evenodd" clip-rule="evenodd" d="M74.0875 22.9397C73.6662 22.8562 73.2289 22.8972 72.8318 23.0573C72.4347 23.2175 72.0961 23.4894 71.8593 23.8379C71.6226 24.1865 71.4985 24.5958 71.5028 25.0133C71.5071 25.4309 71.6396 25.8377 71.8835 26.1816C72.1274 26.5255 72.4716 26.7907 72.8719 26.943C73.2722 27.0954 73.7103 27.1278 74.1298 27.0362C74.5493 26.9445 74.9308 26.7329 75.2255 26.4288C75.5201 26.1247 75.7145 25.742 75.7837 25.3299L75.7851 25.3217C75.8848 24.7886 75.7634 24.2387 75.4469 23.7924C75.1303 23.3462 74.6445 23.0399 74.0958 22.9413L74.0875 22.9397ZM74.2697 22.0446C73.6672 21.9261 73.0421 21.9851 72.4742 22.2141C71.9049 22.4436 71.4191 22.8336 71.0792 23.334C70.7392 23.8345 70.5608 24.4225 70.567 25.0225C70.5732 25.6225 70.7637 26.2069 71.1139 26.7007C71.464 27.1943 71.9578 27.5747 72.5317 27.7931C73.1055 28.0115 73.7333 28.058 74.3345 27.9266C74.9356 27.7952 75.4828 27.4919 75.9057 27.0555C76.3275 26.6201 76.6064 26.0721 76.7065 25.4815C76.8495 24.7113 76.6733 23.9174 76.2165 23.2734C75.7597 22.6294 75.0597 22.1878 74.2697 22.0446Z" fill="#F3B95F"/>
<path d="M8.05156 28.3331C8.05759 28.3724 8.05842 28.4131 8.05342 28.4545C8.04989 28.4837 8.04361 28.5119 8.03486 28.5389L8.01577 28.7741L7.89193 30.8871L9.00575 30.8452C9.08292 30.8423 9.15872 30.858 9.22685 30.89C9.26044 30.8909 9.29301 30.8939 9.32455 30.8989C9.33269 30.6951 9.34467 30.4122 9.36092 30.0713C9.39532 29.3494 9.44886 28.3665 9.52538 27.3235C9.60186 26.2812 9.70154 25.1754 9.82854 24.2087C9.95413 23.2527 10.1103 22.3992 10.3094 21.8821C10.7443 20.7525 11.7666 20.4191 12.5922 20.3552C13.0074 20.323 13.3933 20.3557 13.673 20.3953C13.8137 20.4153 13.9294 20.4373 14.011 20.4545C14.0518 20.4632 14.0842 20.4706 14.107 20.4761L14.1339 20.4828L14.1418 20.4848L14.1442 20.4854C14.2046 20.5015 14.259 20.5329 14.3022 20.5753C15.1797 19.8219 16.4272 18.9072 18.1188 17.9944C22.103 15.8445 28.5368 13.7129 38.378 13.7129C45.2249 13.7129 50.4835 14.7444 54.4337 16.0951C54.4464 15.8928 54.4699 15.5146 54.4699 15.5146C54.4933 15.1244 54.5244 14.5762 54.5555 13.9449C54.6177 12.681 54.6798 11.0885 54.6798 9.76262C54.6798 8.48327 54.3195 7.12969 53.9506 6.0832C53.7672 5.56267 53.6417 5.26609 53.5043 4.958L51.9813 4.42658L48.6777 3.59447L45.063 2.97105L41.132 2.55891L38.3299 2.44153L35.5143 2.50935L32.7014 2.76759L29.9234 3.22407L27.2017 3.8788L24.166 4.91082C24.0286 5.2189 23.8556 5.63093 23.6721 6.15145C23.3033 7.19794 22.943 8.55152 22.943 9.83087C22.943 11.1568 23.005 12.7493 23.0673 14.0132C23.0984 14.6445 23.1295 15.1926 23.1528 15.5829C23.1528 15.5829 23.146 15.7295 23.1528 15.8362L22.4766 16.0001L20.6117 16.7814L20.1866 16.949C20.0952 16.068 20.3266 13.5943 20.4482 12.0401C20.5693 10.4922 20.6507 9.71877 20.6507 8.10879C20.6507 7.29258 20.7417 6.50822 20.7417 6.50822L19.6319 7.10287L17.3929 8.60796L15.3389 10.3322L13.4967 12.2755L11.8932 14.4405L10.5524 16.8116L9.50131 19.3783L8.75586 22.1198L8.62357 23.0128L8.62357 26.6359L8.62357 26.6379C8.62116 27.1659 8.42462 27.6736 8.07286 28.0706L8.05156 28.3331Z" fill="#F3B95F"/>
<path d="M69.8687 28.5649C69.8423 28.5032 69.8213 28.4363 69.8131 28.3686C69.7973 28.238 69.7627 28.1388 69.7698 28.0695C69.7484 28.0502 69.7273 28.0305 69.7066 28.0104C69.2839 27.5992 69.0443 27.0425 69.0399 26.4605L69.0399 26.4572L69.0399 22.4909L68.829 21.4651L68.0058 18.7523L66.9466 16.2377L65.6327 13.9214L64.0586 11.8086L62.2111 9.90437L60.0874 8.21147L57.6794 6.73508L56.872 6.35759C56.872 6.35759 56.972 7.22433 56.972 8.04054C56.972 9.65052 57.0535 10.424 57.1745 11.9719C57.2961 13.526 57.4733 16.378 57.3819 17.259C57.9171 17.5009 58.4191 17.7454 58.8891 17.9909C60.931 19.0576 62.365 20.1266 63.2942 20.9365C63.2954 20.9333 63.2967 20.9301 63.298 20.9269C63.3385 20.8267 63.425 20.7511 63.5314 20.7227L63.5354 20.7217L63.5432 20.7197L63.5701 20.713C63.5929 20.7075 63.6253 20.7 63.6661 20.6914C63.7476 20.6741 63.8633 20.6522 64.0038 20.6322C64.2834 20.5926 64.669 20.5599 65.0841 20.592C65.9095 20.6559 66.9314 20.9894 67.3677 22.1186C67.5676 22.6358 67.7243 23.4894 67.8502 24.4454C67.9776 25.4122 68.0776 26.518 68.1542 27.5603C68.2309 28.6033 68.2845 29.5862 68.319 30.3081C68.3302 30.544 68.3394 30.7521 68.3467 30.9254C68.3508 30.9247 68.3548 30.9241 68.3589 30.9235C68.4408 30.8693 68.5389 30.8414 68.6393 30.8452L69.9953 30.8953L69.8687 28.5649Z" fill="#F3B95F"/>
<path d="M68.5167 50.2913L68.7217 49.0654L68.9979 47.122L69.2956 44.6779L69.3518 44.0958L68.0942 44.0561C68.0317 44.0541 67.9709 44.0399 67.9153 44.0152C67.6439 46.2659 67.33 48.052 67.042 49.4097C66.9771 49.716 66.9134 50.0004 66.8519 50.2635C66.943 50.1964 67.0581 50.1627 67.1762 50.1731L68.5167 50.2913Z" fill="#F3B95F"/>
<path d="M10.245 54.6523L10.2333 54.7466L10.2038 54.8874L10.1716 55.0204L10.1355 55.1304L11.155 57.5333L14.057 62.2962L14.0357 62.2737C14.0506 62.2895 14.0636 62.3062 14.0749 62.3237C14.0798 62.3265 14.0847 62.3294 14.0895 62.3324L16.4557 63.8136L24.9391 67.2804L31.0598 68.6041C31.1145 68.6159 31.1634 68.6396 31.2042 68.6718C31.652 68.6903 32.1613 68.7184 32.7161 68.7494L32.8548 68.7571C33.8016 68.8102 34.8854 68.8709 36.0521 68.9104C38.5025 68.9932 41.299 68.9811 43.9113 68.61C49.1339 67.8681 55.9555 64.8428 59.3068 63.0556C61.8819 61.6819 63.9031 59.6834 65.2856 58.0157C65.7865 57.4113 66.2015 56.8529 66.5267 56.3873L66.3852 56.3744C66.1754 56.3552 66.0046 56.2017 65.968 55.9993C65.8106 55.1291 65.7684 54.2431 65.8423 53.363L64.5047 56.7375C64.4937 56.7651 64.4791 56.7913 64.4613 56.8152L64.4587 56.8187L64.4529 56.8263L64.4317 56.8538C64.4133 56.8775 64.3863 56.9118 64.3505 56.956C64.279 57.0444 64.1725 57.1723 64.0302 57.3336C63.7456 57.6562 63.3175 58.1128 62.7387 58.655C61.581 59.7394 59.8198 61.1672 57.397 62.5521C52.5481 65.3238 45.0607 67.9167 34.4823 67.2534C24.8572 66.6493 19.1279 63.7378 15.7987 60.9464C14.1362 59.5525 13.0784 58.1936 12.4345 57.1779C12.1126 56.6701 11.8943 56.2483 11.7555 55.9508C11.6861 55.802 11.6367 55.6843 11.6041 55.6025C11.5878 55.5616 11.5757 55.5296 11.5674 55.5072L11.5579 55.4809L11.5553 55.4732L11.5544 55.4708C11.5501 55.4581 11.5461 55.4437 11.5434 55.4307L11.3803 54.6523H10.245Z" fill="#F3B95F"/>
<path d="M10.1208 53.3898L10.1314 53.4162L10.1716 53.5336L10.2038 53.6666L10.2333 53.8101L10.2521 53.9614L10.2526 53.9692H11.2372L10.6014 50.9352C10.5587 50.7464 10.5077 50.5141 10.4509 50.243C10.2823 49.4387 10.0624 48.2915 9.85649 46.9174C9.72597 46.0465 9.60093 45.0833 9.49818 44.0577L7.89872 44.1083L7.91387 44.3258L8.07208 45.9065L8.24638 47.242L8.43408 48.3428L8.61642 49.2297L8.78804 49.9131L8.93283 50.4087L9.04278 50.7348L9.10981 50.9017L9.13126 50.9513L9.14735 50.9878L10.1234 53.3824L10.1208 53.3898Z" fill="#F3B95F"/>
<path d="M7.68352 39.0545L7.69936 40.3531L7.78516 42.479L7.83523 43.1973L8.54413 43.1749C8.53593 43.1596 8.52788 43.1443 8.51998 43.1289C8.34003 42.7779 8.18745 42.2973 8.06103 41.7392C7.89313 40.9979 7.76217 40.0779 7.68352 39.0545Z" fill="#F3B95F"/>
<path d="M69.9824 34.5477L69.9943 31.8084L69.4304 31.7876C69.5727 32.1301 69.6897 32.5698 69.7837 33.0702C69.8658 33.5071 69.9328 34.0046 69.9824 34.5477Z" fill="#F3B95F"/>
<path d="M69.1442 43.1762L69.4396 43.1856L69.5508 42.0345C69.4374 42.4782 69.3058 42.8617 69.1554 43.1547C69.1517 43.1619 69.148 43.1691 69.1442 43.1762Z" fill="#F3B95F"/>
<path d="M67.5668 53.3614L68.3007 51.4547L68.3275 51.3321L68.3532 51.1931L67.3978 51.1089C67.1064 51.6651 66.9146 52.2654 66.8307 52.884L67.5668 53.3614Z" fill="#F3B95F"/>
<path d="M67.2941 55.2061L67.2898 55.1822L67.2684 55.0257L67.255 54.8614L67.2496 54.697L67.255 54.5301L67.2684 54.3684L67.2898 54.2093L67.3166 54.0632L67.3269 54.0261L66.7594 53.6581C66.7226 54.2725 66.7476 54.889 66.8343 55.4989L67.1004 55.5231C67.1614 55.4259 67.2127 55.342 67.2541 55.273C67.2687 55.2489 67.282 55.2265 67.2941 55.2061Z" fill="#F3B95F"/>
<path d="M7.81734 32.1599L7.74757 34.0489C7.78915 33.6879 7.8389 33.3516 7.89599 33.0452C7.98697 32.5568 8.09982 32.1262 8.23675 31.7873L7.8383 31.8023L7.81734 32.1599Z" fill="#F3B95F"/>
<path d="M9.4356 32.8953C9.43483 32.9301 9.43406 32.9654 9.43331 33.0012C9.47873 32.9765 9.52887 32.9588 9.58219 32.9499L9.60146 32.946C9.55153 32.75 9.49989 32.5757 9.44759 32.424C9.44346 32.5675 9.4394 32.7246 9.4356 32.8953Z" fill="#F3B95F"/>
<path d="M11.2005 29.3126C11.0413 29.982 10.8873 30.6831 10.745 31.4067C10.8097 31.4296 10.8653 31.4454 10.9133 31.4549C10.9571 31.4635 10.9831 31.4642 10.9964 31.4635C11.0006 31.4568 11.0066 31.4457 11.0137 31.4286C11.0394 31.367 11.0639 31.2654 11.084 31.1028C11.1037 30.9436 11.1168 30.7479 11.1301 30.507C11.1342 30.4311 11.1384 30.3512 11.1427 30.2675C11.157 29.9911 11.1736 29.6724 11.2005 29.3126Z" fill="#F3B95F"/>
<path d="M67.1991 31.5341C66.9523 30.2698 66.6425 29.0994 66.3143 28.0511C66.3513 28.3139 66.3843 28.5824 66.4124 28.8564C66.4799 29.5075 66.5088 30.0565 66.532 30.4978L66.5324 30.5048C66.5368 30.5888 66.541 30.6689 66.5453 30.7451C66.5587 30.986 66.5722 31.1818 66.5921 31.3411C66.6125 31.5036 66.6371 31.6052 66.6629 31.6668C66.6702 31.6842 66.6763 31.6953 66.6805 31.7021C66.6938 31.7028 66.7199 31.7021 66.7643 31.6933C66.8686 31.6727 67.0087 31.6218 67.1991 31.5341Z" fill="#F3B95F"/>
<path d="M17.2089 27.692C17.9655 25.6931 19.8551 24.6308 21.3791 25.1744C22.8636 25.7039 23.5906 27.619 22.9216 29.5655H22.9185L22.8622 29.7149C22.1081 31.7138 20.2187 32.7756 18.7004 32.2323C17.1827 31.6893 16.4522 29.6912 17.2089 27.692Z" fill="#F3B95F"/>
<path d="M23.0863 22.0662C23.4277 21.167 24.2559 20.7319 24.8809 20.9545C25.5056 21.1769 25.8466 22.0175 25.5056 22.9182C25.1684 23.818 24.3367 24.2508 23.7061 24.0429C23.396 23.9406 23.1579 23.6801 23.0371 23.3176C22.9163 22.955 22.9197 22.505 23.0863 22.0662Z" fill="#F3B95F"/>
<path d="M10.797 13.4413C9.26146 13.2984 7.71325 13.335 6.18552 13.5506C5.71624 13.6263 4.63817 13.9057 3.59808 14.2711C3.27272 14.3854 2.9567 14.5061 2.66868 14.6293H4.2628C4.27933 14.6276 4.29612 14.6267 4.31313 14.6267L6.36922 14.6267C6.96593 14.6293 7.53766 14.861 7.95994 15.2718C8.38226 15.6826 8.6209 16.2393 8.62357 16.8208L8.62358 16.8228L8.62358 18.4292L8.78267 17.8446L9.00523 17.4037L8.84435 17.6594L9.95716 14.9465L10.0135 14.8318L10.797 13.4413Z" fill="#F3B95F"/>
<path d="M71.4168 13.5486C69.9563 13.3439 68.4774 13.3023 67.0087 13.424L67.4775 14.2527L67.5284 14.357L68.6413 16.9968L68.6949 17.1403L69.0399 18.2792L69.0399 16.6414C69.0434 16.0593 69.2834 15.5025 69.7071 15.0922C70.1307 14.682 70.7044 14.4514 71.3017 14.4506H74.4876C74.3318 14.3904 74.1713 14.3312 74.0084 14.2737C72.9717 13.9078 71.8939 13.6271 71.4168 13.5486Z" fill="#F3B95F"/>
<path d="M24.1444 67.6962L16.5259 64.5829L15.2462 66.9139L22.9987 70.0826L24.1444 67.6962Z" fill="#F3B95F"/>
<path d="M89.3736 14.401H95.024L98.6694 21.98H98.8152L102.461 14.401H108.111L101.258 27.1906V33.057H96.227V27.1906L89.3736 14.401Z" fill="#F3B95F"/>
<path d="M109.763 33.057V14.401H123.214V18.482H114.83V21.6885H122.522V25.7695H114.83V28.976H123.178V33.057H109.763Z" fill="#F3B95F"/>
<path d="M125.727 33.057V14.401H130.794V28.976H138.34V33.057H125.727Z" fill="#F3B95F"/>
<path d="M140.389 33.057V14.401H145.456V28.976H153.002V33.057H140.389Z" fill="#F3B95F"/>
<path d="M172.404 23.729C172.404 25.8059 172 27.558 171.192 28.9851C170.384 30.4062 169.294 31.4841 167.921 32.2189C166.547 32.9477 165.016 33.312 163.327 33.312C161.626 33.312 160.089 32.9446 158.716 32.2098C157.349 31.4689 156.261 30.3879 155.453 28.9669C154.651 27.5398 154.25 25.7938 154.25 23.729C154.25 21.6521 154.651 19.9031 155.453 18.482C156.261 17.0549 157.349 15.977 158.716 15.2482C160.089 14.5134 161.626 14.146 163.327 14.146C165.016 14.146 166.547 14.5134 167.921 15.2482C169.294 15.977 170.384 17.0549 171.192 18.482C172 19.9031 172.404 21.6521 172.404 23.729ZM167.191 23.729C167.191 22.6116 167.043 21.6703 166.745 20.9051C166.453 20.1339 166.019 19.5509 165.442 19.1561C164.871 18.7553 164.166 18.5549 163.327 18.5549C162.489 18.5549 161.781 18.7553 161.204 19.1561C160.633 19.5509 160.198 20.1339 159.901 20.9051C159.609 21.6703 159.463 22.6116 159.463 23.729C159.463 24.8464 159.609 25.7908 159.901 26.562C160.198 27.3272 160.633 27.9102 161.204 28.311C161.781 28.7057 162.489 28.9031 163.327 28.9031C164.166 28.9031 164.871 28.7057 165.442 28.311C166.019 27.9102 166.453 27.3272 166.745 26.562C167.043 25.7908 167.191 24.8464 167.191 23.729Z" fill="#F3B95F"/>
<path d="M178.31 33.057L172.805 14.401H178.456L181.007 25.8788H181.153L184.179 14.401H188.626L191.652 25.9153H191.798L194.35 14.401H200L194.495 33.057H189.647L186.476 22.6359H186.33L183.158 33.057H178.31Z" fill="#F3B95F"/>
<path d="M97.6269 47.7151C97.5899 47.2524 97.4163 46.8915 97.1061 46.6324C96.8006 46.3733 96.3354 46.2437 95.7105 46.2437C95.3124 46.2437 94.9861 46.2923 94.7315 46.3895C94.4815 46.482 94.2963 46.6093 94.176 46.7712C94.0556 46.9331 93.9931 47.1182 93.9885 47.3264C93.9792 47.4976 94.0093 47.6526 94.0788 47.7914C94.1528 47.9256 94.2686 48.0482 94.4259 48.1593C94.5833 48.2657 94.7847 48.3629 95.03 48.4508C95.2754 48.5387 95.567 48.6173 95.9049 48.6867L97.0714 48.9366C97.8584 49.1032 98.5319 49.3229 99.092 49.5959C99.6521 49.8689 100.11 50.1905 100.467 50.5606C100.823 50.9262 101.085 51.338 101.251 51.796C101.423 52.2541 101.511 52.7538 101.515 53.2952C101.511 54.2298 101.277 55.021 100.814 55.6688C100.351 56.3166 99.6891 56.8093 98.8281 57.1471C97.9718 57.4848 96.9418 57.6537 95.7383 57.6537C94.5023 57.6537 93.4238 57.471 92.5026 57.1054C91.586 56.7399 90.8732 56.1777 90.364 55.4189C89.8594 54.6555 89.6048 53.6792 89.6002 52.4901H93.2664C93.2895 52.925 93.3983 53.2905 93.5927 53.5867C93.7871 53.8828 94.0602 54.1072 94.4121 54.2599C94.7685 54.4126 95.192 54.4889 95.6827 54.4889C96.0947 54.4889 96.4396 54.438 96.7173 54.3362C96.9951 54.2344 97.2057 54.0933 97.3492 53.9129C97.4927 53.7324 97.5667 53.5265 97.5714 53.2952C97.5667 53.0777 97.495 52.888 97.3561 52.7261C97.2219 52.5595 96.9997 52.4114 96.6895 52.2819C96.3794 52.1477 95.9605 52.0228 95.4327 51.9071L94.0163 51.6017C92.7572 51.3287 91.7642 50.873 91.0375 50.2345C90.3154 49.5913 89.9566 48.7145 89.9612 47.604C89.9566 46.7018 90.1973 45.9129 90.6834 45.2374C91.174 44.5572 91.8522 44.0274 92.7178 43.648C93.5881 43.2686 94.5856 43.0789 95.7105 43.0789C96.8585 43.0789 97.8514 43.2709 98.6893 43.655C99.5271 44.039 100.173 44.5803 100.627 45.279C101.085 45.9731 101.316 46.7851 101.321 47.7151H97.6269Z" fill="black"/>
<path d="M102.984 43.2732H107.789L111.094 51.3241H111.261L114.566 43.2732H119.371V57.4872H115.593V49.2697H115.482L112.316 57.3761H110.039L106.872 49.2142H106.761V57.4872H102.984V43.2732Z" fill="black"/>
<path d="M132.761 47.7151C132.724 47.2524 132.551 46.8915 132.24 46.6324C131.935 46.3733 131.47 46.2437 130.845 46.2437C130.447 46.2437 130.12 46.2923 129.866 46.3895C129.616 46.482 129.431 46.6093 129.31 46.7712C129.19 46.9331 129.127 47.1182 129.123 47.3264C129.114 47.4976 129.144 47.6526 129.213 47.7914C129.287 47.9256 129.403 48.0482 129.56 48.1593C129.718 48.2657 129.919 48.3629 130.164 48.4508C130.41 48.5387 130.701 48.6173 131.039 48.6867L132.206 48.9366C132.993 49.1032 133.666 49.3229 134.226 49.5959C134.786 49.8689 135.245 50.1905 135.601 50.5606C135.958 50.9262 136.219 51.338 136.386 51.796C136.557 52.2541 136.645 52.7538 136.65 53.2952C136.645 54.2298 136.411 55.021 135.948 55.6688C135.485 56.3166 134.823 56.8093 133.962 57.1471C133.106 57.4848 132.076 57.6537 130.873 57.6537C129.637 57.6537 128.558 57.471 127.637 57.1054C126.72 56.7399 126.008 56.1777 125.498 55.4189C124.994 54.6555 124.739 53.6792 124.735 52.4901H128.401C128.424 52.925 128.533 53.2905 128.727 53.5867C128.921 53.8828 129.195 54.1072 129.546 54.2599C129.903 54.4126 130.326 54.4889 130.817 54.4889C131.229 54.4889 131.574 54.438 131.852 54.3362C132.129 54.2344 132.34 54.0933 132.484 53.9129C132.627 53.7324 132.701 53.5265 132.706 53.2952C132.701 53.0777 132.629 52.888 132.49 52.7261C132.356 52.5595 132.134 52.4114 131.824 52.2819C131.514 52.1477 131.095 52.0228 130.567 51.9071L129.151 51.6017C127.892 51.3287 126.899 50.873 126.172 50.2345C125.45 49.5913 125.091 48.7145 125.096 47.604C125.091 46.7018 125.332 45.9129 125.818 45.2374C126.308 44.5572 126.987 44.0274 127.852 43.648C128.722 43.2686 129.72 43.0789 130.845 43.0789C131.993 43.0789 132.986 43.2709 133.824 43.655C134.661 44.039 135.307 44.5803 135.761 45.279C136.219 45.9731 136.451 46.7851 136.455 47.7151H132.761Z" fill="black"/>
<path d="M137.729 46.3825V43.2732H150.089V46.3825H145.812V57.4872H142.007V46.3825H137.729Z" fill="black"/>
<path d="M159.957 43.2732H163.818V52.379C163.818 53.4617 163.559 54.3987 163.04 55.1899C162.527 55.9765 161.809 56.5849 160.888 57.0152C159.967 57.4409 158.897 57.6537 157.68 57.6537C156.453 57.6537 155.379 57.4409 154.458 57.0152C153.537 56.5849 152.819 55.9765 152.306 55.1899C151.796 54.3987 151.542 53.4617 151.542 52.379V43.2732H155.402V52.0459C155.402 52.4855 155.5 52.8787 155.694 53.2258C155.888 53.5682 156.157 53.8365 156.5 54.0308C156.847 54.2252 157.24 54.3223 157.68 54.3223C158.124 54.3223 158.518 54.2252 158.86 54.0308C159.203 53.8365 159.471 53.5682 159.666 53.2258C159.86 52.8787 159.957 52.4855 159.957 52.0459V43.2732Z" fill="black"/>
<path d="M171.124 57.4872H165.653V43.2732H171.069C172.532 43.2732 173.795 43.5578 174.86 44.1269C175.929 44.6914 176.753 45.5057 177.332 46.5699C177.915 47.6295 178.207 48.8996 178.207 50.3802C178.207 51.8608 177.917 53.1332 177.339 54.1974C176.76 55.257 175.941 56.0713 174.881 56.6404C173.821 57.2049 172.569 57.4872 171.124 57.4872ZM169.513 54.2113H170.985L172.784 53.8712C173.284 53.6445 173.663 53.2535 173.923 52.6983C174.186 52.1431 174.318 51.3704 174.318 50.3802C174.318 49.39 174.184 48.6173 173.916 48.0621C173.652 47.5069 173.263 47.1159 172.749 46.8892C172.24 46.6625 171.615 46.5491 170.874 46.5491H169.513V54.2113Z" fill="black"/>
<path d="M183.854 43.2732V57.4872H179.993V43.2732H183.854Z" fill="black"/>
<path d="M199.459 50.3802C199.459 51.9626 199.151 53.2975 198.536 54.3848C197.92 55.4675 197.089 56.2888 196.043 56.8486C194.997 57.4039 193.83 57.6815 192.543 57.6815C191.247 57.6815 190.076 57.4016 189.03 56.8417C187.988 56.2772 187.16 55.4536 186.544 54.3709C185.933 53.2836 185.628 51.9534 185.628 50.3802C185.628 48.7978 185.933 47.4652 186.544 46.3825C187.16 45.2952 187.988 44.4739 189.03 43.9187C190.076 43.3588 191.247 43.0789 192.543 43.0789C193.83 43.0789 194.997 43.3588 196.043 43.9187C197.089 44.4739 197.92 45.2952 198.536 46.3825C199.151 47.4652 199.459 48.7978 199.459 50.3802ZM195.488 50.3802C195.488 49.5288 195.374 48.8117 195.147 48.2287C194.925 47.6411 194.594 47.1969 194.154 46.8961C193.719 46.5907 193.182 46.4381 192.543 46.4381C191.905 46.4381 191.365 46.5907 190.926 46.8961C190.49 47.1969 190.16 47.6411 189.933 48.2287C189.71 48.8117 189.599 49.5288 189.599 50.3802C189.599 51.2316 189.71 51.951 189.933 52.5387C190.16 53.1217 190.49 53.5658 190.926 53.8712C191.365 54.172 191.905 54.3223 192.543 54.3223C193.182 54.3223 193.719 54.172 194.154 53.8712C194.594 53.5658 194.925 53.1217 195.147 52.5387C195.374 51.951 195.488 51.2316 195.488 50.3802Z" fill="black"/>
</svg>
