<svg width="18" height="18" viewBox="0 0 18 18" fill="none" xmlns="http://www.w3.org/2000/svg">
<path d="M15.5299 2.46967C15.8228 2.76256 15.8228 3.23744 15.5299 3.53033L3.5299 15.5303C3.23701 15.8232 2.76214 15.8232 2.46924 15.5303C2.17635 15.2374 2.17635 14.7626 2.46924 14.4697L14.4692 2.46967C14.7621 2.17678 15.237 2.17678 15.5299 2.46967Z" fill="#707275"/>
<path d="M11.8492 4.02903C11.0045 3.63122 10.052 3.375 8.99956 3.375C6.79149 3.375 5.02365 4.50277 3.76727 5.69976C2.508 6.8995 1.6909 8.23476 1.36745 8.81235C1.15549 9.19087 1.13024 9.64283 1.30423 10.0443C1.42574 10.3246 1.63238 10.7589 1.93696 11.2629C2.1512 11.6174 2.61226 11.7311 2.96676 11.5169C3.32127 11.3026 3.43498 10.8416 3.22074 10.4871C2.97577 10.0817 2.80578 9.73117 2.70267 9.49832C3.00699 8.962 3.72771 7.80924 4.80195 6.78578C5.91155 5.72862 7.32709 4.875 8.99956 4.875C9.6011 4.875 10.1694 4.98543 10.7022 5.17604L11.8492 4.02903Z" fill="#707275"/>
<path d="M13.2675 6.85341C14.3029 7.85959 14.9988 8.97378 15.2964 9.49832C15.1933 9.73117 15.0233 10.0817 14.7784 10.4871C14.5641 10.8416 14.6779 11.3026 15.0324 11.5169C15.3869 11.7311 15.8479 11.6174 16.0622 11.2629C16.3667 10.7589 16.5734 10.3246 16.6949 10.0443C16.8689 9.64283 16.8436 9.19086 16.6317 8.81235C16.3165 8.24963 15.5329 6.96774 14.3282 5.79266L13.2675 6.85341Z" fill="#707275"/>
<path d="M8.99957 6C9.27213 6 9.5379 6.02908 9.79395 6.0843L8.25058 7.62767C7.61046 7.85358 7.10315 8.36089 6.87725 9.001L5.33387 10.5444C5.27865 10.2883 5.24957 10.0226 5.24957 9.75C5.24957 7.67893 6.9285 6 8.99957 6Z" fill="#707275"/>
<path d="M8.99957 12C8.73642 12 8.48381 11.9548 8.24909 11.8718L7.12331 12.9976C7.67517 13.3171 8.31601 13.5 8.99957 13.5C11.0706 13.5 12.7496 11.8211 12.7496 9.75C12.7496 9.06644 12.5667 8.4256 12.2472 7.87373L11.1214 8.99952C11.2044 9.23424 11.2496 9.48684 11.2496 9.75C11.2496 10.9926 10.2422 12 8.99957 12Z" fill="#707275"/>
</svg>
