<svg width="96" height="16" viewBox="0 0 96 16" fill="none" xmlns="http://www.w3.org/2000/svg">
<path d="M14.6565 7.14863L11.8377 9.60863L12.6821 13.2711C12.7268 13.4626 12.714 13.663 12.6454 13.8472C12.5768 14.0315 12.4555 14.1914 12.2965 14.3071C12.1375 14.4227 11.9479 14.489 11.7515 14.4975C11.555 14.5059 11.3605 14.4564 11.1921 14.3549L7.99771 12.4174L4.81021 14.3549C4.64182 14.4564 4.44724 14.5059 4.25082 14.4975C4.05439 14.489 3.86483 14.4227 3.70583 14.3071C3.54683 14.1914 3.42545 14.0315 3.35686 13.8472C3.28828 13.663 3.27553 13.4626 3.32021 13.2711L4.16333 9.61238L1.34396 7.14863C1.19484 7.02002 1.08701 6.85024 1.03399 6.66059C0.980978 6.47094 0.985134 6.26986 1.04594 6.08257C1.10675 5.89527 1.2215 5.7301 1.37581 5.60776C1.53011 5.48542 1.71711 5.41137 1.91333 5.39488L5.62958 5.073L7.08021 1.613C7.15596 1.43145 7.28374 1.27637 7.44745 1.16729C7.61116 1.05821 7.80349 1 8.00021 1C8.19693 1 8.38926 1.05821 8.55297 1.16729C8.71668 1.27637 8.84446 1.43145 8.92021 1.613L10.3752 5.073L14.0902 5.39488C14.2864 5.41137 14.4734 5.48542 14.6277 5.60776C14.782 5.7301 14.8968 5.89527 14.9576 6.08257C15.0184 6.26986 15.0226 6.47094 14.9695 6.66059C14.9165 6.85024 14.8087 7.02002 14.6596 7.14863H14.6565Z" fill="#F3B95F"/>
<path d="M34.6565 7.14863L31.8377 9.60863L32.6821 13.2711C32.7268 13.4626 32.714 13.663 32.6454 13.8472C32.5768 14.0315 32.4555 14.1914 32.2965 14.3071C32.1375 14.4227 31.9479 14.489 31.7515 14.4975C31.555 14.5059 31.3605 14.4564 31.1921 14.3549L27.9977 12.4174L24.8102 14.3549C24.6418 14.4564 24.4472 14.5059 24.2508 14.4975C24.0544 14.489 23.8648 14.4227 23.7058 14.3071C23.5468 14.1914 23.4255 14.0315 23.3569 13.8472C23.2883 13.663 23.2755 13.4626 23.3202 13.2711L24.1633 9.61238L21.344 7.14863C21.1948 7.02002 21.087 6.85024 21.034 6.66059C20.981 6.47094 20.9851 6.26986 21.0459 6.08257C21.1067 5.89527 21.2215 5.7301 21.3758 5.60776C21.5301 5.48542 21.7171 5.41137 21.9133 5.39488L25.6296 5.073L27.0802 1.613C27.156 1.43145 27.2837 1.27637 27.4475 1.16729C27.6112 1.05821 27.8035 1 28.0002 1C28.1969 1 28.3893 1.05821 28.553 1.16729C28.7167 1.27637 28.8445 1.43145 28.9202 1.613L30.3752 5.073L34.0902 5.39488C34.2864 5.41137 34.4734 5.48542 34.6277 5.60776C34.782 5.7301 34.8968 5.89527 34.9576 6.08257C35.0184 6.26986 35.0226 6.47094 34.9695 6.66059C34.9165 6.85024 34.8087 7.02002 34.6596 7.14863H34.6565Z" fill="#F3B95F"/>
<path d="M54.6565 7.14863L51.8377 9.60863L52.6821 13.2711C52.7268 13.4626 52.714 13.663 52.6454 13.8472C52.5768 14.0315 52.4555 14.1914 52.2965 14.3071C52.1375 14.4227 51.9479 14.489 51.7515 14.4975C51.555 14.5059 51.3605 14.4564 51.1921 14.3549L47.9977 12.4174L44.8102 14.3549C44.6418 14.4564 44.4472 14.5059 44.2508 14.4975C44.0544 14.489 43.8648 14.4227 43.7058 14.3071C43.5468 14.1914 43.4255 14.0315 43.3569 13.8472C43.2883 13.663 43.2755 13.4626 43.3202 13.2711L44.1633 9.61238L41.344 7.14863C41.1948 7.02002 41.087 6.85024 41.034 6.66059C40.981 6.47094 40.9851 6.26986 41.0459 6.08257C41.1067 5.89527 41.2215 5.7301 41.3758 5.60776C41.5301 5.48542 41.7171 5.41137 41.9133 5.39488L45.6296 5.073L47.0802 1.613C47.156 1.43145 47.2837 1.27637 47.4475 1.16729C47.6112 1.05821 47.8035 1 48.0002 1C48.1969 1 48.3893 1.05821 48.553 1.16729C48.7167 1.27637 48.8445 1.43145 48.9202 1.613L50.3752 5.073L54.0902 5.39488C54.2864 5.41137 54.4734 5.48542 54.6277 5.60776C54.782 5.7301 54.8968 5.89527 54.9576 6.08257C55.0184 6.26986 55.0226 6.47094 54.9695 6.66059C54.9165 6.85024 54.8087 7.02002 54.6596 7.14863H54.6565Z" fill="#F3B95F"/>
<path d="M74.6565 7.14863L71.8377 9.60863L72.6821 13.2711C72.7268 13.4626 72.714 13.663 72.6454 13.8472C72.5768 14.0315 72.4555 14.1914 72.2965 14.3071C72.1375 14.4227 71.9479 14.489 71.7515 14.4975C71.555 14.5059 71.3605 14.4564 71.1921 14.3549L67.9977 12.4174L64.8102 14.3549C64.6418 14.4564 64.4472 14.5059 64.2508 14.4975C64.0544 14.489 63.8648 14.4227 63.7058 14.3071C63.5468 14.1914 63.4255 14.0315 63.3569 13.8472C63.2883 13.663 63.2755 13.4626 63.3202 13.2711L64.1633 9.61238L61.344 7.14863C61.1948 7.02002 61.087 6.85024 61.034 6.66059C60.981 6.47094 60.9851 6.26986 61.0459 6.08257C61.1067 5.89527 61.2215 5.7301 61.3758 5.60776C61.5301 5.48542 61.7171 5.41137 61.9133 5.39488L65.6296 5.073L67.0802 1.613C67.156 1.43145 67.2837 1.27637 67.4475 1.16729C67.6112 1.05821 67.8035 1 68.0002 1C68.1969 1 68.3893 1.05821 68.553 1.16729C68.7167 1.27637 68.8445 1.43145 68.9202 1.613L70.3752 5.073L74.0902 5.39488C74.2864 5.41137 74.4734 5.48542 74.6277 5.60776C74.782 5.7301 74.8968 5.89527 74.9576 6.08257C75.0184 6.26986 75.0226 6.47094 74.9695 6.66059C74.9165 6.85024 74.8087 7.02002 74.6596 7.14863H74.6565Z" fill="#F3B95F"/>
<path d="M94.6565 7.14863L91.8377 9.60863L92.6821 13.2711C92.7268 13.4626 92.714 13.663 92.6454 13.8472C92.5768 14.0315 92.4555 14.1914 92.2965 14.3071C92.1375 14.4227 91.9479 14.489 91.7515 14.4975C91.555 14.5059 91.3605 14.4564 91.1921 14.3549L87.9977 12.4174L84.8102 14.3549C84.6418 14.4564 84.4472 14.5059 84.2508 14.4975C84.0544 14.489 83.8648 14.4227 83.7058 14.3071C83.5468 14.1914 83.4255 14.0315 83.3569 13.8472C83.2883 13.663 83.2755 13.4626 83.3202 13.2711L84.1633 9.61238L81.344 7.14863C81.1948 7.02002 81.087 6.85024 81.034 6.66059C80.981 6.47094 80.9851 6.26986 81.0459 6.08257C81.1067 5.89527 81.2215 5.7301 81.3758 5.60776C81.5301 5.48542 81.7171 5.41137 81.9133 5.39488L85.6296 5.073L87.0802 1.613C87.156 1.43145 87.2837 1.27637 87.4475 1.16729C87.6112 1.05821 87.8035 1 88.0002 1C88.1969 1 88.3893 1.05821 88.553 1.16729C88.7167 1.27637 88.8445 1.43145 88.9202 1.613L90.3752 5.073L94.0902 5.39488C94.2864 5.41137 94.4734 5.48542 94.6277 5.60776C94.782 5.7301 94.8968 5.89527 94.9576 6.08257C95.0184 6.26986 95.0226 6.47094 94.9695 6.66059C94.9165 6.85024 94.8087 7.02002 94.6596 7.14863H94.6565Z" fill="#DCDDDE"/>
</svg>
