<svg width="136" height="24" viewBox="0 0 136 24" fill="none" xmlns="http://www.w3.org/2000/svg">
<path d="M21.9852 10.7229L17.7571 14.4129L19.0236 19.9067C19.0906 20.1939 19.0715 20.4945 18.9686 20.7709C18.8658 21.0472 18.6837 21.2872 18.4452 21.4606C18.2067 21.6341 17.9223 21.7334 17.6277 21.7462C17.3331 21.7589 17.0412 21.6845 16.7886 21.5323L11.9971 18.6261L7.2158 21.5323C6.96321 21.6845 6.67135 21.7589 6.37671 21.7462C6.08208 21.7334 5.79773 21.6341 5.55923 21.4606C5.32074 21.2872 5.13866 21.0472 5.03578 20.7709C4.9329 20.4945 4.91378 20.1939 4.9808 19.9067L6.24549 14.4186L2.01643 10.7229C1.79275 10.53 1.631 10.2754 1.55148 9.99089C1.47195 9.70642 1.47819 9.4048 1.5694 9.12385C1.66061 8.84291 1.83274 8.59515 2.0642 8.41164C2.29566 8.22813 2.57615 8.11705 2.87049 8.09231L8.44486 7.6095L10.6208 2.4195C10.7344 2.14717 10.9261 1.91455 11.1717 1.75093C11.4172 1.58731 11.7057 1.5 12.0008 1.5C12.2959 1.5 12.5844 1.58731 12.8299 1.75093C13.0755 1.91455 13.2672 2.14717 13.3808 2.4195L15.5633 7.6095L21.1358 8.09231C21.4301 8.11705 21.7106 8.22813 21.9421 8.41164C22.1736 8.59515 22.3457 8.84291 22.4369 9.12385C22.5281 9.4048 22.5343 9.70642 22.4548 9.99089C22.3753 10.2754 22.2135 10.53 21.9899 10.7229H21.9852Z" fill="#DCDDDE"/>
<path d="M49.9852 10.7229L45.7571 14.4129L47.0236 19.9067C47.0906 20.1939 47.0715 20.4945 46.9686 20.7709C46.8658 21.0472 46.6837 21.2872 46.4452 21.4606C46.2067 21.6341 45.9223 21.7334 45.6277 21.7462C45.3331 21.7589 45.0412 21.6845 44.7886 21.5323L39.9971 18.6261L35.2158 21.5323C34.9632 21.6845 34.6714 21.7589 34.3767 21.7462C34.0821 21.7334 33.7977 21.6341 33.5592 21.4606C33.3207 21.2872 33.1387 21.0472 33.0358 20.7709C32.9329 20.4945 32.9138 20.1939 32.9808 19.9067L34.2455 14.4186L30.0164 10.7229C29.7927 10.53 29.631 10.2754 29.5515 9.99089C29.472 9.70642 29.4782 9.4048 29.5694 9.12385C29.6606 8.84291 29.8327 8.59515 30.0642 8.41164C30.2957 8.22813 30.5761 8.11705 30.8705 8.09231L36.4449 7.6095L38.6208 2.4195C38.7344 2.14717 38.9261 1.91455 39.1717 1.75093C39.4172 1.58731 39.7057 1.5 40.0008 1.5C40.2959 1.5 40.5844 1.58731 40.8299 1.75093C41.0755 1.91455 41.2672 2.14717 41.3808 2.4195L43.5633 7.6095L49.1358 8.09231C49.4301 8.11705 49.7106 8.22813 49.9421 8.41164C50.1736 8.59515 50.3457 8.84291 50.4369 9.12385C50.5281 9.4048 50.5343 9.70642 50.4548 9.99089C50.3753 10.2754 50.2135 10.53 49.9899 10.7229H49.9852Z" fill="#DCDDDE"/>
<path d="M77.9852 10.7229L73.7571 14.4129L75.0236 19.9067C75.0906 20.1939 75.0715 20.4945 74.9686 20.7709C74.8658 21.0472 74.6837 21.2872 74.4452 21.4606C74.2067 21.6341 73.9223 21.7334 73.6277 21.7462C73.3331 21.7589 73.0412 21.6845 72.7886 21.5323L67.9971 18.6261L63.2158 21.5323C62.9632 21.6845 62.6714 21.7589 62.3767 21.7462C62.0821 21.7334 61.7977 21.6341 61.5592 21.4606C61.3207 21.2872 61.1387 21.0472 61.0358 20.7709C60.9329 20.4945 60.9138 20.1939 60.9808 19.9067L62.2455 14.4186L58.0164 10.7229C57.7927 10.53 57.631 10.2754 57.5515 9.99089C57.472 9.70642 57.4782 9.4048 57.5694 9.12385C57.6606 8.84291 57.8327 8.59515 58.0642 8.41164C58.2957 8.22813 58.5761 8.11705 58.8705 8.09231L64.4449 7.6095L66.6208 2.4195C66.7344 2.14717 66.9261 1.91455 67.1717 1.75093C67.4172 1.58731 67.7057 1.5 68.0008 1.5C68.2959 1.5 68.5844 1.58731 68.8299 1.75093C69.0755 1.91455 69.2672 2.14717 69.3808 2.4195L71.5633 7.6095L77.1358 8.09231C77.4301 8.11705 77.7106 8.22813 77.9421 8.41164C78.1736 8.59515 78.3457 8.84291 78.4369 9.12385C78.5281 9.4048 78.5343 9.70642 78.4548 9.99089C78.3753 10.2754 78.2135 10.53 77.9899 10.7229H77.9852Z" fill="#DCDDDE"/>
<path d="M105.985 10.7229L101.757 14.4129L103.024 19.9067C103.091 20.1939 103.072 20.4945 102.969 20.7709C102.866 21.0472 102.684 21.2872 102.445 21.4606C102.207 21.6341 101.922 21.7334 101.628 21.7462C101.333 21.7589 101.041 21.6845 100.789 21.5323L95.9971 18.6261L91.2158 21.5323C90.9632 21.6845 90.6714 21.7589 90.3767 21.7462C90.0821 21.7334 89.7977 21.6341 89.5592 21.4606C89.3207 21.2872 89.1387 21.0472 89.0358 20.7709C88.9329 20.4945 88.9138 20.1939 88.9808 19.9067L90.2455 14.4186L86.0164 10.7229C85.7927 10.53 85.631 10.2754 85.5515 9.99089C85.472 9.70642 85.4782 9.4048 85.5694 9.12385C85.6606 8.84291 85.8327 8.59515 86.0642 8.41164C86.2957 8.22813 86.5761 8.11705 86.8705 8.09231L92.4449 7.6095L94.6208 2.4195C94.7344 2.14717 94.9261 1.91455 95.1717 1.75093C95.4172 1.58731 95.7057 1.5 96.0008 1.5C96.2959 1.5 96.5844 1.58731 96.8299 1.75093C97.0755 1.91455 97.2672 2.14717 97.3808 2.4195L99.5633 7.6095L105.136 8.09231C105.43 8.11705 105.711 8.22813 105.942 8.41164C106.174 8.59515 106.346 8.84291 106.437 9.12385C106.528 9.4048 106.534 9.70642 106.455 9.99089C106.375 10.2754 106.214 10.53 105.99 10.7229H105.985Z" fill="#DCDDDE"/>
<path d="M133.985 10.7229L129.757 14.4129L131.024 19.9067C131.091 20.1939 131.072 20.4945 130.969 20.7709C130.866 21.0472 130.684 21.2872 130.445 21.4606C130.207 21.6341 129.922 21.7334 129.628 21.7462C129.333 21.7589 129.041 21.6845 128.789 21.5323L123.997 18.6261L119.216 21.5323C118.963 21.6845 118.671 21.7589 118.377 21.7462C118.082 21.7334 117.798 21.6341 117.559 21.4606C117.321 21.2872 117.139 21.0472 117.036 20.7709C116.933 20.4945 116.914 20.1939 116.981 19.9067L118.245 14.4186L114.016 10.7229C113.793 10.53 113.631 10.2754 113.551 9.99089C113.472 9.70642 113.478 9.4048 113.569 9.12385C113.661 8.84291 113.833 8.59515 114.064 8.41164C114.296 8.22813 114.576 8.11705 114.87 8.09231L120.445 7.6095L122.621 2.4195C122.734 2.14717 122.926 1.91455 123.172 1.75093C123.417 1.58731 123.706 1.5 124.001 1.5C124.296 1.5 124.584 1.58731 124.83 1.75093C125.076 1.91455 125.267 2.14717 125.381 2.4195L127.563 7.6095L133.136 8.09231C133.43 8.11705 133.711 8.22813 133.942 8.41164C134.174 8.59515 134.346 8.84291 134.437 9.12385C134.528 9.4048 134.534 9.70642 134.455 9.99089C134.375 10.2754 134.214 10.53 133.99 10.7229H133.985Z" fill="#DCDDDE"/>
</svg>
